<?xml version="1.0" encoding="utf-8"?>
<!-- Generator: Adobe Illustrator 22.0.1, SVG Export Plug-In . SVG Version: 6.00 Build 0)  -->
<svg version="1.1" xmlns="http://www.w3.org/2000/svg" xmlns:xlink="http://www.w3.org/1999/xlink" x="0px" y="0px"
	 viewBox="0 0 720 720" style="enable-background:new 0 0 720 720;" xml:space="preserve">
<style type="text/css">
	.st0{display:none;}
	.st1{display:inline;}
	.st2{fill:url(#SVGID_1_);}
	.st3{fill:url(#SVGID_2_);}
</style>
<g id="Layer_1" class="st0">
	<g class="st1">
		<g>
			<linearGradient id="SVGID_1_" gradientUnits="userSpaceOnUse" x1="48.1423" y1="361.7078" x2="683.6248" y2="361.7078">
				<stop  offset="2.929688e-02" style="stop-color:#E2436A"/>
				<stop  offset="0.3605" style="stop-color:#E72279"/>
				<stop  offset="0.7561" style="stop-color:#C837E8"/>
				<stop  offset="0.8807" style="stop-color:#8A1DE6"/>
				<stop  offset="0.9988" style="stop-color:#5307E4"/>
			</linearGradient>
			<path class="st2" d="M219.8,147.3c-81.1,13-147.1,80.4-166.2,159.2c-21.5,88.8,12.1,183.7,75.7,247.2
				c31.6,31.5,69.8,55.9,110.9,73c45.1,18.7,96.1,31,145,25.3c25.6-3,50.2-10.8,74.1-20.3c20.8-8.3,41.3-17.6,61.1-28
				c38.2-20.1,74.6-44.9,103.7-77.1c30.9-34.2,50.1-75.4,56.9-121c3.7-24.9,4.3-50.2,3.3-75.3c-1-25.6-4-51.3-11.2-75.9
				c-23.9-82.1-96.1-135-173.8-162C460.5,78.9,418.9,70,377.7,70.1c-38.2,0-79,8.4-107.5,35.5c-6.7,6.4-14.3,14.3-17,23.4
				c-3.3,10.7,3.4,17.9,12.1,23c10,5.9,21.1,9.8,32.5,11.5c9.9,1.5,22.2,2.6,31.8-0.9c5.6-2.1,14.2-8,12.7-15.1
				c-1.3-6.1-8.9-8.8-14.4-7.6c-6.5,1.4-12.5,7-13.9,13.6c-1.6,7.8,3.4,15.4,9.3,19.9c3.6,2.7,7.8,4.7,12.1,5.8
				c5.6,1.4,13.1,0.3,17.5,4.5c4.1,3.9,2.9,10.3,0.4,14.7c-3.3,5.9-9.5,8.4-15.8,9.9c-10.6,2.6-21,3.5-30.8,8.7
				c-8.8,4.6-16.4,11.1-23.1,18.4c-6.8,7.4-12.7,15.6-18.1,24c-5.6,8.7-11.3,17.6-15.4,27.1c-3.6,8.3-6.5,18.3-3.3,27.2
				c3.2,9,11.8,12.9,20.4,15.4c21.9,6.4,45.7,6,67.5-0.6c10.5-3.2,20.9-7.9,30-14.1c6.7-4.5,13.6-11.4,11.9-20.2
				c-3.1-16-25.1-20-34.1-7.1c-10.4,14.8-1.4,33.6,14.2,39.8c19.6,7.8,39.4-2.5,54.3-15c-0.7,0-1.4,0-2.1,0
				c4.9,3.8,3.8,10.8-0.2,14.9c-4.2,4.4-10.7,5.9-16.4,7.4c-12.4,3.3-24.8,6.6-37.2,9.9c-12.1,3.2-24.2,6.5-36.3,9.7
				c-9.3,2.5-20.1,4.3-27.5,11.1c-7.6,7-11.1,17.8-15.2,26.9c-5.2,11.5-10.4,22.9-15.7,34.4c-3.7,8.1-8.9,16.8-7.1,26
				c1.6,7.8,7.2,14.3,13.8,18.5c8.7,5.5,19.3,6.7,29.3,7.5c11.4,0.9,22.6,2,33.8,4.4c20.8,4.5,40.8,12.4,59.2,23.2
				c9.6,5.7,18.7,12.1,27.2,19.3c7.5,6.3,14.2,13.6,22.1,19.3c12.7,9.1,28.5,10.9,41,0.6c13.2-10.8,19.5-29.8,19.5-46.4
				c0-26.4-11-52.6-2.9-78.8c-0.8,0.2-1.7,0.4-2.5,0.7c6.2,5.9,14.2,13.7,13.2,23.1c-0.4,4-2.5,8.3-6.1,10.5
				c-4.9,3-10.1,0.3-13.6-3.5c-11.7-12.9-8.9-32.8-4.1-47.9c5.3-16.9,13.8-33.8,11.7-52c-1.7-14.9-14.6-40.2,8.1-45.5
				c17.6-4.1,30.3,10.8,40.2,22.9c11,13.5,23.3,25.7,37.3,36.2c6.2,4.6,13.3,9.7,21.5,9c5.7-0.5,10.4-3.9,13.6-8.4
				c10-13.9,4.1-30.9,7.5-46.4c6.2-28.6,46.3-31.4,52.6-60c0.4-1.9-2.5-2.7-2.9-0.8c-6,27.3-43.9,30.7-51.9,57.4
				c-4.9,16.3,4.5,41.8-12.7,53c-10.2,6.6-21.4-2.6-29.3-8.8c-7.8-6.1-15.1-12.8-21.9-20c-11.3-12-20.8-29.1-36.7-35.5
				c-12-4.9-28.7-1.9-33,11.8c-2.5,8.2,0.3,16.9,2.4,24.9c2.9,11.2,3,21.5,0.1,32.6c-4.6,17.7-13.6,34.3-13.7,53
				c0,8.4,1.9,17.1,6.9,24c4,5.4,10.3,10.3,17.3,7.6c6.6-2.5,10.3-10.3,9.7-17.1c-0.8-9.1-7.9-16.3-14.1-22.3
				c-0.8-0.8-2.2-0.4-2.5,0.7c-11.7,38,16.5,80-8,115.3c-4.5,6.5-10.8,12.1-18.7,14.1c-9.5,2.4-18.8-1.2-26.5-6.7
				c-8.2-5.9-15.1-13.5-22.8-19.9c-7.5-6.2-15.4-11.9-23.7-17c-16.9-10.4-35.5-18.3-54.7-23.3c-9.4-2.5-19-4.2-28.7-5.3
				c-11.2-1.2-22.9-1-33.7-4.6c-9.3-3.1-18.6-10.3-20.5-20.4c-1.1-5.9,1.2-11.4,3.6-16.6c2.6-5.9,5.4-11.8,8-17.6
				c4.8-10.6,9.6-21.2,14.5-31.8c4.9-10.8,9.8-20,21.7-24.3c12.1-4.3,25.1-6.9,37.5-10.2c13.1-3.5,26.1-7,39.2-10.4
				c9.8-2.6,23.5-4,30.7-12c4.6-5.2,5.5-14-0.4-18.6c-0.7-0.5-1.4-0.6-2.1,0c-16,13.4-41.8,25.5-60.2,8.8c-7-6.3-9.4-16.2-6.2-25.1
				c3.5-9.6,13.5-14.4,22.8-9.4c3.7,2,7.1,5.5,8.2,9.7c1.6,6.2-2.3,11.6-6.8,15.3c-8.6,7.2-19.9,12.2-30.5,15.7
				c-20.9,6.9-43.7,7.8-65,2.3c-10.9-2.8-21.9-7.4-22.7-20.2c-0.6-10.1,4.4-20.2,9.2-28.8c9.5-16.6,19.9-33.6,34.1-46.7
				c7.1-6.6,15.3-12,24.5-15.3c9.3-3.3,19.5-3.2,28.7-7c7.1-3,12.6-8.9,13.5-16.8c0.8-7.3-3.5-12.6-10.5-14.2c-4.3-1-8.8-0.9-13-2.1
				c-5-1.5-9.8-4.1-13.3-8c-7-7.6-6.3-18.8,3.3-23.8c4.1-2.1,8.7-2.3,12.2,1c5,4.7-0.3,10-4.7,12.7c-8.9,5.5-22.5,4.4-32.5,3
				c-11.7-1.6-23.1-5.4-33.3-11.4c-5.3-3.1-11.2-7.2-11.5-13.9c-0.3-6.5,3.7-12.7,7.6-17.5c11.4-14.2,26.5-24.9,43.1-32
				c34.1-14.5,73.2-15,109.5-10.4c38,4.8,75.8,15.2,110.9,30.6c34.4,15,66.8,35.5,93,62.5c28.6,29.4,47.3,65.7,55.5,105.9
				c4.7,23.1,6.4,46.8,6.6,70.3c0.3,24.3-1,48.6-5.7,72.5c-8.1,41.6-27.7,78.9-56.5,109.9c-26.9,28.9-59.8,51.7-94.4,70.5
				c-18,9.8-36.5,18.5-55.4,26.4c-21.8,9.2-44.2,17.4-67.5,22c-46.5,9.3-94.5,1.1-138.9-14.1c-39.2-13.4-76.3-33.3-108.5-59.5
				C89.4,519.4,47.4,438.6,50.3,353.3c2.7-78.1,47.5-151.8,118.2-186.5c16.4-8.1,34-13.6,52.1-16.6
				C222.5,149.9,221.6,147,219.8,147.3L219.8,147.3z"/>
		</g>
	</g>
</g>
<g id="Layer_2">
	<g>
		<g>
			<linearGradient id="SVGID_2_" gradientUnits="userSpaceOnUse" x1="48.3084" y1="360.1581" x2="660.3806" y2="360.1581">
				<stop  offset="0" style="stop-color:#5900FF"/>
				<stop  offset="0.3605" style="stop-color:#00EDFF"/>
				<stop  offset="0.5751" style="stop-color:#8DEFCF"/>
				<stop  offset="0.7561" style="stop-color:#FFF1A7"/>
				<stop  offset="0.7594" style="stop-color:#FFEEA5"/>
				<stop  offset="0.926" style="stop-color:#EB652F"/>
				<stop  offset="0.9988" style="stop-color:#E32E00"/>
			</linearGradient>
			<path class="st3" d="M371,163.4c65.5-9.7,132.1-11.3,198-4.8c-0.5-0.5-1-1-1.5-1.5c-1.1,29.8-1.5,59.7,2.5,89.3
				c3.4,25.6,10.7,50.1,20.4,73.9c18.7,45.8,44.9,88.7,59.2,136.3c8,26.6,11.4,54.5,6.4,82c0.5-0.4,1-0.7,1.4-1.1
				c-89.3,7.2-178.6,13.2-268.1,17.7c-89.4,4.6-178.9,7.9-268.5,9.8c-16.9,0.4-41.5,4.3-54.2-9.9c-6.5-7.3-8.5-18.2-9.9-27.6
				c-1.2-8.8-1.4-17.8-0.5-26.7c3.5-35.5,23.3-67.6,53.4-86.6c29.6-18.7,65.2-24.4,99.4-28.3c17.2-2,34.5-3.4,51.7-5.6
				c16.8-2.1,33.8-4.5,49.7-10.3c15.8-5.8,29.8-15.1,39.1-29.4c10.5-16.2,16-36,20.7-54.6c5-19.8,8.2-40,9.6-60.4
				c0.7-10.6,1-21.2,0.7-31.8c-0.2-7.3-0.6-14.5-5.2-20.5c-3.1-4-7.4-6-11.9-3.1c-0.6,0.4-1,1.4-0.5,2.1
				c12.9,17.3,25.8,34.6,38.7,51.9c0.4-0.8,0.9-1.5,1.3-2.3c-17.6,0.6-35.1,1.2-52.7,1.9c-1.2,0-2.1,1.7-1.1,2.6
				c16.4,14,32.7,28,49.1,41.9c0.5-0.8,1-1.7,1.5-2.5c-14.1-2.2-28.1-4.3-42.2-6.5c-1-0.2-2.3,0.7-1.8,1.8c7.9,21.4,19,41.2,33,59.1
				c0.2-0.8,0.4-1.7,0.7-2.5c-14.3,3.3-28.9,3.6-43.3,0.9c-1-0.2-2.3,0.7-1.8,1.8c6,15.5,12,31.1,17.9,46.6c0.5-0.6,1-1.3,1.4-1.9
				c-59.7,4.1-120.1,8.2-178,24.2c-26.9,7.4-53.7,17.2-77.8,31.3c-20.9,12.2-40.5,28.5-52,50.2c-5.1,9.7-10,21.6-8.2,32.8
				c1.7,10.7,10.5,16.1,20.7,17c6.5,0.5,13.1-0.5,19.6-1.2c8.2-0.9,16.4-1.8,24.6-2.7c16.4-1.8,32.9-3.5,49.3-5.1
				c65.8-6.4,131.7-11.6,197.7-15.5c66-3.9,132.1-6.5,198.2-7.8c8.6-0.2,17.2-0.3,25.8-0.5c6.6-0.1,13.4,0.1,19.9-1.5
				c9.9-2.5,16.5-9.9,17.8-20c1.4-10.5-2-21.4-6.1-30.9c-5.1-12-10.8-23.8-17.6-34.9c-12.1-20.1-28.8-39.3-51.3-47.9
				c-18.8-7.2-41.8-7.1-59.4,3.5c-18.7,11.3-26.2,33.2-21.9,54.1c4.9,23.7,22.8,41.2,45.1,49.3c12,4.4,24.9,6.1,37.6,5.8
				c11.5-0.3,24.4-1.6,33.6-9.1c18.7-15.2,10.5-43.6,2.8-62.3c-8.2-20-21.7-42.3-45.9-42.8c-9-0.2-18.5,3-24.1,10.4
				c-6.5,8.6-5.9,19.6-1.6,29c5.1,11.2,14.2,20.5,23.4,28.4c1.5,1.3,3.6-0.9,2.1-2.1c-9.4-8.1-19-17.7-23.7-29.5
				c-4.3-10.8-2.1-23.5,8.6-29.7c8.9-5.1,20.8-4.5,29.9-0.1c10.5,5.2,17.8,15.4,23.1,25.5c9.2,17.7,21.3,46.4,8.6,65.2
				c-7.4,10.9-21.4,13.3-33.7,13.9c-11.9,0.6-24-0.6-35.5-4.1c-23.2-7.1-42.4-24.4-47.4-48.7c-4.5-21.6,4.6-43.4,24.8-53.1
				c18.4-8.8,41.6-7,59.5,2.2c20.8,10.6,35.5,30.3,46.6,50.3c5.7,10.3,11.1,21.1,15.2,32.1c3.6,9.6,6.8,21.8,2.3,31.6
				c-5.9,13.1-21.9,12-33.9,12.2c-14.5,0.2-29.1,0.5-43.6,0.8c-58.8,1.4-117.6,3.8-176.4,7.2c-58.7,3.4-117.4,7.9-176,13.3
				c-29.6,2.8-59.2,5.8-88.8,9c-11.3,1.3-25.3,4.9-36.5,0.9c-14.1-5.1-11.7-21.5-7.7-32.7c16.4-46,67.5-69.9,110.5-84.4
				c51.5-17.4,105.8-23.8,159.7-28.1c13.3-1,26.6-2,39.9-2.9c0.9-0.1,1.8-0.9,1.4-1.9c-6-15.5-12-31.1-17.9-46.6
				c-0.6,0.6-1.2,1.2-1.8,1.8c15,2.9,30.1,2.6,44.9-0.9c1.2-0.3,1.3-1.7,0.7-2.5c-13.7-17.5-24.5-37-32.2-57.8
				c-0.6,0.6-1.2,1.2-1.8,1.8c14.1,2.2,28.1,4.3,42.2,6.5c1.3,0.2,2.7-1.4,1.5-2.5c-16.4-14-32.7-28-49.1-41.9
				c-0.4,0.9-0.7,1.7-1.1,2.6c17.6-0.6,35.1-1.2,52.7-1.9c1,0,2-1.3,1.3-2.3c-12.9-17.3-25.8-34.6-38.7-51.9
				c-0.2,0.7-0.4,1.4-0.5,2.1c9.9-6.3,12.5,14.9,12.6,20.1c0.3,10.6,0.1,21.2-0.6,31.8c-1.4,21-4.8,41.9-10.1,62.3
				c-5.1,19.5-10.9,41.1-23.6,57.2c-11.5,14.5-28.8,22.3-46.3,26.8c-64.3,16.5-138.8,4-195.5,45.1c-26.6,19.3-43.8,49-47.9,81.6
				c-2,16.2-1.2,34.4,5,49.7c6.2,15.3,20.5,20.2,35.9,20.9c20.9,1,42.2-0.6,63.1-1.1c22.2-0.6,44.4-1.2,66.6-2
				c44.4-1.5,88.8-3.3,133.2-5.4c89.1-4.3,178.2-9.8,267.1-16.7c10.9-0.8,21.8-1.7,32.7-2.6c0.6,0,1.3-0.4,1.4-1.1
				c8.6-47.7-7.5-93.8-27.1-136.7c-21.4-46.8-47.5-92.4-56.8-143.6c-6.1-33.6-5.8-68-4.5-102.1c0-0.9-0.7-1.4-1.5-1.5
				c-66.2-6.5-133-4.9-198.8,4.9C368.3,160.7,369.1,163.6,371,163.4L371,163.4z"/>
		</g>
	</g>
</g>
</svg>
