<svg xmlns="http://www.w3.org/2000/svg" viewBox="0 0 281.51 44.08"><defs><style>.cls-1{fill:#fff;isolation:isolate;}</style></defs><title>pixarAsset 4</title><g id="Layer_2" data-name="Layer 2"><g id="Keylines"><path class="cls-1" d="M213.37,24.64a2.49,2.49,0,0,1,.63-.36c.45-.11.91-.14,1.36-.21,2.19-.36,2.12.21,2.13-2.32,0-6.51-.09-13-.09-19.54,0-.93-.41-1.26-1.24-1.32-.67,0-1.34-.08-2-.18a3.61,3.61,0,0,1-.82-.35l.07-.27c.3,0,.59-.09.88-.09,4.39.08,8.78.1,13.17.28a14.36,14.36,0,0,1,4.24.82c2.68,1,3.57,3.36,2.34,5.93a11.21,11.21,0,0,1-4.6,4.66,114.85,114.85,0,0,0,9.9,13.87c-1.26.52-1.34.6-2.27-.25q-3.75-3.45-7.36-7c-1.36-1.35-2.63-2.78-3.87-4.24a1.9,1.9,0,0,0-1.92-.75c-.7.11-1.41.12-2.16.18a3.13,3.13,0,0,0-.11.62c0,2.94.09,5.88.12,8.82,0,.65.24,1,.91,1s1.47.17,2.2.28a6,6,0,0,1,.82.26l0,.32H213.49Zm8.3-12.19c1.35-.24,2.64-.42,3.9-.71a6.11,6.11,0,0,0,3.53-2.39,4.64,4.64,0,0,0-1.29-7.06A11,11,0,0,0,222.42,1c-.24,0-.71.48-.71.74C221.66,5.2,221.67,8.7,221.67,12.45Z"/><path class="cls-1" d="M120.6.22h11.1l.06.33-3.24.75,5.75,8.23L140,1.32,137.18.53l.07-.38h8.36l.14.16c-.3.18-.59.5-.91.53a4.41,4.41,0,0,0-3,1.78c-2.22,2.57-4.47,5.12-6.72,7.69L146.43,26c-1.13.2-2.09.33-2.91-.55q-4.7-5.05-9.42-10.09c-.53-.57-1-1.16-1.75-2-2.27,3.55-4.45,7-6.73,10.51l3.24.75-.08.37h-9.11l-.13-.24c.4-.17.81-.31,1.19-.5a7.74,7.74,0,0,0,2.41-1.37c2.76-3.28,5.4-6.65,8-10a1,1,0,0,0,0-1c-2.5-3.31-5-6.62-7.6-9.83-.5-.61-1.49-.82-2.25-1.2-.26-.12-.54-.22-.8-.32Z"/><path class="cls-1" d="M193.46,25H181.52c0-.57,0-.57,1.47-.79.69-.1,1.37-.22,2.15-.35l-3.74-10.5c-2.7.17-5.35.33-8,.53a.91.91,0,0,0-.67.51c-.88,3.08-1.72,6.17-2.6,9.38l3.43.79-.08.42h-9.56l-.13-.18c.34-.17.69-.49,1-.48,1.88.05,2.78-1,3.41-2.63,2.49-6.54,5.08-13,7.62-19.56a9.21,9.21,0,0,0,.25-.9l-2.84-.7.09-.4h10.79l.1.3-2.78.77c.4,1.2.76,2.4,1.21,3.57,2.2,5.74,4.48,11.45,6.61,17.22a3.11,3.11,0,0,0,3.19,2.29,4.13,4.13,0,0,1,1.07.28ZM180.93,12.23Q179.16,7.12,177.38,2l-.24-.05c-1.25,3.37-2.5,6.74-3.84,10.32Z"/><path class="cls-1" d="M50.74,1.07c-.05.6-.13,1.15-.13,1.71,0,6.66.08,13.31.07,20,0,1,.34,1.39,1.32,1.42a24.66,24.66,0,0,1,2.84.31,2.17,2.17,0,0,1,.68.34l-.09.3H42.29l-.06-.28c1.17-.77,2.66-.42,4.15-.94,0-.86,0-1.8,0-2.75,0-6.37-.09-12.75-.11-19.12,0-.67-.2-1-.87-1S43.86.83,43.09.71a4.8,4.8,0,0,1-.87-.32l.06-.26a5.24,5.24,0,0,1,.77-.1c4.25.06,8.51,0,12.74.27a11.93,11.93,0,0,1,4.53,1.31c2.12,1,2.82,3,2.32,5.27a8.15,8.15,0,0,1-3.37,5,13.71,13.71,0,0,1-6.8,2.59,4.29,4.29,0,0,1,.66-.91,6.29,6.29,0,0,1,1-.49C57.5,11.56,59,8.88,58.32,5.32a4.58,4.58,0,0,0-2.75-3.43A10.43,10.43,0,0,0,50.74,1.07Z"/><path class="cls-1" d="M89.39,1.38,85.51.67,85.58.2h12.6a5.25,5.25,0,0,1-1,.64A7.08,7.08,0,0,1,96,1c-2.13.35-2.15.35-2.15,2.46,0,6.41.06,12.81,0,19.22,0,1,.36,1.47,1.36,1.51a19.15,19.15,0,0,1,2,.24,3,3,0,0,1,.69.35l-.1.27H85.31c.41-.29.59-.52.81-.56a21.56,21.56,0,0,1,2.41-.37c.81-.06,1.08-.48,1.07-1.25,0-2,0-4,0-5.95,0-4.7-.09-9.41-.14-14.12C89.48,2.36,89.43,1.9,89.39,1.38Z"/><path class="cls-1" d="M52.5,36.8h1.22l2.36,5.45,2.61-5.44h1v6.78H58.37c.15-.23.41-.45.42-.68,0-1.64,0-3.29,0-4.93l-.28-.08-2.69,5.54c-.81-1.93-1.57-3.74-2.39-5.72-.5,2.31-.34,5.48.34,5.86H52.15C52.76,42.75,53.07,37.66,52.5,36.8Z"/><path class="cls-1" d="M141.46,37.38c-.3,4.18-.1,5.74.85,6.16h-1.67c.6-2,.35-4.12.4-6.2,0-.23-.39-.47-.56-.67,1-.34,1.72.14,2.38,1.09,1.11,1.57,2.36,3,3.62,4.64.53-2.34.17-5.35-.7-5.74h1.47c-.11,2.38-.21,4.77-.33,7.42Z"/><path class="cls-1" d="M25.13,36.83v7l-.37.09L19.53,37.5c0,1.93,0,3.67,0,5.41A5.06,5.06,0,0,0,19.8,44l.51-.45h-1.7c.67-1,.68-6.25,0-6.67a1.56,1.56,0,0,1,2.06.68c1.18,1.63,2.47,3.18,3.78,4.84V36.83Z"/><path class="cls-1" d="M225.2,43.58c.74-.72.68-6.17,0-6.66A31.81,31.81,0,0,1,230,37c2.6.4,3.41,2.9,1.74,5a4.6,4.6,0,0,1-3.23,1.63A32.74,32.74,0,0,1,225.2,43.58ZM226.55,37v6.14c1.87.35,3.48.08,4.66-1.41a2.59,2.59,0,0,0,.2-3.08C230.3,36.87,228.44,37.1,226.55,37Z"/><path class="cls-1" d="M122.77,37.44a4.32,4.32,0,0,1,4.71-.42,3.22,3.22,0,0,1,1.62,3.69,4,4,0,0,1-3.72,3.08,3.82,3.82,0,0,1-3.95-2.08,3.65,3.65,0,0,1,.92-4.08,2.12,2.12,0,0,1,.45-.23,4.19,4.19,0,0,0-.91,2.92,3.66,3.66,0,0,0,3.63,3.08,2.88,2.88,0,0,0,2.93-2.76,3.52,3.52,0,0,0-4-3.72A12.67,12.67,0,0,0,122.77,37.44Z"/><path class="cls-1" d="M259.66,37.44a4.33,4.33,0,0,1,4.72-.42A3.24,3.24,0,0,1,266,40.71a4,4,0,0,1-3.73,3.08,3.83,3.83,0,0,1-3.95-2.08,3.64,3.64,0,0,1,.93-4.08,2.12,2.12,0,0,1,.45-.23,4.14,4.14,0,0,0-.91,2.92,3.66,3.66,0,0,0,3.62,3.08,2.87,2.87,0,0,0,2.93-2.76,3.52,3.52,0,0,0-4-3.72A13.64,13.64,0,0,0,259.66,37.44Z"/><path class="cls-1" d="M74.48,36.44h1.71c-.21,1.08,1.87,6.5,2.77,7.12H76.83c.52-.38.46-2.26-.42-3-.51-.41-1.63-.25-2.43-.08-.53.11-.81,2.65-.45,3.07H71.82C72.8,42.93,74.9,37.27,74.48,36.44Zm.73.41L74,40h2.24Z"/><path class="cls-1" d="M7.25,43.58h-2c.34-.36.06-2.8-.6-3.07a4,4,0,0,0-2.48.05c-.53.15-.74,2.57-.4,3H0c1-.58,3.17-6.38,2.72-7.12H4.53C4.12,37.41,6.22,43,7.25,43.58ZM3.42,36.82,2.29,40H4.5Z"/><path class="cls-1" d="M206.76,36.83h1.47c-.15.27-.41.54-.42.81a32.81,32.81,0,0,0,0,3.29,2.09,2.09,0,0,0,2.25,2.26c1.3,0,1.94-.78,2-2.36,0-1,0-2,0-3.08,0-.31-.3-.61-.45-.9h1.3a11.44,11.44,0,0,0-.21,1.24c-.07,1.09,0,2.19-.17,3.27a2.52,2.52,0,0,1-2.93,2.14,2.38,2.38,0,0,1-2.46-2.4C207,40,207,38.9,207,37.81A6.2,6.2,0,0,0,206.76,36.83Z"/><path class="cls-1" d="M92.52,43.42H91.4a4.4,4.4,0,0,0,.3-1.05c0-1.49,0-3,0-4.46,0-.66-.22-.91-.87-.81l-2.06.32V36.5c.66.47,6,.46,6.81-.06L95.38,38a4.43,4.43,0,0,0-1.13-.72,9.11,9.11,0,0,0-1.77-.18C92.43,39.25,92.38,41.31,92.52,43.42Z"/><path class="cls-1" d="M192.28,43.4h-1.4a3.66,3.66,0,0,0,.3-1c0-1.52,0-3,0-4.56,0-.58-.17-.88-.79-.78l-2.15.32v-1c.7.54,5.93.52,6.81-.07l-.25,2c-.21-.88-2.09-1.62-2.67-1.18a.85.85,0,0,0-.21.56c0,1.66,0,3.32,0,5C192,42.93,192.16,43.15,192.28,43.4Z"/><path class="cls-1" d="M280.32,43.42c.93-1.39.82-1.91-.6-2.93-.37-.27-.75-.53-1.1-.82A1.61,1.61,0,0,1,278,37.8a1.67,1.67,0,0,1,1.71-1.17,13.36,13.36,0,0,1,1.71.17l-.06,1.25c-.4-.36-.79-1-1.29-1.08a1.9,1.9,0,0,0-1.49.58c-.16.15.12,1,.42,1.29.53.56,1.28.89,1.84,1.41a1.82,1.82,0,0,1-.53,3.14Z"/><path class="cls-1" d="M244.25,36.83h1.87c-.73.56-.68,6.19.11,6.73h-1.9C245.09,43,245.09,37.4,244.25,36.83Z"/><path class="cls-1" d="M107.29,36.83h2c-.81.56-.79,6.19,0,6.75h-2C108.2,43,108.22,37.44,107.29,36.83Z"/><path class="cls-1" d="M175.32,43.42c.88-1.47.78-1.91-.65-2.94-.37-.26-.75-.53-1.11-.82a1.6,1.6,0,0,1-.61-1.88,1.7,1.7,0,0,1,1.74-1.15,15.93,15.93,0,0,1,1.64.13v1.29c-.4-.36-.76-.95-1.24-1.06a2,2,0,0,0-1.55.48c-.46.48-.09,1.06.42,1.43a21.16,21.16,0,0,1,1.79,1.32,1.85,1.85,0,0,1-.45,3.18Z"/><path class="cls-1" d="M39.86,43.59H37.71c.91-.51,1-6.07.08-6.76h1.84C38.85,37.42,38.94,43,39.86,43.59Z"/><path class="cls-1" d="M175.3,43.4c-.6.1-1.2.19-1.79.3-.36.07-.71.17-1.08.26l.11-2.1c.3.43.52,1.08,1,1.32a5,5,0,0,0,1.81.24Z"/><path class="cls-1" d="M280.3,43.39l-2.75.45v-2c.3.42.56,1.06,1,1.33a4.76,4.76,0,0,0,1.73.21Z"/></g></g></svg>