<svg xmlns="http://www.w3.org/2000/svg" viewBox="0 0 602.28 181.5"><defs><style>.cls-1{fill:#fff;}</style></defs><title>amazonAsset 1</title><g id="Layer_2" data-name="Layer 2"><g id="svg1936"><path id="path8" class="cls-1" d="M373.64,141.94c-35,25.8-85.73,39.56-129.4,39.56-61.25,0-116.38-22.65-158.09-60.33-3.28-3-.34-7,3.59-4.69,45,26.19,100.67,42,158.17,42a314.49,314.49,0,0,0,120.65-24.67c5.92-2.52,10.88,3.88,5.08,8.18"/><path id="path10" class="cls-1" d="M388.19,125.29c-4.45-5.71-29.57-2.7-40.84-1.36-3.44.42-4-2.57-.87-4.72,20-14.08,52.83-10,56.66-5.3s-1,37.65-19.8,53.35c-2.88,2.42-5.63,1.13-4.35-2.07,4.22-10.54,13.69-34.16,9.2-39.9"/><path id="path12" class="cls-1" d="M348.13,19.82V6.13a3.38,3.38,0,0,1,3.46-3.46h61.27a3.41,3.41,0,0,1,3.54,3.46V17.85c0,2-1.68,4.54-4.61,8.6L380,71.78c11.8-.29,24.25,1.47,34.95,7.5a6.25,6.25,0,0,1,3.25,5.32V99.2c0,2-2.2,4.33-4.51,3.12-18.85-9.88-43.89-10.95-64.73.11-2.12,1.15-4.35-1.15-4.35-3.15V85.41c0-2.22,0-6,2.25-9.41l36.78-52.75h-32a3.39,3.39,0,0,1-3.54-3.43"/><path id="path14" class="cls-1" d="M124.63,105.21H106a3.51,3.51,0,0,1-3.32-3.17V6.37a3.49,3.49,0,0,1,3.59-3.43h17.38A3.49,3.49,0,0,1,127,6.13V18.64h.34C131.9,6.55,140.42.92,151.9.92c11.67,0,19,5.63,24.2,17.72C180.61,6.55,190.86.92,201.84.92c7.82,0,16.36,3.22,21.58,10.46,5.9,8,4.69,19.74,4.69,30l0,60.38a3.53,3.53,0,0,1-3.6,3.46H205.88a3.54,3.54,0,0,1-3.35-3.46V51c0-4,.36-14.1-.53-17.93-1.39-6.42-5.56-8.23-11-8.23a12.37,12.37,0,0,0-11.14,7.84c-1.91,4.82-1.73,12.9-1.73,18.32v50.71a3.52,3.52,0,0,1-3.59,3.46H156a3.53,3.53,0,0,1-3.35-3.46l0-50.71c0-10.67,1.76-26.37-11.48-26.37C127.7,24.67,128.23,40,128.23,51v50.71a3.53,3.53,0,0,1-3.6,3.46"/><path id="path16" class="cls-1" d="M469.15.92c27.66,0,42.63,23.75,42.63,54,0,29.18-16.54,52.33-42.63,52.33-27.16,0-41.95-23.75-41.95-53.35,0-29.78,15-52.93,41.95-52.93m.16,19.53c-13.74,0-14.61,18.72-14.61,30.38s-.18,36.66,14.45,36.66c14.45,0,15.13-20.14,15.13-32.41,0-8.07-.34-17.72-2.78-25.38-2.1-6.66-6.27-9.25-12.19-9.25"/><path id="path18" class="cls-1" d="M547.64,105.21H529.08a3.54,3.54,0,0,1-3.35-3.46l0-95.69a3.52,3.52,0,0,1,3.59-3.12h17.28a3.57,3.57,0,0,1,3.33,2.67V20.24h.34C555.46,7.16,562.77.92,575.64.92c8.37,0,16.52,3,21.76,11.27,4.88,7.66,4.88,20.53,4.88,29.78v60.22a3.59,3.59,0,0,1-3.59,3H580a3.54,3.54,0,0,1-3.31-3v-52c0-10.46,1.21-25.77-11.66-25.77-4.54,0-8.71,3-10.78,7.66-2.62,5.84-3,11.66-3,18.11v51.52a3.59,3.59,0,0,1-3.65,3.46"/><g id="use28"><path id="path30" class="cls-1" d="M299.29,59.51v-4c-13.47,0-27.71,2.89-27.71,18.78,0,8,4.17,13.5,11.33,13.5,5.24,0,9.93-3.23,12.89-8.47,3.67-6.45,3.49-12.51,3.49-19.77M318.09,105a3.89,3.89,0,0,1-4.41.44C307.5,100.25,306.4,97.87,303,93c-10.23,10.44-17.46,13.56-30.73,13.56-15.68,0-27.89-9.67-27.89-29,0-15.13,8.2-25.43,19.87-30.46,10.12-4.46,24.25-5.25,35.05-6.48V38.12c0-4.43.34-9.67-2.25-13.5-2.28-3.44-6.64-4.85-10.46-4.85-7.11,0-13.45,3.64-15,11.19-.31,1.68-1.55,3.33-3.22,3.41l-18.09-1.94a3.3,3.3,0,0,1-2.78-3.91C251.66,6.61,271.45,0,289.17,0c9.07,0,20.92,2.41,28.08,9.28,9.07,8.47,8.21,19.77,8.21,32.06V70.39c0,8.73,3.61,12.56,7,17.28,1.21,1.68,1.47,3.7-.05,5-3.8,3.18-10.57,9.08-14.29,12.38l-.05,0"/></g><path class="cls-1" d="M54.92,59.51v-4c-13.47,0-27.71,2.89-27.71,18.78,0,8,4.17,13.5,11.33,13.5,5.24,0,9.93-3.23,12.9-8.47,3.67-6.45,3.48-12.51,3.48-19.77M73.72,105a3.88,3.88,0,0,1-4.4.44C63.13,100.25,62,97.87,58.62,93,48.4,103.4,41.16,106.52,27.89,106.52,12.22,106.52,0,96.85,0,77.47,0,62.34,8.21,52,19.87,47,30,42.55,44.12,41.76,54.92,40.53V38.12c0-4.43.35-9.67-2.25-13.5-2.28-3.44-6.63-4.85-10.46-4.85-7.11,0-13.45,3.64-15,11.19-.31,1.68-1.54,3.33-3.22,3.41L5.9,32.43a3.3,3.3,0,0,1-2.78-3.91C7.29,6.61,27.08,0,44.8,0c9.08,0,20.93,2.41,28.08,9.28,9.07,8.47,8.21,19.77,8.21,32.06V70.39c0,8.73,3.62,12.56,7,17.28,1.21,1.68,1.47,3.7,0,5C84.26,95.8,77.5,101.7,73.77,105l0,0"/></g></g></svg>