<svg xmlns="http://www.w3.org/2000/svg" viewBox="0 0 256.65 49.72"><defs><style>.cls-1{isolation:isolate;}.cls-2{fill:#fff;}</style></defs><title>FacebookLogoAsset 2</title><g id="Layer_2" data-name="Layer 2"><g id="Keylines"><g class="cls-1"><g id="_Group_" data-name=" Group "><path id="_Path_" data-name=" Path " class="cls-2" d="M20.1,7.82c-3,0-3.91,1.33-3.91,4.28V17h8.07l-.79,8H16.19v24H6.5v-24H0V17H6.5V12.28C6.5,4.21,9.75,0,18.72,0a44.81,44.81,0,0,1,5.66.36V7.82"/><path id="_Compound_Path_" data-name=" Compound Path " class="cls-2" d="M24.92,32c0-8.91,4.21-15.65,13.12-15.65,4.82,0,7.76,2.47,9.21,5.6V17h9.27V49H47.19V44.18c-1.33,3.07-4.39,5.48-9.21,5.48C29.13,49.66,24.86,43,24.86,34m9.75.12c0,4.75,1.74,7.94,6.26,7.94,4,0,6-2.89,6-7.46V31.36c0-4.58-2-7.46-6-7.46-4.52,0-6.26,3.13-6.26,7.94v2.29Z"/><path id="_Path_2" data-name=" Path 2" class="cls-2" d="M76.62,16.31c3.73,0,7.35.78,9.27,2.17l-2.17,6.86a14.83,14.83,0,0,0-6.44-1.44c-5.23,0-7.52,3-7.52,8.18V34c0,5.17,2.29,8.18,7.52,8.18a14.88,14.88,0,0,0,6.44-1.5l2.17,6.86c-1.92,1.32-5.48,2.17-9.27,2.17-11.37,0-16.49-6.08-16.49-15.89V32.26c0-9.81,5.12-15.95,16.49-15.95"/><path id="_Compound_Path_2" data-name=" Compound Path 2" class="cls-2" d="M87.16,34.19V31.36c0-9.09,5.17-15,15.71-15,9.93,0,14.32,6,14.32,14.93v5.11H96.85c.18,4.4,2.16,6.32,7.52,6.32a29,29,0,0,0,10.29-1.92l1.75,6.62c-2.53,1.32-7.77,2.35-12.4,2.35-12.28-.06-16.85-6.14-16.85-15.53M96.85,30h11.67v-.78c0-3.49-1.38-6.26-5.65-6.26s-6,2.77-6,7"/><path id="_Compound_Path_3" data-name=" Compound Path 3" class="cls-2" d="M153.06,34c0,8.91-4.27,15.65-13.18,15.65-4.81,0-8.18-2.41-9.51-5.48V49h-9.15V1l9.69-.84V21.49c1.39-2.83,4.52-5.12,9-5.12,8.85,0,13.18,6.68,13.18,15.65m-9.75-.24c0-4.51-1.74-7.88-6.38-7.88-4,0-6.08,2.82-6.08,7.4v3.37c0,4.57,2.17,7.4,6.08,7.4,4.64,0,6.38-3.37,6.38-7.88V31.78Z"/><path id="_Compound_Path_4" data-name=" Compound Path 4" class="cls-2" d="M156.25,33.77V32.14c0-9.21,5.24-15.83,15.89-15.83S188,22.93,188,32.14v1.63C188,43,182.8,49.6,172.14,49.6S156.25,43,156.25,33.77m22.15-2.29c0-4.21-1.74-7.58-6.26-7.58s-6.26,3.37-6.26,7.58v3c0,4.21,1.75,7.58,6.26,7.58s6.26-3.37,6.26-7.58Z"/><path id="_Compound_Path_5" data-name=" Compound Path 5" class="cls-2" d="M191.34,33.77V32.14c0-9.21,5.24-15.83,15.89-15.83s15.9,6.62,15.9,15.83v1.63c0,9.21-5.24,15.83-15.9,15.83S191.34,43,191.34,33.77m22.15-2.29c0-4.21-1.74-7.58-6.26-7.58S201,27.27,201,31.48v3c0,4.21,1.74,7.58,6.25,7.58s6.26-3.37,6.26-7.58Z"/><path id="_Path_3" data-name=" Path 3" class="cls-2" d="M236.43,32.26,246,17h10.23l-10,15.83L256.65,49H246.36l-9.93-15.64V49H226.8V1l9.63-.9"/></g></g></g></g></svg>