<svg xmlns="http://www.w3.org/2000/svg" viewBox="0 0 397.24 60.07"><defs><style>.cls-1{fill:#fff;}</style></defs><title>DisneyAsset 3</title><g id="Layer_2" data-name="Layer 2"><g id="Keylines"><path class="cls-1" d="M84.14,0c9.17,5.7,12.07,14.39,11.55,24.59a24.12,24.12,0,0,1-5.57,14.49A17.84,17.84,0,0,1,81,45.24a9.82,9.82,0,0,1-11-4.51c-.13-.21-.28-.41-.48-.7a8.56,8.56,0,0,1-6.32,1.14c-4-.9-6-3.77-6.84-7.54-1-4.7-.12-9.24,1.46-13.66A29.34,29.34,0,0,1,66.05,7.32a21.12,21.12,0,0,1,3.72-2.44c.43-.24,1.12,0,1.7,0a6.89,6.89,0,0,1-.57,1.48c-2.16,3-4.7,5.85-6.46,9.09A27.36,27.36,0,0,0,61,32.36a12.35,12.35,0,0,0,1.44,4.3c1.27,2.25,3.28,2.52,5.71,1.18-.44-2.45-1-4.82-1.26-7.22-.45-4.87.84-9.2,4.57-12.6a8.78,8.78,0,0,1,4.9-2.23,4.19,4.19,0,0,1,4.55,3.05c2,5.68-.1,12.87-5,16.82L73.6,37.48a4.67,4.67,0,0,0,5.31,3,11.49,11.49,0,0,0,7.82-5.66A28.61,28.61,0,0,0,90.58,22,25.75,25.75,0,0,0,87.87,7.38a49,49,0,0,0-4.11-5.71C83.39,1.16,82.69.8,83.15,0ZM72.6,34c.57-.67,1-1,1.25-1.47a17.39,17.39,0,0,0,3.06-12.22,2.8,2.8,0,0,0-1.24-2c-1-.34-1.25.84-1.55,1.56a28.25,28.25,0,0,0-1.76,11.8C72.38,32.28,72.49,33,72.6,34Z"/><path class="cls-1" d="M0,20.66H16.4v3.41H10V41.73H6.54V24.15H0Z"/><path class="cls-1" d="M132.76,7.66a7.72,7.72,0,0,1,1.53.34c.34.15.56.53.84.8a4,4,0,0,1-.92.64,2,2,0,0,1-1.1.05c-.81-.23-2-.36-2.26-.88a3.55,3.55,0,0,1,.55-2.48A4.65,4.65,0,0,1,134.6,4c7.12-2,14.12-1.2,21.05.95A53.53,53.53,0,0,1,177.2,17.11a29.83,29.83,0,0,1,6,7.9c3.2,6.14.86,12.49-4.06,16.09s-10.5,4.55-16.39,4.28c-2.14-.1-4.26-.5-6.45-.77-.2,1.11-.19,2.37-1.76,2.59a2.39,2.39,0,0,1-2.87-1.75.56.56,0,0,1,0-.25c.16-2.34-1.36-3.27-3.2-4.2a26,26,0,0,1-7.7-6c-3-3.36-2.6-5.91,1.48-7.8a67.51,67.51,0,0,1,7.63-2.53c.47-.15,1-.21,1.42-.31.23-2.23.42-4.41.68-6.59a15,15,0,0,1,.55-2.54c.24-.81.9-1,1.38-.32a8.14,8.14,0,0,1,1.45,2.82c.43,2,.59,4,.86,6a57.16,57.16,0,0,1,6,.47,38.91,38.91,0,0,1,6.46,1.71A5.25,5.25,0,0,1,172,29.56a3.73,3.73,0,0,1-1.69,4.06,3.63,3.63,0,0,1-4.42-.15,9,9,0,0,0,1.4-.95c.39-.37.88-.86.9-1.32s-.65-.81-1.11-1a38.85,38.85,0,0,0-10.93-1.89,5,5,0,0,0-.12.86c.06,3.53.12,7.06.25,10.58a1.31,1.31,0,0,0,.7,1c5.41.88,10.74.77,15.88-1.4,2.8-1.18,5.11-2.92,6.11-6a9.09,9.09,0,0,0-.48-6.66,24.92,24.92,0,0,0-9.1-10.48c-10-6.91-21.1-10.41-33.37-9.55a28.06,28.06,0,0,0-3.34.64Zm18.31,31.49V28.57c-1.11.1-2.15.11-3.15.3-2.15.41-4.31.8-6.4,1.41-1.71.51-1.86,1.33-.61,2.58a23.71,23.71,0,0,0,3,2.59A23.42,23.42,0,0,0,151.07,39.15Z"/><path class="cls-1" d="M250.27,36.76c2.43-2.78,4.62-5.36,6.91-7.85A12.83,12.83,0,0,1,260,26.67c1.84-1.12,3.27-.7,4.39,1.18a9,9,0,0,1,.89,6.51c-1,5.36-6.39,9.81-11.86,9.93l-1.14.06c-.93,3.89-1.88,7.82-2.82,11.75-.24,1-.48,2-.67,3s-.77,1.12-1.62.7a4,4,0,0,1-2.4-4,38.78,38.78,0,0,1,2.34-11.76c.06-.16.1-.32.17-.47a5.87,5.87,0,0,0,.37-4.71,8.85,8.85,0,0,1-.05-4.4,19.91,19.91,0,0,1,5.52-9.68c.29-.31.84-.37,1.26-.54.09.47.38,1,.24,1.38-.54,1.38-1.22,2.7-1.83,4.05-.74,1.61-1.5,3.22-2.15,4.86A10.08,10.08,0,0,0,250.27,36.76Zm4.57,2.2c2.45.46,5.28-1.08,6.66-3.18a6.43,6.43,0,0,0,1.23-5c-.23-1.09-.71-1.28-1.36-.45C259.14,33.15,257,36.07,254.84,39Z"/><path class="cls-1" d="M197,29.78l4.2.61c2.29.34,4.59.6,6.87,1a4.61,4.61,0,0,1,4,3.95,5.52,5.52,0,0,1-2.12,5.85c-3.89,2.9-11.36,2.07-14.51-1.63-1.73-2-1.18-4.39,1.35-5.23,3.38-1.12,6.63-.29,9.76,1.07.85.37.66,1,0,1.39a5.47,5.47,0,0,1-4.77.57c-.81-.3-1.6-.68-2.43-.93a4.19,4.19,0,0,0-1.93-.26,1.76,1.76,0,0,0-1.16,1c-.09.25.51,1,.89,1.09a23,23,0,0,0,4.52.51A11.83,11.83,0,0,0,208.06,37c1.2-.78,1.22-1.81-.12-2.28a31.69,31.69,0,0,0-5.53-1.28c-1.84-.3-3.71-.35-5.57-.55-1.33-.14-2.77-.28-3.25-1.81a3.8,3.8,0,0,1,1.17-4,7.44,7.44,0,0,1,2.36-1.57,21,21,0,0,1,13.51-.82c.77.21,2,.24,1.92,1.39s-1.17,1.68-2.23,1.77c-2.77.23-5.55.32-8.31.54-1.32.1-2.63.34-3.93.56a5.61,5.61,0,0,0-1.09.43Z"/><path class="cls-1" d="M332.33,41.78h-3.48V40.45c0-2.82,0-5.64,0-8.46,0-2.22-1.09-3-3.22-2.38a3.3,3.3,0,0,0-2.77,3.61v8.51h-3.5c0-2,0-3.93,0-5.86,0-1.5,0-3-.06-4.48s-1-2.29-2.53-1.86a11.11,11.11,0,0,0-3,1.6c-.27.18-.35.8-.35,1.21,0,3.11,0,6.21,0,9.39h-3.45v-15h3.36l.13,1.35a30.6,30.6,0,0,1,4.84-1.63,3.71,3.71,0,0,1,4.24,2,27,27,0,0,1,4.24-1.92c3.33-.85,5.57,1,5.59,4.39S332.33,38.11,332.33,41.78Z"/><path class="cls-1" d="M94,32.78c2.08.52,2.43-.9,3.09-2.1,1.47-2.64,3.06-5.2,4.6-7.8a13.68,13.68,0,0,1,.89-1.47c.32-.42.75-1.07,1.12-1.06a1.83,1.83,0,0,1,1.43.87A30.07,30.07,0,0,1,107,27c.72,4.4,1.23,8.85,1.71,13.29.09.81-.17,2.18-.67,2.41-1.06.48-1.88-.65-2.25-1.47a27.19,27.19,0,0,1-1.18-4.17c-1.45,0-3.09,0-4.72,0-.22,0-.49.51-.6.83-.5,1.45-1,2.9-1.4,4.37-.23.8-.66,1.49-1.51,1.33-.69-.13-1.66-.53-1.87-1.06A9.65,9.65,0,0,1,94,39.21a4.93,4.93,0,0,1,.58-1.89c.55-1.21.73-2.35-.29-3.44C94.15,33.71,94.15,33.37,94,32.78Zm7.06-.1,3.37-.34-.9-4.51-.4,0C102.47,29.32,101.83,30.84,101.05,32.68Z"/><path class="cls-1" d="M238.12,30.69c1.47,0,2.84,0,4.2,0a1.57,1.57,0,0,1,1.78,1.5c.14,1.2-.22,1.74-1.43,1.81-1.49.07-3,.12-4.47.07a1.57,1.57,0,0,0-1.85,1.36c-.16.75-.43,1.47-.73,2.45l5.95-1c1.8-.29,2.38,0,2.88,1.13a1.55,1.55,0,0,1-.47,2,15.75,15.75,0,0,1-7.74,3.43A4.44,4.44,0,0,1,231.33,39a6.88,6.88,0,0,1,.43-2.66,5.87,5.87,0,0,0,.54-3.71c-.11-.38.26-1.26.53-1.31,1.46-.28,1.66-1.44,2-2.52.1-.28.18-.55.29-.92a7.62,7.62,0,0,1-1.94-.76,8.24,8.24,0,0,1-1.3-1.65,5.65,5.65,0,0,1,1.54-.83c2.94-.46,5.9-.85,8.85-1.21a4.3,4.3,0,0,1,4.48,2c.83,1.3.59,2.07-.9,2.3a45.2,45.2,0,0,1-5.07.42C238.51,28.3,238.51,28.25,238.12,30.69Z"/><path class="cls-1" d="M217.9,31.64c-.09,1.38-.19,2.76-.28,4.14-.1,1.77-.17,3.55-.31,5.33C217.25,42,217,42.86,216,43a1.86,1.86,0,0,1-2-1.49,12.94,12.94,0,0,1-.5-3.54,30.72,30.72,0,0,1,2.14-10.79c.26-.65.9-1.54,1.44-1.6s1.4.64,1.81,1.22c1.93,2.75,3.76,5.56,5.63,8.35.24.36.5.71.75,1.06l.48-.13c-.26-2-.42-4-.81-5.89-.46-2.26-1.18-4.48-1.67-6.74a7.09,7.09,0,0,1,.16-2.08c.63.3,1.45.43,1.86.91a17.84,17.84,0,0,1,4,16A6.11,6.11,0,0,1,228,40.65a2.57,2.57,0,0,1-4.39-.07c-1.61-2.41-3-5-4.46-7.46-.3-.51-.58-1-.88-1.55Z"/><path class="cls-1" d="M128.31,29.86c-.29,2.31-.74,4.55-.82,6.81-.1,2.85.13,5.71.12,8.56,0,.63-.23,1.67-.6,1.8a2.77,2.77,0,0,1-2.15-.32c-2-1.4-2.46-3.64-2.56-5.92a32.34,32.34,0,0,1,1.5-10.65c.11-.39.24-.78.36-1.14a42.93,42.93,0,0,1-3.78-2.18c-1.91-1.39-2.4-3.48-1.36-5.23a11.54,11.54,0,0,1,.79-.95c.56,3.22,3.21,3.38,5.37,4.22.67.26,1.12.09,1.65-.56a9.14,9.14,0,0,1,2.64-2.19,3.56,3.56,0,0,1,4.7.83,4.24,4.24,0,0,1-.17,5.28,5.09,5.09,0,0,1-3.64,1.64C129.75,29.89,129.13,29.86,128.31,29.86Zm1.31-4.24c1.14-.33,2-.52,2.76-.83a.89.89,0,0,0,.39-.77.94.94,0,0,0-.74-.48C130.85,23.51,130.16,24.2,129.62,25.62Z"/><path class="cls-1" d="M290.23,27l-3.14.93c-.19-.43-.36-.84-.53-1.24a4.91,4.91,0,0,0-8.34-1.16c-2.2,2.7-2.15,8.86,0,11.64,1.84,2.4,7.2,2.82,8.61-1.17.16-.46.35-.91.57-1.47l3.12.68c0,3.17-3,6.34-6.32,6.88-6,1-10.39-2.41-11-8.42a16,16,0,0,1,.71-7.48c2.26-6,8.46-6.71,12.43-4.93A7.19,7.19,0,0,1,290.23,27Z"/><path class="cls-1" d="M335.68,26.76H339c0,.56.09,1.08.12,1.48a20.9,20.9,0,0,1,3.39-1.6,5.28,5.28,0,0,1,6.5,3.19,11.15,11.15,0,0,1,.12,8.49,6,6,0,0,1-8.9,2.8c-.34-.22-.66-.46-1.16-.81v7.13h-3.37Zm3.37,7.57h.08c0,1-.32,2.21.07,3.06a3.68,3.68,0,0,0,3.44,1.86,3,3,0,0,0,3.17-1.93,7.86,7.86,0,0,0,0-5.82,3.15,3.15,0,0,0-3.83-2c-2,.43-2.93,1.44-2.93,3.3Z"/><path class="cls-1" d="M193.3,6.69a5.15,5.15,0,0,1,3.86,1.44,3.28,3.28,0,0,0,1.19.61,3.66,3.66,0,0,1,2.38,5,4.65,4.65,0,0,1-.61,1.22c-2.51,3.16-5.6,5.38-9.7,5.92a7.22,7.22,0,0,1-1.61,0c-1-.11-2.1-.6-2.7.81-.06.15-.79.11-1.17,0a1.07,1.07,0,0,1-.53-.65A28.28,28.28,0,0,1,182.82,16a5.87,5.87,0,0,1,.78-3.64A12.1,12.1,0,0,1,193.3,6.69Zm-4.64,10.76a23.47,23.47,0,0,0,3.05,0A9.1,9.1,0,0,0,198,14a1.89,1.89,0,0,0,.18-2.42,1.75,1.75,0,0,0-2.25-.43C192.82,12.39,190.7,14.7,188.66,17.45Zm-3.3-1.6L190,10.73C187.23,11.11,184.94,13.58,185.36,15.85Z"/><path class="cls-1" d="M22.14,41.75H18.72v-21h3.37v7.87a8.53,8.53,0,0,1,5.23-2.25c2.82-.07,4.54,1.24,4.66,4,.16,3.72,0,7.45,0,11.27H28.51c0-.39-.06-.83-.06-1.26,0-2.87,0-5.73,0-8.59,0-2-1.06-2.78-3-2.36a5.75,5.75,0,0,0-1.29.43c-1.31.67-2.21,1.45-2.07,3.24C22.3,36,22.14,38.79,22.14,41.75Z"/><path class="cls-1" d="M352,29.16a10.85,10.85,0,0,1,7.94-2.71c3,.15,4.6,1.73,4.74,4.8.07,1.57,0,3.15,0,4.73,0,1,0,1.9,0,2.86s.15,1.89.23,2.9h-3.37l-.43-1.66a8.07,8.07,0,0,1-5.44,2c-2.05,0-3.55-.92-4.08-2.45a4.56,4.56,0,0,1,1.49-5c1.91-1.54,4.23-2,6.57-2.43l1.43-.24c.19-1.72-.45-2.46-2.07-2.55a8.38,8.38,0,0,0-5.4,2ZM361.23,34a43.77,43.77,0,0,0-5.32,1.87,1.73,1.73,0,0,0-.15,3.17c1.54.68,3,.07,4.37-.6,1.19-.58,1.16-1.57,1.1-2.62C361.21,35.39,361.23,34.93,361.23,34Z"/><path class="cls-1" d="M397.24,27l-3.35,8.71c-1,2.55-1.93,5.1-2.93,7.64-1.63,4.15-4.42,5.39-8.88,3.84l.69-2.64c.78.06,1.5.15,2.24.19a2.71,2.71,0,0,0,2.77-3.87L383,28.31c-.17-.46-.32-.92-.56-1.6a29.62,29.62,0,0,1,3.15,0c.29,0,.64.55.78.92,1.08,2.95,2.12,5.91,3.18,8.87.11.31.23.61.44,1.15,1.06-3,2-5.76,3-8.53s1-2.81,4.06-2.39C397.09,26.78,397.11,26.83,397.24,27Z"/><path class="cls-1" d="M48.56,35.37H38a3.33,3.33,0,0,0,1.77,3.4c2.36,1.14,4.5.49,6.47-1.21l1.66,1.87a4.66,4.66,0,0,1-.49.56,8.55,8.55,0,0,1-9.51,1.19c-2.61-1.45-4-4.83-3.42-8.33.77-4.66,4.62-7.32,9-6.21a5.13,5.13,0,0,1,3.83,3.24A49,49,0,0,1,48.56,35.37Zm-3.73-2.64c0-2.37-1.28-3.53-3.53-3.42a3.11,3.11,0,0,0-3.11,3.42Z"/><path class="cls-1" d="M300,42.11c-4.47,0-7.41-3.15-7.37-7.88s2.94-7.79,7.33-7.8,7.43,3.11,7.44,7.83S304.48,42.11,300,42.11Zm3.91-7.9a17.6,17.6,0,0,0-.57-2.58,3.37,3.37,0,0,0-3.41-2.21,3.18,3.18,0,0,0-3.33,2.46,14.54,14.54,0,0,0,0,4.88c.3,1.66,1.7,2.42,3.46,2.4a3.27,3.27,0,0,0,3.37-2.41A21.42,21.42,0,0,0,303.91,34.21Z"/><path class="cls-1" d="M377.67,41.74c0-3.19,0-6.29,0-9.39,0-2.68-1.44-3.65-3.95-2.68-1.93.75-2.38,1.41-2.38,3.5v8.54h-3.46V26.8h3.37l.16,1.71a25,25,0,0,1,4.19-1.91c3.32-.85,5.53,1,5.55,4.41s0,7.11,0,10.73Z"/><path class="cls-1" d="M113.79,36.51l1.47-.54c1.19-.47,2.36-1,3.58-1.41,1.6-.54,2.3.13,2,1.78-.6,2.8-4.64,5.74-7.47,5.23A4,4,0,0,1,110.89,40a7.52,7.52,0,0,1-1-3.51A28.11,28.11,0,0,1,112.26,24a9.8,9.8,0,0,1,1.6-2.49c.68-.78,1.54-.55,1.73.46a8.1,8.1,0,0,1,0,2.82c-.58,3.26-1.27,6.49-1.86,9.75A9.24,9.24,0,0,0,113.79,36.51Z"/><path class="cls-1" d="M186.93,34.69c.31-2.66.62-5.75,1.06-8.81.09-.6.68-1.12,1-1.68.55.55,1.39,1,1.59,1.66a16,16,0,0,1,.65,4c.21,3.6.36,7.2.43,10.8,0,1.59-.45,2.09-1.6,2.2-1.52.14-2.46-.44-2.67-1.93C187.16,39,187.11,37.07,186.93,34.69Z"/></g></g></svg>