<?xml version="1.0" encoding="utf-8"?>
<!-- Generator: Adobe Illustrator 22.0.1, SVG Export Plug-In . SVG Version: 6.00 Build 0)  -->
<svg version="1.1" id="Layer_1" xmlns="http://www.w3.org/2000/svg" xmlns:xlink="http://www.w3.org/1999/xlink" x="0px" y="0px"
	 viewBox="0 0 2232 1700" style="enable-background:new 0 0 2232 1700;" xml:space="preserve">
<style type="text/css">
	.st0{stroke:url(#SVGID_1_);}
	.st1{stroke:url(#SVGID_2_);}
	.st2{stroke:url(#SVGID_3_);}
	.st3{stroke:url(#SVGID_4_);}
	.st4{stroke:url(#SVGID_5_);}
	.st5{stroke:url(#SVGID_6_);}
	.st6{stroke:url(#SVGID_7_);}
	.st7{stroke:url(#SVGID_8_);}
	.st8{stroke:url(#SVGID_9_);}
	.st9{stroke:url(#SVGID_10_);}
	.st10{stroke:url(#SVGID_11_);}
	.st11{stroke:url(#SVGID_12_);}
	.st12{stroke:url(#SVGID_13_);}
	.st13{stroke:url(#SVGID_14_);}
	.st14{stroke:url(#SVGID_15_);}
	.st15{stroke:url(#SVGID_16_);}
	.st16{stroke:url(#SVGID_17_);}
	.st17{stroke:url(#SVGID_18_);}
	.st18{stroke:url(#SVGID_19_);}
	.st19{stroke:url(#SVGID_20_);}
	.st20{stroke:url(#SVGID_21_);}
	.st21{stroke:url(#SVGID_22_);}
	.st22{stroke:url(#SVGID_23_);}
	.st23{stroke:url(#SVGID_24_);}
	.st24{stroke:url(#SVGID_25_);}
	.st25{stroke:url(#SVGID_26_);}
	.st26{stroke:url(#SVGID_27_);}
	.st27{stroke:url(#SVGID_28_);}
	.st28{stroke:#FFFFFF;}
	.st29{stroke:url(#SVGID_29_);}
	.st30{stroke:url(#SVGID_30_);}
	.st31{stroke:url(#SVGID_31_);}
	.st32{stroke:url(#SVGID_32_);}
	.st33{stroke:url(#SVGID_33_);}
	.st34{stroke:url(#SVGID_34_);}
	.st35{stroke:url(#SVGID_35_);}
	.st36{stroke:url(#SVGID_36_);}
	.st37{stroke:url(#SVGID_37_);}
	.st38{stroke:url(#SVGID_38_);}
	.st39{stroke:url(#SVGID_39_);}
	.st40{stroke:url(#SVGID_40_);}
	.st41{stroke:url(#SVGID_41_);}
	.st42{stroke:url(#SVGID_42_);}
	.st43{stroke:url(#SVGID_43_);}
	.st44{stroke:url(#SVGID_44_);}
	.st45{stroke:url(#SVGID_45_);}
	.st46{stroke:url(#SVGID_46_);}
	.st47{stroke:url(#SVGID_47_);}
	.st48{stroke:url(#SVGID_48_);}
	.st49{stroke:url(#SVGID_49_);}
	.st50{stroke:url(#SVGID_50_);}
	.st51{stroke:url(#SVGID_51_);}
	.st52{stroke:url(#SVGID_52_);}
	.st53{stroke:url(#SVGID_53_);}
	.st54{stroke:url(#SVGID_54_);}
	.st55{stroke:url(#SVGID_55_);}
	.st56{stroke:url(#SVGID_56_);}
	.st57{stroke:url(#SVGID_57_);}
	.st58{stroke:url(#SVGID_58_);}
	.st59{stroke:url(#SVGID_59_);}
	.st60{stroke:url(#SVGID_60_);}
	.st61{stroke:url(#SVGID_61_);}
	.st62{stroke:url(#SVGID_62_);}
	.st63{stroke:url(#SVGID_63_);}
	.st64{stroke:url(#SVGID_64_);}
	.st65{stroke:url(#SVGID_65_);}
	.st66{stroke:url(#SVGID_66_);}

	path {
		stroke-width: 3px;
		fill: none;
		stroke-dasharray: 5000;
		stroke-dashoffset: 5000;
		animation: dash 12s ease-in forwards;
	}

	g:nth-of-type(4n) g path {
		animation-delay: 3s;
	}

	g:nth-of-type(4n + 1) g path {
		animation-delay: 6s;
	}

	g:nth-of-type(4n + 2) g path {
		animation-delay: 9s;
	}

	@keyframes dash {
		to {
			stroke-dashoffset: 0;
		}
	}
</style>
<g>
	<g>
		<linearGradient id="SVGID_66_" gradientUnits="userSpaceOnUse" x1="1086.3782" y1="269.5127" x2="1404.9659" y2="269.5127">
			<stop  offset="0" style="stop-color:#00FFAD"/>
			<stop  offset="0.2358" style="stop-color:#3FC0A5"/>
			<stop  offset="0.7664" style="stop-color:#C83794"/>
			<stop  offset="0.9988" style="stop-color:#FF008D"/>
		</linearGradient>
		<path class="st66" d="M1183,15.1c-28.6,24.8-61.1,44.7-96.2,59c-0.5,0.2-0.8,0.5-0.8,1.1c-0.1,22.6-0.1,45.2-0.2,67.8
			c0,11-0.1,21.9-0.1,32.9c0,7.1-2,17,3.7,22.5c3,2.9,7.1,4.9,10.6,7.1c5,3.2,10,6.4,14.9,9.5c9.4,6,18.8,12,28.2,18
			c9.1,5.8,18.2,11.7,27.4,17.5c4.4,2.8,8.8,5.6,13.3,8.5c3.7,2.3,7.3,5.2,11.4,6.8c8.2,3.1,15.9-3.6,22.5-7.5
			c9.7-5.7,19.4-11.3,29.1-17c9.4-5.5,18.8-11,28.2-16.5c4.6-2.7,9.1-5.3,13.7-8c4.1-2.4,8.9-4.5,12.5-7.6c2.3-2,3.1-4.5,3.3-7.4
			c0.5-5.3,0.2-10.8,0.2-16.2c0-11.2-0.3-22.4-0.9-33.6c-1.1-21.1-2.4-42.7-6.3-63.4c-1.8-9.8-9.9-12-18-15.7
			c-9.9-4.6-19.5-9.8-28.8-15.5c-19.1-11.6-36.6-25.5-52.5-41.2c-0.7-0.7-1.9-0.2-1.9,0.8c-1.1,15.8-1.9,31.7-3.4,47.5
			c-0.4,4.5-1.4,8.5-4.8,11.8c-2.8,2.7-6.5,4.5-9.9,6.3c-7.2,3.9-14.6,6.8-22.2,9.8c-4.3,1.7-7.1,4-7.6,8.9
			c-0.8,8.2-0.1,16.8-0.1,25c0,8.2,0,16.3,0,24.5c0,2,0,3.9,0,5.9c0,1.5-0.6,4.6,0,5.9c0.8,1.7,2.8,2.4,4.3,3.4
			c14.6,9.5,28.4,20.3,41.2,32.2c0.5,0.4,1.1,0.4,1.6,0c8.3-6.5,16.6-13.1,24.9-19.6c6.4-5.1,15.4-10.1,19.4-17.4
			c4-7.2,2.5-17.2,2.6-25.1c0.1-10.5,0.3-21,0.4-31.5c0-0.4-0.2-0.8-0.6-1c-16.4-7.6-31.5-17.5-45.1-29.4c-0.7-0.6-2-0.2-1.9,0.8
			c2.9,76.8,5.7,153.5,8.6,230.3c0,1.1,1.2,1.4,1.9,0.8c18.7-14.5,38.5-27.5,59.2-38.9c9.9-5.4,20-10.4,30.2-15.1
			c2.6-1.2,5.4-2.8,8.1-3.6c3.7-1,5.9,0.8,9,2.5c5.7,3.3,11.5,6.5,17.2,9.8c11.2,6.4,22.3,12.7,33.5,19.1c5.4,3.1,10.9,6.2,16.3,9.3
			c5.9,3.4,10.7,7,12.1,14.1c2.6,12.5,2.9,25.8,4.3,38.5c1.4,12.6,2.7,25.1,4.1,37.7c0.7,6.3,1.4,12.6,2,18.8
			c0.6,6,1.9,12.2,1.6,18.2c-0.4,7.1-5.1,11.3-10.1,15.7c-4.8,4.4-9.7,8.7-14.6,13.1c-9.2,8.3-18.4,16.6-27.6,24.9
			c-4.4,3.9-8.7,7.9-13.1,11.8c-3,2.7-4.1,4.7-8.1,3.5c-3.1-1-6.1-2.7-9.1-3.9c-23.7-10.2-47.4-20.5-71.1-30.7
			c-5.5-2.4-10.9-4.7-16.4-7.1c-6.4-2.8-12.3-5.4-13.1-13.2c-0.5-5.1,0.4-10.4,0.7-15.5c0.3-6.4,0.4-12.8,0.3-19.2
			c-0.2-13.5-1.5-27.1-3.7-40.4c-0.5-3.2-1.1-6.3-1.7-9.5c-0.9-4.4-2.1-6.3,2-9.1c5.7-4,11.5-7.9,17.2-11.9
			c24-16.6,48.1-33.2,72.1-49.8c-0.6-0.3-1.1-0.6-1.7-1c0.8,10.3,1.7,20.6,2.5,30.9c0.7,8.6,3.6,20-4.7,25.9
			c-5.3,3.7-11.9,4.9-17.7,7.6c-6.2,2.8-11,7.5-14.4,13.4c-3.7,6.4-5.4,13.7-5.8,21c-0.3,4.5,0,8.9,0.4,13.4c0.2,2,0.4,4,0.7,6
			c0.2,1.8,0.1,6.1,1.1,7.6c1.6,2.5,6.4,4.1,8.9,5.6c3.9,2.3,7.9,4.6,11.8,6.9c9,5.3,18,10.6,26.9,15.8c0.3,0.2,0.8,0.2,1.1,0
			c8.6-6.2,17.2-12.4,25.8-18.6c7.1-5.2,16.5-10,22-17.1c4.8-6.2,3.1-14,2.2-21.2c-1.3-10.5-2.6-21-3.9-31.6
			c-0.1-0.5-0.3-0.9-0.8-1.1c-17.3-5.4-34.5-10.7-51.8-16.1c-0.6-0.2-1.5,0.4-1.4,1.1c7.4,66.5,14.8,132.9,22.2,199.4
			"/>
	</g>
</g>
<g>
	<g>
		<linearGradient id="SVGID_65_" gradientUnits="userSpaceOnUse" x1="52.9911" y1="304.6455" x2="436.4576" y2="304.6455">
			<stop  offset="0" style="stop-color:#E77AEB"/>
			<stop  offset="0.3605" style="stop-color:#EACDA6"/>
			<stop  offset="0.7561" style="stop-color:#ECDFF1"/>
			<stop  offset="0.8363" style="stop-color:#F3C2E9"/>
			<stop  offset="0.9988" style="stop-color:#FF8CD9"/>
		</linearGradient>
		<path class="st65" d="M158.2,19.4c-25,16.9-50.1,33.9-75.1,50.8c-9.4,6.4-22,12.6-27.2,23.3c-5.4,11.2-3.4,25.8-3.4,37.8
			c0,14.4-0.1,28.9-0.1,43.3c0,14.8-1,29.9,0,44.6c0.7,11.2,8.8,13.7,18,17.4c12.6,5.2,24.9,11.1,36.9,17.7
			c26,14.4,50.1,32,71.7,52.3c0.5,0.5,1.1,0.4,1.6,0c28.9-22.4,59.6-42.5,91.6-60.1c8-4.4,16.1-8.7,24.3-12.8c3.2-1.6,3.7-1.3,4-4.6
			c0.4-5.3,0.8-10.6,1.1-15.9c1.4-19.5,2.8-39,4.2-58.5c1.6-22.2,3.2-44.3,4.8-66.5c0-0.4-0.2-0.8-0.6-1
			c-42.2-23.9-84.4-47.7-126.5-71.6c-0.8-0.4-1.7,0.1-1.7,1c-0.4,11.1-0.8,22.1-1.2,33.2c-0.2,5.5-0.4,11.1-0.6,16.6
			c-0.2,5.6-0.2,11.5-2.9,16.6c-4.6,8.8-16.8,12-25.3,15.6c-10.1,4.3-20.2,8.7-30.3,13c-3.2,1.4-7.5,2-9,5.3
			c-1.6,3.5-2.6,7.3-3.5,11c-1.6,6.7-2.3,13.6-2.3,20.4c0.1,13.8,3.3,27.6,9.1,40.2c5.9,12.9,14.4,24.6,25.1,33.9
			c5.3,4.6,11.2,8.7,17.5,11.9c2.7,1.4,5.5,2.7,8.4,3.8c2.3,0.9,6.2,3,8.7,2.5c1.7-0.4,4.4-2.8,5.8-3.7c2.4-1.6,4.9-3.1,7.3-4.7
			c4.6-3,9.2-5.9,13.9-8.9c8.9-5.7,18-11.3,26.8-17.2c12.9-8.7,26-19.7,28.6-35.9c2.8-17.6-7.1-35.2-19.8-46.7
			c-15.9-14.4-36.7-21.9-55.2-32.4c-0.7-0.4-1.7,0.1-1.7,1c1.7,70.2,3.4,140.3,5.1,210.5c0.5,19.9,1,39.7,1.4,59.6
			c0,0.8,1,1.5,1.7,1c23.2-16.7,46.3-33.4,69.5-50.1c11.7-8.5,23.4-17.1,35.2-25.4c6-4.2,11.9-6.7,19.1-4.1c7,2.6,13.8,6.5,20.6,9.8
			c13,6.3,26,12.5,39,18.8c11.6,5.6,23.7,10.8,35,17.1c5.6,3.1,11.1,7,14.7,12.4c3.8,5.8,4.9,12.7,5.5,19.5
			c1.3,13.4,2.3,26.8,3.4,40.2c1.2,14,2.9,28.1,3.5,42.1c0.3,6.6-0.5,13-4.5,18.5c-3.8,5.2-9.2,9.1-14.2,13.1
			c-22.2,17.8-44.3,35.7-66.5,53.5c-5.4,4.4-11,10.2-17,13.7c-1.6,0.9-1.2,1.5-3.4,1.3c-1.3-0.1-3.9-2.3-5.1-3.1
			c-3.4-2-6.7-4.1-10.1-6.1c-11.8-7.1-23.6-14.2-35.4-21.4c-12.4-7.5-24.7-14.9-37.1-22.4c-5.2-3.1-10.9-6-15.4-10.1
			c-5.9-5.3-6.7-12.2-7.4-19.7c-1.5-15.7-2.9-31.4-4.3-47.1c-0.4-3.9-0.7-7.8-1.1-11.8c-0.3-3.5-1.7-8.3-1.1-11.8
			c0.7-3.7,6-6.5,8.7-8.7c3.1-2.5,6.2-5,9.2-7.6c25.2-20.6,50.4-41.1,75.5-61.7c-0.6-0.2-1.3-0.3-1.9-0.5c4.6,16,9.8,35,1.4,50.7
			c-6.8,12.7-20.8,18.6-31.3,27.5c-22.9,19.5-16,51.8,3.9,70.7c5.2,4.9,11,9.1,17.2,12.8c6.3,3.8,13.4,8,20.9,8.9
			c7.3,0.8,14-2.7,20.2-6.1c6.2-3.4,12.2-7.1,18-11.1c20-14,40.6-35.5,34.3-62.1c-6.7-28.2-38.7-41.5-63.7-48.4
			c-0.7-0.2-1.4,0.4-1.4,1.1c-0.2,79-0.5,157.9-0.7,236.9c0,1.4,2.2,1.4,2.2,0"/>
	</g>
</g>
<g>
	<g>
		<linearGradient id="SVGID_64_" gradientUnits="userSpaceOnUse" x1="688.098" y1="485.8564" x2="874.3824" y2="485.8564">
			<stop  offset="0" style="stop-color:#5900FF"/>
			<stop  offset="0.3605" style="stop-color:#00EDFF"/>
			<stop  offset="0.5751" style="stop-color:#8DEFCF"/>
			<stop  offset="0.7561" style="stop-color:#FFF1A7"/>
			<stop  offset="0.7594" style="stop-color:#FFEEA5"/>
			<stop  offset="0.926" style="stop-color:#EB652F"/>
			<stop  offset="0.9988" style="stop-color:#E32E00"/>
		</linearGradient>
		<path class="st64" d="M754.8,558.4c-27.6-9.2-45.1-35.2-55-61.2c-11.5-30.1-15.3-64.4,0.8-93.6c13.5-24.7,39.2-43.7,67.6-46.4
			c31-3,59.6,20.7,77.7,43.5c17.8,22.4,28.9,51.1,26.8,80c-2,26.7-16.5,52.6-38,68.5c-10.5,7.7-22.7,13.1-35.7,14.7
			c-7.8,1-15.9,0.8-23.6-1c-6.6-1.5-23.6-6.8-19.7-16.4c2.8-7,15.1-9.4,21.8-10.6c8.1-1.4,16.5-1,24.4,1.1
			c6.9,1.8,18.4,5.5,20.1,13.7c1.9,9.4-10.1,16.1-16.7,20c-7,4.2-14.6,7.8-22.5,10.2c-6.3,1.9-14.6,3.1-20.3-1.1
			c-6.9-5.2-4.7-14.9,0.6-20.4c6-6.1,15.5-6.8,23.5-6.5c8.4,0.3,17.6,0.7,25.3,4.3c7.5,3.5,14.1,11.9,11.1,20.5
			c-2.7,7.6-11.8,10.5-18.9,11.9c-8.2,1.7-16.8,1.7-25,0.1c-7.9-1.5-15.3-4.4-22.2-8.5c0,0.6,0,1.3,0,1.9
			c10.1-7.7,24.9-16.7,37.7-10.2c5.1,2.6,9.6,7.4,10.9,13.1c1.7,7.5-3.4,13.3-9.7,16.5c-7.6,3.8-25,6.8-29.6-3.4
			c-1.6-3.6,4-5,6.9-5.3c3.2-0.3,6.5,0.5,9,2.4c6,4.5,6,13.6,1.2,18.9c0.6,0.3,1.3,0.5,1.9,0.8c0.5-39.8-0.1-79.6-1.6-119.4
			c0-0.9-0.9-1.3-1.7-1c-7.3,3.2-15.6,1.6-21.3-4.1c-0.1,0.6-0.2,1.2-0.2,1.8c9-5.7,19,6.8,28.7,3.8c5.3-1.6,7.6-7.1,10-11.5
			c4.3-7.8,8.6-15.5,12.9-23.3c0.7-1.3-1.2-2.4-1.9-1.1c-3.8,6.9-7.7,13.9-11.5,20.8c-3.6,6.5-6.8,14.8-15.6,13"/>

	</g>
</g>
<g>
	<g>
		<linearGradient id="SVGID_63_" gradientUnits="userSpaceOnUse" x1="554.7086" y1="445.0923" x2="665.2397" y2="445.0923">
			<stop  offset="0" style="stop-color:#92E1FF"/>
			<stop  offset="0.3605" style="stop-color:#F4B8FF"/>
			<stop  offset="0.7561" style="stop-color:#F1F3FF"/>
			<stop  offset="0.7808" style="stop-color:#ECECFF"/>
			<stop  offset="0.9988" style="stop-color:#C5B6FF"/>
		</linearGradient>
		<path class="st63" d="M620.1,432.3c-7.1-9.6-19.9-23.8-33.1-15.1c-4.9,3.2-7.6,9.1-9.8,14.4c-3.3,7.9-5.3,16.3-6.1,24.8
			c-0.8,9,1.6,24,14,22.4c6.3-0.8,11.1-6.5,14.6-11.3c5.8-7.9,11.2-16.1,16.7-24.1c-0.7-0.3-1.4-0.6-2.1-0.9
			c-2.8,7.4-5.7,15.8-2.4,23.6c2.4,5.9,7.7,9.5,14.1,8.8c12.9-1.5,24.5-11.4,31.3-22c14.6-22.9,10-52.8-13-68.1
			c-10.7-7.1-24.1-10.4-36.9-8.7c-13.7,1.9-25.4,10.1-33.7,20.9c-9.5,12.4-14.8,27.7-17.7,43c-3.2,17.1-3.7,35.8,4.8,51.6
			c7.9,14.7,22.8,24.6,39.9,22.8c18.8-1.9,34.8-15.3,47.1-28.7c1-1.1-0.6-2.7-1.6-1.6"/>
	</g>
</g>
<g>
	<g>
		<linearGradient id="SVGID_62_" gradientUnits="userSpaceOnUse" x1="247.6754" y1="891.6305" x2="416.5173" y2="891.6305">
			<stop  offset="2.929688e-02" style="stop-color:#E2436A"/>
			<stop  offset="0.3605" style="stop-color:#E72279"/>
			<stop  offset="0.7561" style="stop-color:#C837E8"/>
			<stop  offset="0.8807" style="stop-color:#8A1DE6"/>
			<stop  offset="0.9988" style="stop-color:#5307E4"/>
		</linearGradient>
		<path class="st62" d="M291.1,850.7c-10-3.7-21.2-6.3-31.9-6c-8.4,0.2-11,5.5-11.5,13.2c-1.7,24.9-0.9,50.2,1.3,75.1
			c1.3,14.7,3.1,35.2,19.7,40.5c9.3,3,20.3,1.2,29.7-0.1c11.1-1.6,22-4.2,32.9-7c21.9-5.6,44.1-12.2,67-12c6,0.1,17.2,3.4,18.9-5
			c1.1-5.4,0.1-11.8,0-17.4c-0.2-6-0.5-12-1-18c-1.7-23.5-5.2-46.8-10.5-69.7c-1.3-5.9-2.8-11.7-4.4-17.5c-1.2-4.4-2.1-9.3-4.4-13.2
			c-4.7-7.9-13.8-5.4-21.3-3.9c-13.4,2.8-26.7,6.5-39.5,11.3c-7.7,2.9-16.3,6.8-20.5,14.3c-5.3,9.5,0.1,22.1,2.4,31.7
			c3.3,13.9,6.6,27.9,9.8,41.8c0.6-0.4,1.3-0.7,1.9-1.1c-10.8-10.9-23-20.2-36.4-27.7c-0.1,0.7-0.2,1.4-0.3,2.1
			c19.1-5.9,38.2-11.8,57.3-17.8c-0.4-0.6-0.8-1.1-1.3-1.7c-11.7,21.3-23.4,42.7-35.1,64c-0.7,1.3,1.2,2.4,1.9,1.1
			"/>
	</g>
</g>
<g>
	<g>
		<linearGradient id="SVGID_61_" gradientUnits="userSpaceOnUse" x1="536.2445" y1="1013.6479" x2="920.9376" y2="1013.6479">
			<stop  offset="0" style="stop-color:#5900FF"/>
			<stop  offset="0.3605" style="stop-color:#DE009F"/>
			<stop  offset="0.5751" style="stop-color:#D48D9A"/>
			<stop  offset="0.7561" style="stop-color:#CBFF96"/>
			<stop  offset="0.7684" style="stop-color:#C0FD9B"/>
			<stop  offset="0.9287" style="stop-color:#37E3DB"/>
			<stop  offset="0.9988" style="stop-color:#00D9F5"/>
		</linearGradient>
		<path class="st61" d="M698.2,1350.2c-35.2,13.1-70.5-12.3-93.6-36.7c-23.5-25-42.2-54.8-53.8-87.1c-11.4-31.5-16.1-65.7-11.1-98.9
			c4.7-31.5,18.5-66.6,47.6-83.1c15.8-9,33.9-9,50.6-2.4c16.8,6.7,33.6,18.4,44.2,33.3c9.7,13.5,13.4,30.9,6.2,46.4
			c-8.2,17.5-27,21.9-44.1,14.7c-16.4-6.9-29.7-21-39.5-35.5c-9.3-13.8-16-29.3-20.1-45.4c-8.7-34.1-5.6-69.8,5.6-102.9
			c12-35.4,32.6-67.5,56.6-96c23.8-28.3,51.4-53.3,81.9-74.1c7.5-5.1,15.1-9.9,22.9-14.5c-0.6-0.4-1.1-0.8-1.7-1.3
			c-5.6,22.5-11.1,45-16.7,67.5c-0.3,1.2,1,1.8,1.9,1.1c17.3-13.7,36-25.6,55.7-35.5c0.5-0.3,0.7-1.1,0.4-1.5
			c-10.7-14.7-23.7-27.4-38.7-37.7c-1.1-0.7-2.3,0.9-1.4,1.8c22.4,20.6,42.1,43.8,58.6,69.4c0.6,0.9,1.7,0.6,2.1-0.3
			c22.7-56.8,58.6-107.7,104.5-148.1c1-0.9-0.3-2.2-1.4-1.8c-35.4,15-70.9,30-106.3,44.9C774,741,737,757.6,698.4,751.6
			c0,0.7,0,1.4,0,2.2c74.2-26.8,148.5-53.5,222.7-80.3"/>
	</g>
</g>
<g>
	<g>
		<linearGradient id="SVGID_60_" gradientUnits="userSpaceOnUse" x1="247.2881" y1="1157.5166" x2="539.3344" y2="1157.5166">
			<stop  offset="0" style="stop-color:#5900FF"/>
			<stop  offset="0.3605" style="stop-color:#DE009F"/>
			<stop  offset="0.5751" style="stop-color:#D48D9A"/>
			<stop  offset="0.7561" style="stop-color:#CBFF96"/>
			<stop  offset="0.7684" style="stop-color:#C0FD9B"/>
			<stop  offset="0.9287" style="stop-color:#37E3DB"/>
			<stop  offset="0.9988" style="stop-color:#00D9F5"/>
		</linearGradient>
		<path class="st60" d="M248,1472.8c36.2-18.8,68.8-43.8,98.7-71.4c29.7-27.5,58.2-57.4,82.5-89.8c23.7-31.6,43.1-67.1,51.1-106.1
			c7.5-37,5-77-13-110.8c-15.5-29.2-45.8-55.4-80.8-52.7c-15.6,1.2-30.5,8.4-41.8,19.3c-11.1,10.7-20.4,26.8-19.9,42.7
			c0.5,16.3,15.1,22.7,29.5,22.7c16.2,0,33-5.2,47.8-11.4c30.4-12.8,56.9-34.6,75.4-62c39-57.9,34.5-137.1-7.9-192.1
			c-5.2-6.7-10.9-13-17.1-18.8c-0.7-0.6-2-0.2-1.9,0.8c1.2,25,2.5,50,3.7,75c0.1,1,1.2,1.4,1.9,0.8c23.9-20.9,51.9-36.6,82.1-46.4
			c1-0.3,1.1-1.9,0-2.2c-27.1-7.8-54.2-15.7-81.3-23.5c-1.4-0.4-2,1.8-0.6,2.2"/>
	</g>
</g>
<g>
	<g>
		<linearGradient id="SVGID_59_" gradientUnits="userSpaceOnUse" x1="30.2337" y1="986.2559" x2="407.9376" y2="986.2559">
			<stop  offset="0" style="stop-color:#92E1FF"/>
			<stop  offset="0.3605" style="stop-color:#F4B8FF"/>
			<stop  offset="0.7561" style="stop-color:#F1F3FF"/>
			<stop  offset="0.7808" style="stop-color:#ECECFF"/>
			<stop  offset="0.9988" style="stop-color:#C5B6FF"/>
		</linearGradient>
		<path class="st59" d="M160,1346.4c-47.6,8.1-84.5-38-103.4-75.6c-19.9-39.6-27.8-84.9-23.9-129c4-44.3,20.1-88.5,48.8-122.9
			c27.3-32.7,70-56.1,112.6-39.2c19.6,7.7,35,23.4,39.6,44.3c5.1,23.6-2.2,50.7-17.8,69c-14.5,17-36.3,24.5-57.5,16
			c-22.2-8.9-37.4-29.8-46.3-51.2c-18.2-44.3-13-95.1,0.9-139.8c12.2-39.4,32.1-76.3,57.6-108.7c50.9-64.6,124.2-112,204.9-128.9
			c10.2-2.1,20.6-3.8,31-4.9c1-0.1,1.7-1.6,0.6-2.1c-22-10.1-46-13.9-69.4-19.2c-23.7-5.4-47.6-12.8-64.9-30.8
			c-0.9-0.9-2.4,0.3-1.8,1.4c31.4,51.1,62.7,102.3,94.1,153.4c0.5,0.8,1.8,0.7,2.1-0.3c10.9-35.8,24.8-70.6,41.5-104
			c0.6-1.3-1.3-2.4-1.9-1.1"/>
	</g>
</g>
<g>
	<g>
		<linearGradient id="SVGID_58_" gradientUnits="userSpaceOnUse" x1="636.5145" y1="179.9386" x2="1048.7568" y2="179.9386">
			<stop  offset="0" style="stop-color:#5900FF"/>
			<stop  offset="0.3605" style="stop-color:#DE009F"/>
			<stop  offset="0.5751" style="stop-color:#D48D9A"/>
			<stop  offset="0.7561" style="stop-color:#CBFF96"/>
			<stop  offset="0.7684" style="stop-color:#C0FD9B"/>
			<stop  offset="0.9287" style="stop-color:#37E3DB"/>
			<stop  offset="0.9988" style="stop-color:#00D9F5"/>
		</linearGradient>
		<path class="st58" d="M741.6,202.8c-0.2-29.9,0.7-59.8,2.9-89.7c1.1-14.8,2.4-29.5,4-44.2c0.7-6.4,1.3-13.3,4.8-18.9
			c3.9-6.2,10.7-8.7,17.6-10c13.7-2.5,28.2-2.8,42.1-3.8c15.1-1.1,30.3-2.1,45.5-2.9c29.7-1.5,59.4-2.4,89.1-2.7
			c33.7-0.3,67.4,0.3,101,1.7c-0.4-0.4-0.8-0.8-1.1-1.1c-0.7,62.5-4.2,124.9-10.4,187.1c0.4-0.4,0.8-0.8,1.1-1.1
			c-54.6,2.3-109.3,1.6-163.9-2c-27.6-1.8-55.1-4.4-82.6-7.8c-12.9-1.6-25.9-4.2-38.9-4.8c-12.4-0.6-22.7,3.5-33.4,9.3
			c-27.5,14.6-54.8,29.5-82.2,44.2c-0.9,0.5-0.7,1.8,0.3,2.1c82.7,21,165.3,42,248,63.1c10.3,2.6,20.6,5.2,30.9,7.9
			c7.8,2,15.6,4.6,22.7-0.7c7-5.2,12.1-13.6,17.6-20.3c6.7-8.2,13.4-16.5,20.1-24.7c13.4-16.5,26.8-32.9,40.2-49.4
			c5.6-6.8,11.7-13.6,16.1-21.2c4.2-7.3,5.8-15.3,6.4-23.6c2.9-45.8-1.8-92.7-10.7-137.6c-0.1-0.4-0.6-0.9-1.1-0.8
			c-66.1,7-132.6,10.8-199.1,11.3c-18.9,0.1-37.7,0-56.6-0.4c-0.5,0-0.9,0.4-1.1,0.8c-7.9,21.9-12.6,44.9-13.6,68.2
			c-0.2,5.6-0.3,11.3-0.1,16.9c0.2,3.8,0.5,8.1,3,11.2c2.1,2.7,5.3,3.7,8.6,4.1c5.7,0.8,11.6,0.7,17.4,1.1
			c50.5,2.8,101.1,5.7,151.6,8.5c28.6,1.6,57.2,3.2,85.8,4.8c-0.3-0.6-0.5-1.3-0.8-1.9c-44.4,45.1-88.8,90.1-133.1,135.2
			c0.6,0.3,1.3,0.5,1.9,0.8c3.2-27.7,10-54.9,20.3-80.8c0.4-0.9-0.9-1.8-1.7-1.3c-24.4,16.1-48.8,32.2-73.2,48.3
			c0.5,0.5,1,1,1.5,1.5c11-19.8,25.1-37.5,42-52.6c1.1-1-0.5-2.5-1.6-1.6c-25.4,21.7-52.9,40.7-82.1,56.7c0.6,0.4,1.1,0.8,1.7,1.3
			c6.5-19.9,15.9-38.5,28-55.6c0.7-0.9-0.6-2.1-1.5-1.5c-21.4,12.8-42.2,26.5-62.4,41.2c0.6,0.4,1.1,0.8,1.7,1.3
			c2.8-15.3,8.9-29.5,18.2-41.9c0.7-0.9-0.6-2.1-1.5-1.5c-20.4,13.1-40.8,26.3-61.2,39.4c0.6,0.3,1.1,0.6,1.7,1
			c0.5-13.4,4.7-26,12.1-37.2c0.4-0.7,0-1.4-0.7-1.7c-4.6-1.9-9.1-3.8-13.7-5.6c-0.2,0.7-0.4,1.4-0.6,2.2
			c67.3,13.7,135.2,27.7,198.5,55.2c0.2-0.7,0.4-1.4,0.6-2.1c-56.9-2.4-113.3-12.4-167.6-29.8c-1.2-0.4-1.9,1.4-0.9,2.1
			"/>
	</g>
</g>
<g>
	<g>
		<linearGradient id="SVGID_57_" gradientUnits="userSpaceOnUse" x1="392.3775" y1="208.7548" x2="623.7261" y2="208.7548">
			<stop  offset="0" style="stop-color:#DAECFD"/>
			<stop  offset="0.3605" style="stop-color:#FBFBF9"/>
			<stop  offset="0.7561" style="stop-color:#FEFDC6"/>
			<stop  offset="0.9988" style="stop-color:#FFD3B8"/>
		</linearGradient>
		<path class="st57" d="M544.6,84.1c2.8-13,13.3-24.3,26.6-26.6c13.1-2.3,24.6,6.3,28,18.7c3.9,14-4.7,24.7-18.1,28.2
			c-7.2,1.9-14.7,2.1-22.1,2.5c-8.6,0.5-17.2,1-25.9,1.5c-34.8,2-69.6,4-104.4,5.9c-4,0.2-8,0.5-11.9,0.7c-4.2,0.2-8.9,1-13-0.3
			c-7.9-2.5-10.1-12.8-10-20c0.2-14.4,9.4-27.7,20.8-35.8c12.8-9.1,28.8-12.5,44.1-14.1c16.1-1.7,32.5-2.3,48.7-2.6
			c17-0.4,34-0.2,51,0.4c8.5,0.3,17,0.8,25.5,1.4c8.4,0.6,19-0.1,26.7,3.7c14.8,7.2,12.5,26.8,7.8,39.4c-5.5,14.9-12,29-16.1,44.5
			c-4,15-6.5,30.3-7.5,45.7c-0.5,8.1-0.5,16.1-0.4,24.2c0.1,6.6,0.1,14.7-4.9,19.8c-5,5-13,4.4-18.9,7.9c-4,2.3-6.8,5.9-8.7,10.1
			c-4.4,9.7-3.8,21.2-3.4,31.6c1.1,30.4-5.6,60.5-20.6,87.1c-3.6,6.4-7.6,12.5-12.1,18.3c0.7,0.1,1.4,0.2,2.1,0.3
			c-5.1-12.8-11.2-25.1-18.2-37c-0.4-0.7-1.2-0.7-1.8-0.2c-8.4,7.2-16.8,14.4-25.2,21.6c0.5,0,1.1,0,1.6,0
			c-25.7-26.5-32.2-65.7-40.5-100.2c-4.9-20.3-9.6-40.7-14.1-61.1c-2.1-9.4-4.4-18.9-6.1-28.4c-1.3-7.6-2.1-16,0.1-23.5
			c2.8-9.2,10.4-15.1,20.1-15.2c9.6-0.1,18,5,24.3,11.8c12.8,14,22.7,35.7,20.5,54.9c-1,8.3-4.6,16.2-10.5,22.1
			c-3.1,3.1-6.8,5.7-10.9,7.2c-1.3,0.5-5.1,2-6.3,1.5c-1.4-0.6-1.3-3.1-1.2-4.5c0.2-15.9,21.7-24.7,34.6-18.4
			c16.2,8,21.8,28.7,20.6,45.4c-1.2,16.6-10.9,37.1-29.7,38.5c-1.2,0.1-1.6,1.8-0.3,2.2c24.2,7.1,47-11.8,56.5-32.8
			c6.1-13.4,8.6-28,11-42.5c2.6-15.6,5.6-31.1,10.4-46.3c5.5-17.5,12.7-34.3,21.6-50.3c0.7-1.3-1.2-2.4-1.9-1.1
			"/>
	</g>
</g>
<g>
	<g>
		<linearGradient id="SVGID_56_" gradientUnits="userSpaceOnUse" x1="826.6035" y1="982.1149" x2="1006.8167" y2="982.1149">
			<stop  offset="0" style="stop-color:#00FFAD"/>
			<stop  offset="0.2358" style="stop-color:#3FC0A5"/>
			<stop  offset="0.7664" style="stop-color:#C83794"/>
			<stop  offset="0.9988" style="stop-color:#FF008D"/>
		</linearGradient>
		<path class="st56" d="M845.8,1073.5c-6.4,0.1-9.3-9.4-11.1-14.2c-1.8-4.8-3.3-9.8-4.3-14.9c-2.1-10-2.6-20.4-1.9-30.6
			c1.6-21,8.8-41.5,20.2-59.2c22.8-35.3,61.2-58,100.6-70.2c5.9-1.8,14.6-5.7,20.4-2.4c5.7,3.3,9.2,12,12.6,17.4
			c7.7,12.3,15.3,24.7,23,37c0.2-0.6,0.4-1.1,0.7-1.7c-26.5,10.3-49.7,27.1-70.3,46.6c-10.8,10.2-20.9,21-30.8,32.1
			c-9.4,10.5-19.4,21-27.3,32.7c-7.7,11.4-14,26.2-5.8,38.9c0.8,1.2,2.7,0.1,1.9-1.1"/>
	</g>
</g>
<g>
	<g>
		<linearGradient id="SVGID_55_" gradientUnits="userSpaceOnUse" x1="2161.1257" y1="826.8196" x2="2208.1101" y2="826.8196">
			<stop  offset="0" style="stop-color:#FFF41B"/>
			<stop  offset="0.5232" style="stop-color:#F43BE9"/>
			<stop  offset="0.5907" style="stop-color:#EA3BEC"/>
			<stop  offset="0.9988" style="stop-color:#B43EFF"/>
		</linearGradient>
		<path class="st55" d="M2198.1,704.6c-7.1,11.3-21.1,14.4-30.3,23.4c-11.5,11.3-6.8,26.9-3.1,40.6c9.9,37.2,16.6,75.2,21.9,113.3
			c3.1,22.2,5.8,44.4,8.6,66.6c0.2,1.4,2.2,1.5,2.2,0c3.8-81.1,7.6-162.2,11.4-243.3c0.1-1.4-2.2-1.4-2.2,0
			"/>
	</g>
</g>
<g>
	<g>
		<linearGradient id="SVGID_54_" gradientUnits="userSpaceOnUse" x1="2138.6079" y1="285.3644" x2="2206.7715" y2="285.3644">
			<stop  offset="2.929688e-02" style="stop-color:#E2436A"/>
			<stop  offset="0.3605" style="stop-color:#E72279"/>
			<stop  offset="0.7561" style="stop-color:#C837E8"/>
			<stop  offset="0.8807" style="stop-color:#8A1DE6"/>
			<stop  offset="0.9988" style="stop-color:#5307E4"/>
		</linearGradient>
		<path class="st54" d="M2139.9,349c22-40.8,41.2-83,57.4-126.4c-0.7,0-1.4,0-2.2,0c4,27.2,7,54.5,9.1,81.9c0.2,3.2,0.5,6.5,0.7,9.7
			c0.3,4,1,7.2-1.9,10.3c-2.8,3-6.6,2.9-10.5,3.5c-3.2,0.5-6.5,1-9.7,1.5c-13.5,2.1-27.1,4.2-40.6,6.3c-1.4,0.2-0.8,2.4,0.6,2.2
			"/>
	</g>
</g>
<g>
	<g>
		<linearGradient id="SVGID_53_" gradientUnits="userSpaceOnUse" x1="1758.4359" y1="598.7006" x2="1826.8746" y2="598.7006">
			<stop  offset="0" style="stop-color:#FFA192"/>
			<stop  offset="0.3605" style="stop-color:#FF54B9"/>
			<stop  offset="0.7548" style="stop-color:#AD8CE0"/>
			<stop  offset="0.8408" style="stop-color:#A6ACD2"/>
			<stop  offset="0.9988" style="stop-color:#9BE2BB"/>
		</linearGradient>
		<path class="st53" d="M1775,633.4c1-24.8,5.9-49.1,14.6-72.3c-0.7,0.1-1.4,0.2-2.1,0.3c13.7,18.9,25.3,39.2,34.5,60.6
			c0.8,1.9,3.5,6.1,3.2,8.3c-0.4,3.2-2.9,4.8-5.6,4.9c-1.5,0.1-3.1,0-4.6,0c-6.2,0-12.4-0.1-18.5-0.1c-12.7-0.1-25.4-0.2-38.1-0.3
			"/>
	</g>
</g>
<g>
	<g>
		<linearGradient id="SVGID_52_" gradientUnits="userSpaceOnUse" x1="1933.3918" y1="595.6163" x2="1982.2643" y2="595.6163">
			<stop  offset="0" style="stop-color:#FFA192"/>
			<stop  offset="0.3605" style="stop-color:#FF54B9"/>
			<stop  offset="0.7548" style="stop-color:#AD8CE0"/>
			<stop  offset="0.8408" style="stop-color:#A6ACD2"/>
			<stop  offset="0.9988" style="stop-color:#9BE2BB"/>
		</linearGradient>
		<path class="st52" d="M1942.7,624c6.6-13.1,13.2-26.1,19.8-39.2c1.6-3.2,3.2-6.4,4.8-9.6c0.5-1,1.8-4.6,2.6-5.2
			c1.3-1,1.7-0.6,3.3,0.4c3.9,2.5,6.2,6.9,7.1,11.4c2,10.6-2.8,20.7-11.7,26.6c-10.3,6.9-23.2,8.4-35.3,9.7c-1.4,0.2-1.4,2.4,0,2.2
			"/>
	</g>
</g>
<g>
	<g>
		<linearGradient id="SVGID_51_" gradientUnits="userSpaceOnUse" x1="1833.334" y1="304.4518" x2="1874.5486" y2="304.4518">
			<stop  offset="0" style="stop-color:#92E1FF"/>
			<stop  offset="0.3605" style="stop-color:#F4B8FF"/>
			<stop  offset="0.7561" style="stop-color:#F1F3FF"/>
			<stop  offset="0.7808" style="stop-color:#ECECFF"/>
			<stop  offset="0.9988" style="stop-color:#C5B6FF"/>
		</linearGradient>
		<path class="st51" d="M1868.4,322.1c-11.1-4.8-24.1-10.2-30.4-21.3c-5.4-9.6-4.4-26,8-29.5c13.1-3.7,24.2,11,26.4,22.2
			c2.9,15.1-2.7,30.6-1.6,45.9c0.1,1.4,2.4,1.4,2.2,0"/>
	</g>
</g>
<g>
	<g>
		<linearGradient id="SVGID_50_" gradientUnits="userSpaceOnUse" x1="1951.1766" y1="264.676" x2="1992.1689" y2="264.676">
			<stop  offset="0" style="stop-color:#92E1FF"/>
			<stop  offset="0.3605" style="stop-color:#F4B8FF"/>
			<stop  offset="0.7561" style="stop-color:#F1F3FF"/>
			<stop  offset="0.7808" style="stop-color:#ECECFF"/>
			<stop  offset="0.9988" style="stop-color:#C5B6FF"/>
		</linearGradient>
		<path class="st50" d="M1954.7,327.1c-1.9-19.5-2.5-39.1-1.6-58.6c0.5-10.1,1.4-20.2,2.7-30.2c1.1-8.7,1.5-19.5,6.2-27.2
			c2.4-3.9,5.8-6.8,10.5-7.5c6.5-1,9.8,3.9,12,9.2c2.9,6.9,4.7,14.2,5.6,21.6c1.7,14.4-0.2,29.2-5.3,42.7
			"/>
	</g>
</g>
<g>
	<g>
		<linearGradient id="SVGID_49_" gradientUnits="userSpaceOnUse" x1="2145.4634" y1="1291.6378" x2="2183.5928" y2="1291.6378">
			<stop  offset="0" style="stop-color:#FFF41B"/>
			<stop  offset="0.5232" style="stop-color:#F43BE9"/>
			<stop  offset="0.5907" style="stop-color:#EA3BEC"/>
			<stop  offset="0.9988" style="stop-color:#B43EFF"/>
		</linearGradient>
		<path class="st49" d="M2147,1343.1c0.3-19.9,2.1-39.7,5.6-59.3c1.7-9.5,3.8-19,6.3-28.3c1.2-4.3,2.7-8.7,6-11.8
			c5.3-4.9,9.5-0.1,11.8,4.9c12.6,26.7,2.3,61.3-22.3,77.3c-1.2,0.8-0.1,2.7,1.1,1.9"/>
	</g>
</g>
<g>
	<g>
		<linearGradient id="SVGID_48_" gradientUnits="userSpaceOnUse" x1="1991.2762" y1="1518.553" x2="2152.1528" y2="1518.553">
			<stop  offset="0" style="stop-color:#DAECFD"/>
			<stop  offset="0.3605" style="stop-color:#FBFBF9"/>
			<stop  offset="0.7561" style="stop-color:#FEFDC6"/>
			<stop  offset="0.9988" style="stop-color:#FFD3B8"/>
		</linearGradient>
		<path class="st48" d="M1992.5,1595.2c44-57.3,78.9-121.3,103.3-189.2c-0.6,0.2-1.3,0.3-1.9,0.5c14,16.4,24.7,35.9,30.1,56.8
			c2.8,10.9,4.1,23.1-0.6,33.7c-4.2,9.4-12.8,16.9-23.3,17.3c0.1,0.7,0.2,1.5,0.3,2.2c11.3-2.4,23.6-2.1,33.9,3.8
			c9.3,5.3,16.4,15.3,16.4,26.2c0,25.6-29.2,34.1-49.9,33.4c-0.9,0-1.6,1.3-0.8,1.9c5.7,4.5,10.6,9.9,14.5,16
			c3.9,6.1,8.1,14.1,8.3,21.4c0.5,17.6-27.8,10.4-37.3,8.2c-28.4-6.8-54.6-21.6-75.1-42.3c-1-1-2.6,0.6-1.6,1.6
			"/>
	</g>
</g>
<g>
	<g>
		<linearGradient id="SVGID_47_" gradientUnits="userSpaceOnUse" x1="1953.272" y1="172.56" x2="2173.1055" y2="172.56">
			<stop  offset="0" style="stop-color:#5900FF"/>
			<stop  offset="0.3605" style="stop-color:#DE009F"/>
			<stop  offset="0.5751" style="stop-color:#D48D9A"/>
			<stop  offset="0.7561" style="stop-color:#CBFF96"/>
			<stop  offset="0.7684" style="stop-color:#C0FD9B"/>
			<stop  offset="0.9287" style="stop-color:#37E3DB"/>
			<stop  offset="0.9988" style="stop-color:#00D9F5"/>
		</linearGradient>
		<path class="st47" d="M2027.7,166.6c2.2,17.1,4.4,34.1,6.7,51.2c2,15.5,3.5,31.2,6.4,46.6c4,21.5,16,45.5,41.4,44.5
			c9.8-0.4,17.8-5.6,21.6-14.8c3-7.3,4.8-15.2,7.1-22.7c2.6-8.6,5.2-17.2,7.8-25.8c10-33.2,20.1-66.4,30.1-99.5
			c10.7-35.3,24.4-71.3,25-108.6c0-0.6-0.5-1.2-1.1-1.1c-19.8,1.9-38.5,8.6-56.5,16.9c-18.4,8.5-37,17.5-54.1,28.4
			c-7.8,5-15.2,10.6-21.8,17.1c-3.6,3.6-7.3,7.5-12.2,9.3c-5,1.8-10.6,1.6-15.8,1c-18.8-2-37.7-11.5-49.6-26.4
			c-6-7.5-12.9-22.3-3.7-30.2c5.6-4.7,18.7-4.7,19.5,4.5c0.1,1.4,2.4,1.4,2.2,0"/>
	</g>
</g>
<g>
	<g>
		<linearGradient id="SVGID_46_" gradientUnits="userSpaceOnUse" x1="1791.8016" y1="134.6319" x2="1902.0847" y2="134.6319">
			<stop  offset="0" style="stop-color:#FFF41B"/>
			<stop  offset="0.5232" style="stop-color:#F43BE9"/>
			<stop  offset="0.5907" style="stop-color:#EA3BEC"/>
			<stop  offset="0.9988" style="stop-color:#B43EFF"/>
		</linearGradient>
		<path class="st46" d="M1817.7,192.2c-3.7,2.5-7.9,4.7-12.4,5.3c-8,1-9.3-5.2-9.7-11.8c-0.9-12.4-1.5-24.8-1.9-37.3
			c-0.4-12.1-0.5-24.2-0.3-36.3c0-2.8-0.4-6.1,0.1-8.8c1.1-6.1,4.5-5.4,8.7-5.3c6.1,0.1,12.2,0.3,18.4,0.4c-0.4-0.4-0.8-0.8-1.1-1.1
			c0.7,19,1.4,38.1,2.1,57.1c0.4,9.6,0.1,19.5,1.1,29c0.6,6.1,3.6,8.2,9.2,9.7c25.5,7,36.7,35.6,61.5,44c0.7,0.2,1.4-0.4,1.4-1.1
			c1.6-34.1,3.3-68.2,4.9-102.3c1.6-33.3,5.4-67.4,1.8-100.7c-0.1-0.8-0.9-1.5-1.7-1c-24,16.1-46,34.8-65.8,55.8
			"/>
	</g>
</g>
<g>
	<g>
		<linearGradient id="SVGID_45_" gradientUnits="userSpaceOnUse" x1="2062.8113" y1="505.8293" x2="2212.6057" y2="505.8293">
			<stop  offset="0" style="stop-color:#92E1FF"/>
			<stop  offset="0.3605" style="stop-color:#F4B8FF"/>
			<stop  offset="0.7561" style="stop-color:#F1F3FF"/>
			<stop  offset="0.7808" style="stop-color:#ECECFF"/>
			<stop  offset="0.9988" style="stop-color:#C5B6FF"/>
		</linearGradient>
		<path class="st45" d="M2132.2,489c-19.7,3.6-38.4-10.9-51.5-24.1c-12.1-12.3-21.3-29.8-13.3-46.9c3.6-7.7,10.5-13.3,19.1-14
			c9.7-0.7,18.7,4.8,25.9,10.8c6.7,5.6,12.8,12.1,18.4,18.8c6.2,7.3,11.4,15.3,13,25c0.2,1.2,2.4,1,2.2-0.3
			c-1.8-14.9,5.5-28.9,16.9-38.2c12-9.8,34.2-17.2,44.4-1.1c8.6,13.7,2,29.9-9.1,39.8c-12.5,11.2-29.1,15.8-44.1,22.5
			c-1.3,0.6-0.2,2.5,1.1,1.9c13.2-5.8,31.9-8.4,42.1,4.3c3.9,4.9,6.2,11.6,5,17.8c-1.4,7.2-7.4,11.6-14.1,13.6
			c-23.9,7.4-51.2-7.4-59.8-30.5c-0.7,0.3-1.4,0.6-2.1,0.9c6.3,11.8,4.2,29.7-8.6,36.3c-12.4,6.4-32-5.1-27.7-19.9
			c2.2-7.5,9.3-12.4,15.8-16c4-2.2,9-5,13.7-3.6c4.2,1.2,6.6,5.4,8.1,9.2c3,7.6,3.9,16.2,5.5,24.2c1.8,9,3.7,18,5.5,27
			"/>
	</g>
</g>
<g>
	<g>
		<linearGradient id="SVGID_44_" gradientUnits="userSpaceOnUse" x1="1827.6957" y1="513.5039" x2="1975.7238" y2="513.5039">
			<stop  offset="0" style="stop-color:#5900FF"/>
			<stop  offset="0.3605" style="stop-color:#00EDFF"/>
			<stop  offset="0.5751" style="stop-color:#8DEFCF"/>
			<stop  offset="0.7561" style="stop-color:#FFF1A7"/>
			<stop  offset="0.7594" style="stop-color:#FFEEA5"/>
			<stop  offset="0.926" style="stop-color:#EB652F"/>
			<stop  offset="0.9988" style="stop-color:#E32E00"/>
		</linearGradient>
		<path class="st44" d="M1881.9,657.2c-3-37.4-5-74.8-5.9-112.3c-0.4-18.4-0.6-36.8-0.6-55.3c0-9.5,0.1-18.9,0.3-28.4
			c0.2-7.7,0.5-16.1,5.2-22.6c3.9-5.5,12.2-7.9,18.2-4.1c7.6,4.9,2,15.2-3.7,19.1c-11.4,7.9-27.9,3.6-33.6-9.1
			c-6.1-13.7,0-30.4,12.6-37.9c11.7-6.9,27.2-6.4,38.8,0.3c12.9,7.4,19.5,22.3,19.4,36.8c-0.1,15.5-7.7,29.6-20,38.9
			c-25.1,18.8-68.5,17.4-80.5-15.8c-11.1-30.7,9.9-66.3,34.3-84.3c12.7-9.3,28.6-14.3,44.2-10.4c15.1,3.8,27.6,14.2,37.7,25.7
			c10.5,11.9,20.4,25.8,24.2,41.4c3.8,15.5-0.1,31.4-8.6,44.7c-17.5,27.3-50.8,42-82.5,42.3c-8.2,0.1-16.3-0.8-24.2-2.5
			"/>
	</g>
</g>
<g>
	<g>
		<linearGradient id="SVGID_43_" gradientUnits="userSpaceOnUse" x1="2006.1925" y1="662.6149" x2="2148.5884" y2="662.6149">
			<stop  offset="2.929688e-02" style="stop-color:#E2436A"/>
			<stop  offset="0.3605" style="stop-color:#E72279"/>
			<stop  offset="0.7561" style="stop-color:#C837E8"/>
			<stop  offset="0.8807" style="stop-color:#8A1DE6"/>
			<stop  offset="0.9988" style="stop-color:#5307E4"/>
		</linearGradient>
		<path class="st43" d="M2074.7,676.9c-16.3-28.8-33.7-57-52.2-84.5c-0.3,0.6-0.6,1.1-1,1.7c24.5-1.2,48.8,3.1,71.4,12.5
			c-0.2-0.6-0.3-1.3-0.5-1.9c-14.5,11.9-28.9,23.9-43.4,35.8c-0.3,0.3-0.4,1-0.2,1.4c6.2,8.4,10.8,17.6,13.9,27.6
			c0.3-0.5,0.5-0.9,0.8-1.4c-20.3,7.1-37.8,20.1-50.7,37.3c-0.8,1.1,0.9,2.2,1.8,1.4c18.2-16.5,37.2-32.3,56.9-47.1
			c9.9-7.4,19.9-14.6,30.1-21.6c4.5-3.1,9.3-7.3,14.6-8.8c7.9-2.2,12.5,6.7,16,12.3c12,19.2,23.9,48.6,4.6,67
			c-16.4,15.5-40.6,23.4-62.9,22.9c-12.6-0.3-25.1-3.3-36.5-8.6c-5-2.3-9.9-5.1-14.4-8.3c-2.7-1.9-5.4-4-7.9-6.2
			"/>
	</g>
</g>
<g>
	<g>
		<linearGradient id="SVGID_42_" gradientUnits="userSpaceOnUse" x1="1779.3951" y1="810.8614" x2="2125.1687" y2="810.8614">
			<stop  offset="0" style="stop-color:#FFF41B"/>
			<stop  offset="0.5232" style="stop-color:#F43BE9"/>
			<stop  offset="0.5907" style="stop-color:#EA3BEC"/>
			<stop  offset="0.9988" style="stop-color:#B43EFF"/>
		</linearGradient>
		<path class="st42" d="M2088.1,892.8c-9.9-2.4-22.2-6.3-25.5-17.3c-3.3-11.1,5.2-21.4,13.3-27.9c14.1-11.2,34.5-14,45.3-29.6
			c10.2-14.8,2-33.3-12.4-41.6c-19.5-11.2-43.3-2.9-62.6,4.1c-5.3,1.9-10.7,3.9-16.1,5.5c-6.2,1.8-13.5,4.1-20,2.9
			c-7.3-1.4-10.3-7.5-12.7-13.8c-2.2-5.9-4-11.9-5.5-18c-3.1-12.7-4.8-25.7-4.9-38.8c-0.1-8.6,0.1-15.4-9.8-17.3
			c-49.9-9.5-102.2-9.9-152.4-3.6c-9.6,1.2-21.7,1.3-30.2,6.3c-7.6,4.5-8.8,13.3-9.6,21.4c-2.5,25.9-4.3,51.9-5.3,77.9
			c-1,26.3-1.3,52.7-0.8,79c0.3,16.1-3.4,44,19,46c12.2,1.1,24.9-0.4,37.1-0.8c13.1-0.4,26.3-0.8,39.4-1.2
			c13.1-0.4,26.3-0.8,39.4-1.2c10.2-0.3,21.2,0.4,31.2-2.1c8-2,13.8-7.2,15.4-15.4c0.9-4.5,0.7-9.1,0.6-13.6
			c0-6.5,0.1-13.1,0.4-19.6c0.6-12.7,1.1-26.3,4.2-38.7c1.5-6.1,4.3-12.3,9.9-15.7c6.4-3.9,12-2.3,17.8,1.6
			c14.6,9.7,29.7,4.2,45.2,0.1c7.9-2.1,16.8-4.3,24.7-1.4c1,0.3,1.9,0.8,2.8,1.2c2,1.1,1.9,0.7,1.4,2.9c-0.5,2.2-2.8,4.3-4.2,5.9
			c-3.7,3.9-8.2,7-12.6,9.9c-11.5,7.5-31.6,22.6-21,38.6c4,6.1,11.2,8.1,18.1,8.8c9.6,1,19.1,0.3,28.4,3.3
			"/>
	</g>
</g>
<g>
	<g>
		<linearGradient id="SVGID_41_" gradientUnits="userSpaceOnUse" x1="1797.6073" y1="810.6452" x2="1952.1233" y2="810.6452">
			<stop  offset="2.929688e-02" style="stop-color:#E2436A"/>
			<stop  offset="0.3605" style="stop-color:#E72279"/>
			<stop  offset="0.7561" style="stop-color:#C837E8"/>
			<stop  offset="0.8807" style="stop-color:#8A1DE6"/>
			<stop  offset="0.9988" style="stop-color:#5307E4"/>
		</linearGradient>
		<path class="st41" d="M1820.5,837c35.7-9.3,62.4-43.3,62.9-80.2c0-1-1.3-1.5-1.9-0.8c-11.5,12.5-18.2,28.1-24.2,43.8
			c-7.4,19.6-14.7,39.3-22.1,59c-0.4,1,1.2,2,1.9,1.1c12-15,24-29.9,35.9-44.9c-0.6-0.4-1.3-0.7-1.9-1.1c-3.4,11.8-5.7,23.7-7,35.9
			c-0.5,4.7-4.1,20.9,5.3,19.4c4.2-0.6,7.4-4.7,10.1-7.6c3.4-3.7,6.6-7.6,9.5-11.7c6.3-8.8,11.1-18.5,14.6-28.7
			c0.4-1.3-1.4-1.9-2.1-0.9c-5.4,8.3-9.4,17.3-11.7,26.9c-1.2,5.2-4.8,16.9,0,21.1c4.8,4.3,15.9-0.3,20.8-2.3
			c7.1-2.8,13.6-7,19.3-12.1c11.8-10.5,20-25.1,22.2-40.8c1.9-13.9-0.8-32.1-13.9-40c-11.3-6.8-30.9,1.6-27.1,16.5
			c0.2,0.7,1.1,1.1,1.7,0.7c10.9-7.6,17.6-20.5,16.6-33.9c-1.1-13.6-9.8-26-22.3-31.5c-29.2-12.8-57.8,9-75.8,30.1
			c-19.7,23-34.7,52.1-34.5,83c0.1,14.3,3.3,29.2,12.3,40.7c8,10.3,20,16.8,32.6,19.6c33.7,7.3,64.7-12.4,87.1-35.8
			"/>
	</g>
</g>
<g>
	<g>
		<linearGradient id="SVGID_40_" gradientUnits="userSpaceOnUse" x1="1653.2363" y1="779.1215" x2="1725.2694" y2="779.1215">
			<stop  offset="0" style="stop-color:#DAECFD"/>
			<stop  offset="0.3605" style="stop-color:#FBFBF9"/>
			<stop  offset="0.7561" style="stop-color:#FEFDC6"/>
			<stop  offset="0.9988" style="stop-color:#FFD3B8"/>
		</linearGradient>
		<path class="st40" d="M1653,765.5c12.8,3.3,21.8,15.2,21.4,28.4c0,1.2,2,1.6,2.2,0.3c1.6-10.5,9-19.7,19.4-22.5
			c10.4-2.8,21.5,1.5,28.1,9.7c0.9,1.1,2.5-0.5,1.6-1.6"/>
	</g>
</g>
<g>
	<g>
		<linearGradient id="SVGID_39_" gradientUnits="userSpaceOnUse" x1="1565.6309" y1="658.1182" x2="1723.2107" y2="658.1182">
			<stop  offset="0" style="stop-color:#DAECFD"/>
			<stop  offset="0.3605" style="stop-color:#FBFBF9"/>
			<stop  offset="0.7561" style="stop-color:#FEFDC6"/>
			<stop  offset="0.9988" style="stop-color:#FFD3B8"/>
		</linearGradient>
		<path class="st39" d="M1566.9,665c3.6-7.8,7.8-16.8,16-20.7c11-5.2,23.3,1.6,32.9,6.7c15.5,8.3,32.2,18,38.9,35.3
			c0.6-0.4,1.3-0.7,1.9-1.1c-13.6-15.5,7.6-34.5,19.9-42.2c14-8.7,30.3-12.6,46.7-11.5c1.4,0.1,1.4-2.2,0-2.2
			"/>
	</g>
</g>
<g>
	<g>
		<linearGradient id="SVGID_38_" gradientUnits="userSpaceOnUse" x1="1901.2123" y1="1036.1237" x2="2138.0835" y2="1036.1237">
			<stop  offset="0" style="stop-color:#FFA192"/>
			<stop  offset="0.3605" style="stop-color:#FF54B9"/>
			<stop  offset="0.7548" style="stop-color:#AD8CE0"/>
			<stop  offset="0.8408" style="stop-color:#A6ACD2"/>
			<stop  offset="0.9988" style="stop-color:#9BE2BB"/>
		</linearGradient>
		<path class="st38" d="M2073.3,1015.9c2.7,39.2,6.1,78.5,8.2,117.8c0.3,5.8-1.1,10.8-7.3,12.5c-4.3,1.1-9.1,0.9-13.5,1.1
			c-10,0.4-19.9,0.8-29.9,1.2c-18.9,0.7-37.8,1.5-56.7,1.8c-19.5,0.2-39.6-1.2-56.5-11.6c-0.2,0.7-0.4,1.4-0.6,2.1
			c17.5,0.2,34.9,0.4,52.4,0.6c8.6,0.1,17.1,0.2,25.7,0.3c6.2,0.1,13.4,0.8,19-2.3c4.9-2.7,6.7-8,7.9-13.1c1.9-8.1,3.4-16.3,5-24.4
			c3-15.7,5.4-31.6,6.1-47.6c0.8-18-0.8-35.9-5.9-53.2c-0.3,0.5-0.5,0.9-0.8,1.4c8.4-1.5,16.7-2.9,25.1-4.4c0.4-0.1,0.7-0.4,0.8-0.8
			c3.9-12.1-3.8-24.4-14.6-29.8c-11.7-5.9-25-2.3-34.5,6.1c-11.4,10-16.3,24.7-17,39.5c-0.4,9,0.6,17.9,2,26.8
			c0.8,5.1,3.9,13.7-1.6,17.4c-4.1,2.7-11.1,1.8-15.8,1.9c-23,0.9-46,1.8-69,2.7c0.4,0.5,0.7,0.9,1.1,1.4c8-30.4-5.7-68.8,17.8-93.9
			c20.3-21.7,55.2-22,82.6-21.6c19.8,0.3,44.7,4.4,52.2,25.9c0.3,0.8,1.2,1.1,1.9,0.5c7-6.1,14.8-11.3,23.3-15.1
			c8.6-3.9,20.8-9.2,29.7-3.7c7.2,4.4,10.4,13.4,12.9,21c2.9,8.8,5.3,17.7,7.2,26.8c4.1,19.2,6.2,38.8,6.1,58.4
			c0,9.2-0.5,18.5-1.5,27.7c-0.8,7.8-1.7,16.1-5.9,23c-2.5,4.1-6.3,7.5-11.3,7.5c-5.4,0-10.2-3.6-14.4-6.6
			c-8.3-5.9-15.6-13.1-22-21.1c-0.8-1-2.5,0.3-1.8,1.4c4.2,5.7,11,7.3,17.7,5.9c8.2-1.7,14.1-7.6,17.4-15.2c4-9.4,4.3-20.1,4.8-30.2
			c0.7-11.9,1-24-1.4-35.8c-3.6-17.9-15.5-36.4-34.5-40.3c-4.8-1-9.3-0.2-14.1-0.3c-8.2-0.2-11.1-6.3-15.9-11.8
			c-5.8-6.8-13.1-12.4-21.1-16.5c-18.7-9.6-41.1-11.3-60.7-3.5c0.5,0.5,0.9,0.9,1.4,1.4c4.9-16.7,23-25.8,39.6-24.4
			c19,1.6,34.7,15.4,45.3,30.3c0.1-0.5,0.3-1,0.4-1.5c-5.7,4.1-12.4,5.3-19.2,3.4c-0.2,0.7-0.4,1.4-0.6,2.2c10,2,15.5,13.3,9.4,21.9
			c-6.2,8.7-16.1,5.9-24.6,3.1c-6.7-2.1-13.3-3.7-20-0.8c-5.5,2.3-9.9,6.7-12.9,11.7c-8.6,14.1-7.1,33-10.1,48.7
			c-3.4,18-9.4,35.3-17.5,51.7c0.6-0.1,1.2-0.2,1.8-0.2c-13.2-16.2-18.1-37.8-13.2-58.1c-0.7-0.1-1.5-0.2-2.2-0.3
			c-0.7,20.8-12.2,40.1-30.2,50.6c0.5,0.1,1,0.3,1.5,0.4c-7.3-10.7-8.4-24.3-2.8-36c-0.7-0.3-1.4-0.6-2.1-0.9
			c-6.9,30.8-6,62.8,2.6,93.1c0.4,1.4,2.6,0.8,2.2-0.6c-8.5-30-9.4-61.5-2.6-92c0.3-1.2-1.5-2.1-2.1-0.9c-6,12.4-5,26.9,2.8,38.2
			"/>
	</g>
</g>
<g>
	<g>
		<linearGradient id="SVGID_37_" gradientUnits="userSpaceOnUse" x1="1404.1384" y1="826.6941" x2="1586.1899" y2="826.6941">
			<stop  offset="0" style="stop-color:#E77AEB"/>
			<stop  offset="0.3605" style="stop-color:#EACDA6"/>
			<stop  offset="0.7561" style="stop-color:#ECDFF1"/>
			<stop  offset="0.8363" style="stop-color:#F3C2E9"/>
			<stop  offset="0.9988" style="stop-color:#FF8CD9"/>
		</linearGradient>
		<path class="st37" d="M1478.3,870.2c-13.1-18.5-38.3-30.2-59.3-17c-8.9,5.6-15.8,15.3-15.7,26.1c0.2,10.6,8.5,16,18.1,17.2
			c6.1,0.7,12.1,0.1,18.2-0.5c7.4-0.7,15-0.9,22.3-2.1c5.7-1,7.8-4.5,9-9.9c1.6-7.1,2.5-14.4,3.1-21.6c2.9-32.3-0.6-65.2,5.7-97.2
			c1-4.9,1.5-10.8,7.3-12.2c4.1-1,9.4,0.5,13.4,1c9.3,1.1,18.5,2.2,27.8,3.3c19.2,2.3,38.3,4.6,57.5,6.8c-0.4-0.4-0.8-0.8-1.1-1.1
			c-2.5,39-5.1,78.1-7.6,117.1c0.7-0.2,1.4-0.4,2.1-0.6c-7.3-10.5-18.8-19.5-32.3-18.9c-10.7,0.5-22,7.2-24.2,18.4
			c-1.9,9.5,3.4,20.9,13.2,23.4c6.5,1.7,13.2-0.7,19.1-3.3c4.1-1.8,8.1-3.8,12.1-5.7c2.4-1.1,4.8-2.3,7.2-3.4
			"/>
	</g>
</g>
<g>
	<g>
		<linearGradient id="SVGID_36_" gradientUnits="userSpaceOnUse" x1="1597.9098" y1="972.4914" x2="1708.2397" y2="972.4914">
			<stop  offset="0" style="stop-color:#FFF41B"/>
			<stop  offset="0.5232" style="stop-color:#F43BE9"/>
			<stop  offset="0.5907" style="stop-color:#EA3BEC"/>
			<stop  offset="0.9988" style="stop-color:#B43EFF"/>
		</linearGradient>
		<path class="st36" d="M1653.5,1015.5c-18.3-11.9-42.1-2.6-51.4,16.1c-6.8,13.6-8.4,39.2,9.2,45.9c10,3.8,19.6-3,26.7-9.3
			c9-7.9,18.6-17.4,24.4-28c2.4-4.3,2.5-8.2,1.4-12.8c-1.8-7.6-4.1-15.1-6.2-22.6c-3.9-14-7.7-28-11.6-42.1
			c-8.8-31.9-17.6-63.7-26.3-95.6c-0.5,0.5-0.9,0.9-1.4,1.4c21,5.9,40.7,15.9,57.7,29.6c7.9,6.4,15.3,13.5,21.8,21.3
			c4.1,5,8.6,10.9,9,17.6c0.4,7.1-5.3,15.2-13.1,13.4c-1.4-0.3-2,1.8-0.6,2.2c10,2.4,17.2-8.1,15.8-17.3
			"/>
	</g>
</g>
<g>
	<g>
		<linearGradient id="SVGID_35_" gradientUnits="userSpaceOnUse" x1="1744.5281" y1="1189.0706" x2="1902.0847" y2="1189.0706">
			<stop  offset="0" style="stop-color:#E77AEB"/>
			<stop  offset="0.3605" style="stop-color:#EACDA6"/>
			<stop  offset="0.7561" style="stop-color:#ECDFF1"/>
			<stop  offset="0.8363" style="stop-color:#F3C2E9"/>
			<stop  offset="0.9988" style="stop-color:#FF8CD9"/>
		</linearGradient>
		<path class="st35" d="M1798.9,1236c-14.2,25.6-19,55.3-13.7,84.1c0.1,0.8,1.4,1.1,1.9,0.5c8.4-10.7,16.8-21.4,25.2-32.1
			c-0.6-0.3-1.3-0.5-1.9-0.8c1.3,21.3,6.7,42,15.9,61.3c0.4,0.9,1.8,0.6,2.1-0.3c5.2-18.6,10.5-37.1,15.7-55.7c-0.7,0-1.4,0-2.2,0
			c1.5,5.7,3.3,12.2,8.4,15.8c3.8,2.7,9.7,3.4,13.4,0.2c4.8-4.1,3.7-13.3,3.9-19c0.3-8.2,0.1-16.5-1.5-24.5
			c-6.1-29.6-35.3-43.6-63.6-41.5c-20.3,1.5-39.3,9.6-57.8,17.6c0.6,0.4,1.1,0.8,1.7,1.3c12.4-31.4,37.5-60.7,71.5-68.7
			c30.2-7.2,66.1,7.8,78.7,37c2.8,6.5,7.7,20.9,1.3,26.3c-3.5,3-10,3.6-14.4,4c-5.2,0.5-10.5,0.4-15.6-0.4
			c-9.8-1.5-18.9-5.4-27.1-11c-7.1-4.9-13.8-10.6-21.8-14.1c-6.8-2.9-13.1-3.2-20.1-1.1c-4.8,1.4-9.9,2.6-13.7-1.5
			c-2.8-3-3.8-7.5-4.2-11.4c-0.8-8.8,1.4-18,3.1-26.6c1.8-9.3,3.9-18.6,6.5-27.7c11.7-42.3,31.2-82.3,57.2-117.7c-0.6,0-1.3,0-1.9,0
			c37.7,59.5,44.6,136.3,18.3,201.7"/>
	</g>
</g>
<g>
	<g>
		<linearGradient id="SVGID_34_" gradientUnits="userSpaceOnUse" x1="235.1329" y1="1263.8699" x2="424.373" y2="1263.8699">
			<stop  offset="0" style="stop-color:#FFA192"/>
			<stop  offset="0.3605" style="stop-color:#FF54B9"/>
			<stop  offset="0.7548" style="stop-color:#AD8CE0"/>
			<stop  offset="0.8408" style="stop-color:#A6ACD2"/>
			<stop  offset="0.9988" style="stop-color:#9BE2BB"/>
		</linearGradient>
		<path class="st34" d="M235.2,1378.1c40-2.2,71.7-30.3,97.7-58.2c14-15,28.4-30.7,37.4-49.4c9.5-19.9,9.8-41.1,6.3-62.5
			c-0.5-3.1-1.1-6.2-1.7-9.3c-0.5-2.7-2.9-8.6-2.3-11.1c0.7-2.8,5-4.5,7.3-6.1c2.7-1.8,5.5-3.7,8.2-5.5c12-8.1,24.1-16.2,36.1-24.3
			c-0.6-0.3-1.1-0.6-1.7-1c4.1,70.4-39.3,131.6-91.9,173.9c-15.1,12.1-31.1,23.1-47.5,33.4c-1.2,0.8-0.1,2.7,1.1,1.9
			"/>
	</g>
</g>
<g>
	<g>
		<linearGradient id="SVGID_33_" gradientUnits="userSpaceOnUse" x1="446.3564" y1="1351.1816" x2="508.312" y2="1351.1816">
			<stop  offset="0" style="stop-color:#FFA192"/>
			<stop  offset="0.3605" style="stop-color:#FF54B9"/>
			<stop  offset="0.7548" style="stop-color:#AD8CE0"/>
			<stop  offset="0.8408" style="stop-color:#A6ACD2"/>
			<stop  offset="0.9988" style="stop-color:#9BE2BB"/>
		</linearGradient>
		<path class="st33" d="M447.6,1390.2c17.5-25.3,33.4-51.8,47.4-79.2c-0.7-0.1-1.4-0.2-2.1-0.3c3.8,9.1,7.6,18.3,11.3,27.4
			c0.6,1.5,1.7,3.4,2,5c0.9,4.8-2.3,6.2-5.3,8.3c-3.6,2.5-7.3,4.9-10.8,7.5c-14.4,10.2-28.4,21-42,32.3c-1.1,0.9,0.5,2.5,1.6,1.6
			"/>
	</g>
</g>
<g>
	<g>
		<linearGradient id="SVGID_32_" gradientUnits="userSpaceOnUse" x1="611.2351" y1="1218.1759" x2="681.4586" y2="1218.1759">
			<stop  offset="0" style="stop-color:#FFA192"/>
			<stop  offset="0.3605" style="stop-color:#FF54B9"/>
			<stop  offset="0.7548" style="stop-color:#AD8CE0"/>
			<stop  offset="0.8408" style="stop-color:#A6ACD2"/>
			<stop  offset="0.9988" style="stop-color:#9BE2BB"/>
		</linearGradient>
		<path class="st32" d="M618.8,1183.5c16.4,12,37.4,15.9,57.1,10.8c-0.5-0.4-0.9-0.7-1.4-1.1c1.7,13.6,3.1,27.2,4.2,40.9
			c0.3,3.2,0.5,6.5,0.7,9.8c0.1,1.6,0.2,3.3,0.3,4.9c0.2,2.4,0.1,4.1-3.1,3.9c-3.4-0.1-7.4-4.1-9.8-6c-2.7-2.2-5.3-4.4-8-6.7
			c-9.5-8-19-16.1-27.8-24.8c-8.5-8.3-16-17.8-18.2-29.8c-0.3-1.4-2.4-0.8-2.2,0.6"/>
	</g>
</g>
<g>
	<g>
		<linearGradient id="SVGID_31_" gradientUnits="userSpaceOnUse" x1="648.2679" y1="134.6454" x2="706.6931" y2="134.6454">
			<stop  offset="0" style="stop-color:#5900FF"/>
			<stop  offset="0.3605" style="stop-color:#00EDFF"/>
			<stop  offset="0.5751" style="stop-color:#8DEFCF"/>
			<stop  offset="0.7561" style="stop-color:#FFF1A7"/>
			<stop  offset="0.7594" style="stop-color:#FFEEA5"/>
			<stop  offset="0.926" style="stop-color:#EB652F"/>
			<stop  offset="0.9988" style="stop-color:#E32E00"/>
		</linearGradient>
		<path class="st31" d="M656,169.3c3.9-24.2,8.5-48.3,14-72.3c-0.7,0.1-1.4,0.2-2.1,0.3c11.7,17.4,22.9,35.2,33.7,53.2
			c1.6,2.6,4.5,7.2,1.1,9.4c-1.8,1.2-4.9,1.2-6.9,1.6c-5.2,1.1-10.4,2.2-15.6,3.3c-10.7,2.2-21.5,4.5-32.2,6.7
			c-1.4,0.3-0.8,2.5,0.6,2.2"/>
	</g>
</g>
<g>
	<g>
		<linearGradient id="SVGID_30_" gradientUnits="userSpaceOnUse" x1="1213.0343" y1="566.1523" x2="1298.0679" y2="566.1523">
			<stop  offset="0" style="stop-color:#FFA192"/>
			<stop  offset="0.3605" style="stop-color:#FF54B9"/>
			<stop  offset="0.7548" style="stop-color:#AD8CE0"/>
			<stop  offset="0.8408" style="stop-color:#A6ACD2"/>
			<stop  offset="0.9988" style="stop-color:#9BE2BB"/>
		</linearGradient>
		<path class="st30" d="M1234.9,601.3c0.7-27.2,3.7-54.3,9-81c-0.6,0.2-1.3,0.3-1.9,0.5c11,11.9,21.9,23.9,32.8,35.9
			c5.7,6.3,11.3,12.5,16.9,18.8c1.1,1.3,3.8,3.6,4.3,5.1c1.5,4.4-2.3,5.5-4.9,6.3c-3.1,1-6.4,1.6-9.6,2.3
			c-23.6,4.9-50.1,5.3-69,22.3c-1.1,1,0.5,2.6,1.6,1.6"/>
	</g>
</g>
<g>
	<g>
		<linearGradient id="SVGID_29_" gradientUnits="userSpaceOnUse" x1="866.764" y1="577.1681" x2="940.2386" y2="577.1681">
			<stop  offset="0" style="stop-color:#E77AEB"/>
			<stop  offset="0.3605" style="stop-color:#EACDA6"/>
			<stop  offset="0.7561" style="stop-color:#ECDFF1"/>
			<stop  offset="0.8363" style="stop-color:#F3C2E9"/>
			<stop  offset="0.9988" style="stop-color:#FF8CD9"/>
		</linearGradient>
		<path class="st29" d="M878.2,609.6c6.2-14.5,13.6-28.5,22.4-41.6c2.3-3.4,4.6-6.8,7.1-10c2.2-3,4.5-7.5,7.6-9.6
			c7-4.8,9.3,3.6,11.1,8.1c1.7,4.2,3.4,8.3,5,12.5c1.7,4.2,3.4,8.3,5,12.5c0.6,1.5,1.2,2.9,1.7,4.5c0.9,3.3,0.2,6.7-2.9,8.8
			c-1.7,1.2-5.7,0.9-7.9,1.2c-1.8,0.2-3.5,0.4-5.3,0.5c-4.1,0.4-8.3,0.7-12.4,1c-14.8,1.2-29.6,2.8-43.3,9.1
			c-1.3,0.6-0.2,2.5,1.1,1.9c15.2-6.9,31.9-8,48.3-9.3c8.6-0.7,27.7,1.1,24.8-12.4"/>
	</g>
</g>
<g>
	<g>
		<path class="st28" d="M78.3,291.9c24.3,25.2,45.9,53,64,82.9c2.3,3.8,4.5,7.6,6.7,11.4c0.7,1.3,2.6,3.9,2.7,5.3
			c0.2,3.2-3.6,4.2-5.8,5.2c-7.6,3.8-15,8-22.2,12.6c-14.2,9-27.5,19.5-39.8,31.1c0.6,0.2,1.3,0.3,1.9,0.5
			c-6.5-30.4-8-61.5-9.8-92.4c-0.9-15.2-1.9-30.5-3.7-45.6c-0.3-2.1-0.1-7.9-3.5-7.8c-2.1,0.1-2.8,2.2-1.6,3.7
			"/>
	</g>
</g>
<g>
	<g>
		<linearGradient id="SVGID_28_" gradientUnits="userSpaceOnUse" x1="48.9377" y1="761.0191" x2="132.0847" y2="761.0191">
			<stop  offset="0" style="stop-color:#FFF41B"/>
			<stop  offset="0.5232" style="stop-color:#F43BE9"/>
			<stop  offset="0.5907" style="stop-color:#EA3BEC"/>
			<stop  offset="0.9988" style="stop-color:#B43EFF"/>
		</linearGradient>
		<path class="st27" d="M51.4,696.2c-5.1,8-3,18.8-2.4,27.8c0.8,12.4,1.9,24.7,3.2,37.1c2.6,23.8,6.1,47.5,10.5,71
			c0.2,1.1,1.5,1,2.1,0.3C76.2,816.9,87.6,801.5,99,786c5.5-7.5,11.1-14.9,16.6-22.4c2.8-3.7,5.5-7.5,8.3-11.2
			c2.6-3.5,6.3-7.2,8.1-11.2c2.2-4.6-1.4-7.4-5.3-9.2c-7.8-3.8-15.8-7.3-23.5-11.4c-7.7-4-15.3-8.3-22.8-12.7
			c-3.7-2.2-7.4-4.5-11.1-6.9"/>
	</g>
</g>
<g>
	<g>
		<linearGradient id="SVGID_27_" gradientUnits="userSpaceOnUse" x1="993.1548" y1="1243.2552" x2="1193.7382" y2="1243.2552">
			<stop  offset="0" style="stop-color:#5900FF"/>
			<stop  offset="0.3605" style="stop-color:#00EDFF"/>
			<stop  offset="0.5751" style="stop-color:#8DEFCF"/>
			<stop  offset="0.7561" style="stop-color:#FFF1A7"/>
			<stop  offset="0.7594" style="stop-color:#FFEEA5"/>
			<stop  offset="0.926" style="stop-color:#EB652F"/>
			<stop  offset="0.9988" style="stop-color:#E32E00"/>
		</linearGradient>
		<path class="st26" d="M994.7,1234.5c2.3-23.3,3.3-47.6,12.1-69.6c-0.6,0.2-1.3,0.3-1.9,0.5c9.7,11.2,15.6,25.2,25.3,36.4
			c10.2,11.7,24.1,16.7,39.4,16.1c8.1-0.3,16.2-1.8,24.1-3.6c5.3-1.2,13.3-1.8,15.2-7.9c1.1-3.4,0.6-7.3,0.6-10.8
			c0-5.2,0.1-10.4,0.1-15.7c0.1-10.4,0.1-20.9,0.2-31.3c-0.6,0.3-1.1,0.6-1.7,1c6.7,4.6,11.5,11,16.2,17.5c4.3,5.9,8.8,11.5,13.6,17
			c10.6,11.9,22.3,22.8,32.3,35.2c18.6,23.1,32.1,57.4,11.5,83.7c-17.5,22.3-49.8,30.9-76.8,33.2c-29.1,2.5-61-3.5-82.4-24.7
			c-10.6-10.5-18.4-24.1-21.6-38.7c-1.6-7.2-2-14.6-1-21.9c0.5-3.6,1.3-7.1,2.5-10.5c0.7-2.1,1.5-4.2,2.5-6.1
			"/>
	</g>
</g>
<g>
	<g>
		<linearGradient id="SVGID_26_" gradientUnits="userSpaceOnUse" x1="1299.0995" y1="1577.4401" x2="1959.041" y2="1577.4401">
			<stop  offset="0" style="stop-color:#5900FF"/>
			<stop  offset="0.3605" style="stop-color:#DE009F"/>
			<stop  offset="0.5751" style="stop-color:#D48D9A"/>
			<stop  offset="0.7561" style="stop-color:#CBFF96"/>
			<stop  offset="0.7684" style="stop-color:#C0FD9B"/>
			<stop  offset="0.9287" style="stop-color:#37E3DB"/>
			<stop  offset="0.9988" style="stop-color:#00D9F5"/>
		</linearGradient>
		<path class="st25" d="M1306.5,1586.7c20.4,9.7,40.9,19.4,62.4,26.4c22,7.2,44.6,10.8,67.8,10.2c24.4-0.7,48.8-4.3,73.1-7.1
			c24.7-2.9,49.4-5.7,74.2-8.6c50.1-5.8,100.2-11.6,150.3-17.4c23.1-2.7,46.3-5,69.4-8.3c21.5-3.1,43-7.5,63-16.2
			c19.3-8.4,36.2-20.9,51.3-35.4c7.7-7.4,14.9-15.2,22-23.3c3.3-3.8,6.6-7.7,9.8-11.6c1.6-1.9,3.2-3.9,4.8-5.8
			c1.2-1.5,4.4-4.2,5-6.1c1.4-4.8-5.4-8.1-9-8.5c-6.3-0.7-12.9,1.6-18,5.2c-16.6,11.3-29.5,27.3-45.8,39.1
			c-19.2,13.9-42.2,17.7-64.9,22.1c-24.4,4.7-48.9,9.1-73.4,13.2c-49,8.2-98.1,15.3-147.4,21.2c-49.4,5.9-98.9,10.7-148.6,14.2
			c-23.6,1.7-48.6,5.3-72.1,1.3c-19.8-3.4-37.1-15.3-57-18.1c-8.6-1.2-16.9,0-24.3,4.6c-0.4,0.3-0.6,0.8-0.5,1.3
			c5.4,21.9,29.5,30.3,49.1,34.9c32.5,7.5,65.5,13.6,98.2,20.4c1.4,0.3,2-1.8,0.6-2.2c-23.2-6.7-39.7,29.5-20.3,43.3
			c9.3,6.7,22.5,5.4,32-0.2c10.6-6.3,15.8-17.9,13-30c-3.3-14.4-16.4-26.1-31.4-26.1c0,0.8,0,1.5,0,2.2
			c104.4-8.1,208.8-16.1,313.1-24.2c29.5-2.3,59-4.6,88.5-6.8c-0.1-0.7-0.2-1.5-0.3-2.2c-11.7,1.7-19.5,13.3-19.3,24.8
			c0.2,12.4,10.4,21,22.3,21.7c12.7,0.8,24.7-6.9,27.6-19.6c2.8-12.3-2.7-26.3-13.7-32.8c-13.8-8.2-32.3-3.7-42.6,8
			"/>
	</g>
</g>
<g>
	<g>
		<linearGradient id="SVGID_25_" gradientUnits="userSpaceOnUse" x1="1253.4144" y1="1068.4578" x2="1555.7676" y2="1068.4578">
			<stop  offset="0" style="stop-color:#FFF41B"/>
			<stop  offset="0.5232" style="stop-color:#F43BE9"/>
			<stop  offset="0.5907" style="stop-color:#EA3BEC"/>
			<stop  offset="0.9988" style="stop-color:#B43EFF"/>
		</linearGradient>
		<path class="st24" d="M1397.8,1078.7c-5.9,8.3-23.2-22.5-25.5-26.7c-6-10.9-10.6-23-10.4-35.6c0.4-25.1,18.1-46,38.7-58.5
			c11.3-6.9,23.6-11.8,36.1-15.9c12.4-4.1,25.6-7.8,38.8-6.7c25.1,2.1,42,23.8,55,43.3c12.9,19.5,23.9,42.6,23.7,66.5
			c-0.2,25.8-15.9,44.8-37.3,57.4c-21.8,12.9-48.7,19.1-73.4,11.7c-10.8-3.2-21-8.9-29.2-16.7c-7.7-7.4-15.5-18-14.9-29.2
			c1-17,22.3-14.5,29.9-3.9c5.6,7.7,6.9,18.9,2.7,27.5c-10.4,21.6-44.6,9.5-45-12.4c0-1-1.2-1.5-1.9-0.8
			c-38.9,37.6-81.8,70.8-128.1,98.7c-4,2.4-5,2.6-4.2,7.3c0.7,4.3,2.9,8.1,5.9,11.1c6,6,15,9.1,23.4,8.2
			c10.8-1.1,20.3-7.1,28.6-13.5c11.6-8.9,22.6-18.6,33.9-28c25.6-21.3,51.1-42.6,76.7-63.9c1.1-0.9-0.5-2.5-1.6-1.6
			"/>
	</g>
</g>
<g>
	<g>
		<linearGradient id="SVGID_24_" gradientUnits="userSpaceOnUse" x1="724.9037" y1="1243.2255" x2="948.8253" y2="1243.2255">
			<stop  offset="0" style="stop-color:#92E1FF"/>
			<stop  offset="0.3605" style="stop-color:#F4B8FF"/>
			<stop  offset="0.7561" style="stop-color:#F1F3FF"/>
			<stop  offset="0.7808" style="stop-color:#ECECFF"/>
			<stop  offset="0.9988" style="stop-color:#C5B6FF"/>
		</linearGradient>
		<path class="st23" d="M748.2,1166.9c41.1-7.6,82.9-12.6,124.7-14.3c8.6-0.4,18.1-0.5,25.7,4.2c8.2,5,11.1,14.6,13.9,23.2
			c6.6,19.9,13.2,39.9,19.8,59.8c7.1,21.5,16.7,43.9,14.8,67c0.6-0.3,1.1-0.6,1.7-1c-25.3-12.5-52.5-20.8-80.5-24.3
			c-14.2-1.8-28.5-2.4-42.7-1.7c-12.5,0.6-25.5,1.7-37.4,5.7c-10.2,3.4-20.6,9.5-25.7,19.4c-4.5,8.6-3.2,18.6,5.4,23.9
			c9.6,5.9,23.2,6,34.1,6.8c14.5,1.1,29.1,1.2,43.7,0.2c32.8-2.2,65.2-9.8,95.6-22.5c1.3-0.5,0.9-2.5-0.6-2.2
			c-46.6,10.7-94.1,17.4-141.9,19.9c-11.6,0.6-23.3,1-35,1.1c-10.2,0.1-25.5,2.5-32.3-7c-5.9-8.2-4.8-20.8-4.9-30.4
			c-0.1-11.7,0.3-23.5,1.2-35.2c2.2-26.5,7.3-52.6,14.9-78c-0.5,0.3-0.9,0.5-1.4,0.8c12.5,5.1,11.5,25.2,25.9,27.9
			c6.5,1.2,13-2.4,16.9-7.4c5.6-7.1,6.2-16.6,6.7-25.2c-0.7,0.2-1.4,0.4-2.1,0.6c4.5,9.2,13.2,23.2,25.3,21.8
			c5.6-0.6,9.6-4.5,12.5-9.1c3.9-6.1,7.6-16.6,16.2-17c8.3-0.4,9.4,10.2,14.7,14.6c3.5,3,8.2,4.5,12.8,4.7c4.9,0.1,10-1.3,13.8-4.4
			c4.7-3.7,5.7-9.9,9.9-13.9c4.3-4.3,7.3,0.7,11.1,2.5c2.3,1.1,4.7,0.8,7-0.2c7-3.4,6.8-11.9,6.1-18.5c-0.1-1.4-2.4-1.4-2.2,0
			"/>
	</g>
</g>
<g>
	<g>
		<linearGradient id="SVGID_23_" gradientUnits="userSpaceOnUse" x1="1086.3782" y1="1068.46" x2="1180.2341" y2="1068.46">
			<stop  offset="0" style="stop-color:#DAECFD"/>
			<stop  offset="0.3605" style="stop-color:#FBFBF9"/>
			<stop  offset="0.7561" style="stop-color:#FEFDC6"/>
			<stop  offset="0.9988" style="stop-color:#FFD3B8"/>
		</linearGradient>
		<path class="st22" d="M1174.9,1048.3c-17.6-1.7-35.1-5.1-51.9-10.6c-15.6-5.1-31.7-14.3-34.9-31.8c-0.2-1.3-2.1-0.9-2.2,0.3
			c-1.8,22,8.3,43.6,26.2,56.5c-0.1-0.6-0.2-1.2-0.2-1.8c-12.7,10-28.1,24.3-20.7,42.1c2.5,6,7.7,10.8,14.4,11.1
			c9.9,0.5,18-7.2,27.1-9.8c-0.5-0.4-0.9-0.7-1.4-1.1c-1.1,10.5-0.9,24.7,11.7,27.9c13.2,3.4,23.3-8,28.8-18.5
			c7-13.4,10.1-28.7,9.1-43.8c-0.2-3.5-0.7-7-1.4-10.5c-0.4-1.8-0.5-5.4-2.3-6.6c-2.2-1.4-3.9,0.6-2.7,2.6c0.2,0.4,0.8,0.7,1.3,0.5
			"/>
	</g>
</g>
<g>
	<g>
		<linearGradient id="SVGID_22_" gradientUnits="userSpaceOnUse" x1="1556.6642" y1="402.8612" x2="1797.7627" y2="402.8612">
			<stop  offset="0" style="stop-color:#FFA192"/>
			<stop  offset="0.3605" style="stop-color:#FF54B9"/>
			<stop  offset="0.7548" style="stop-color:#AD8CE0"/>
			<stop  offset="0.8408" style="stop-color:#A6ACD2"/>
			<stop  offset="0.9988" style="stop-color:#9BE2BB"/>
		</linearGradient>
		<path class="st21" d="M1560.6,353.8c-0.2,32.9-0.5,65.7-0.7,98.6c-0.1,13.8-1.9,29.4,3.7,42.5c4.6,10.5,14.1,18.1,24.5,22.4
			c13,5.5,27.5,6.1,41.4,6.2c16.6,0.2,33.1,0.3,49.7,0.4c16.4,0.1,32.9,0.4,49.3,0.4c13,0,26.8-0.5,38.3-7.3
			c19-11.2,24.4-34.5,26.5-54.8c1.4-13.6,1.6-27.4,2.2-41c0.7-16.5,1.4-33,2.2-49.5c1.1-25.9,4.3-55.5-18.2-73.7
			c-21.9-17.8-51.6-16.5-78.2-16.2c-16.5,0.2-33,0.4-49.5,0.6c-15.5,0.2-31.3-0.5-46.8,1.1c-12.3,1.3-24.1,5-32.9,14.2
			c-8.4,8.8-13.1,20.7-14.9,32.6c-2.3,14.9-0.8,30,0.2,44.9c1.2,16.6,2.4,33.2,3.6,49.9c0.6,7.8,0.9,15.6,1.7,23.4
			c0.5,5.4,1.8,10.7,5.4,15c6.5,7.6,17.6,10,27.2,9.1c12-1.1,23.7-6.6,32.4-14.9c6.6-6.3,13.2-17.9,5.4-25.9
			c-6-6.2-16.7-5.8-23.9-2.4c-8.2,3.9-15.6,13-15,22.5c0.5,8.4,7.7,14,15.8,13.7c8.6-0.3,17.1-5.8,20.8-13.5c5.5-11.4,3-24.7,1-36.7
			c-2.7-16.1-4-32.3-3.6-48.7c0.1-3.8,0.3-7.6,0.6-11.4c0.1-1.1-0.2-4.8,0.5-5.7c1.2-1.6,3.5-1.4,5.3-1.6c8.6-1.2,17.1-2.4,25.7-3.6
			c16.4-2.3,32.9-4.7,49.3-7c2-0.3,5.1-1.2,7-1c5.6,0.6,5.1,3.8,5.5,7.4c0.5,3.9,0.8,7.9,1.2,11.8c0.9,8.5,1.8,17,2.7,25.5
			c1.5,14.8,3.9,29.8,4.2,44.6c0.3,12.8-1.9,28.7-14.3,35.5c-7.1,3.9-16.4,3-20.3-4.9c-3.7-7.6-0.3-16,6.3-20.7
			c7.2-5.2,16.6-5.6,20.9,3.2c2.4,5,4.5,9.7,8.3,13.9c6.7,7.5,16,12.6,25.8,14.5c9.2,1.8,18.6,0.8,27.1-3.2c1.3-0.6,0.2-2.6-1.1-1.9
			"/>
	</g>
</g>
<g>
	<g>
		<linearGradient id="SVGID_21_" gradientUnits="userSpaceOnUse" x1="1734.2659" y1="1335.2472" x2="2098.1445" y2="1335.2472">
			<stop  offset="0" style="stop-color:#00FFAD"/>
			<stop  offset="0.2358" style="stop-color:#3FC0A5"/>
			<stop  offset="0.7664" style="stop-color:#C83794"/>
			<stop  offset="0.9988" style="stop-color:#FF008D"/>
		</linearGradient>
		<path class="st20" d="M1733.9,1445.4c24.8,11.8,49.9-6.1,66-23.9c9.9-11,18.7-23.2,30.3-32.4c11.5-9.2,27-16.2,42-12.8
			c24.8,5.6,31.9,36.5,22.9,57.5c-11.1,25.9-41.2,38-66.9,43.4c-32.9,6.9-73,2.5-91.6-29.3c-0.3,0.6-0.6,1.1-1,1.7
			c27.1-1.6,54.4-3.5,80.8-10.2c24.3-6.2,51-17.1,67.9-36.5c6.4-7.3,11.2-18.4,4.3-27c-5.1-6.4-15.7-8.8-20.3-0.5
			c-5.5,10,3.5,23.4,8.5,31.6c5.1,8.4,12.2,21.1,23.4,22c14.9,1.1,5.3-19.8,2.5-26c-6.5-14.7-15.5-28.2-26.4-40
			c-0.1,0.6-0.2,1.2-0.2,1.8c74-33.9,90.1-129.8,163.1-164.7c9.1-4.4,18.8-7.5,28.9-9c4.9-0.7,9.8-1,14.7-0.8
			c2.8,0.1,5.6,0.4,8.4,0.8c2.7,0.4,5,0.1,5.3,3.1c0.6,5.5-1.2,12.5-2,17.9c-0.8,5.7-1.9,11.4-3,17.1c-2.3,11.4-5,22.6-7.7,33.9
			c-5.1,20.9-10.6,41.2-24.7,58c-13.1,15.6-30.2,27.9-47.5,38.4c-20,12.2-41.6,22-64,28.8c-15.8,4.8-35.9,8.3-43.9,24.8
			"/>
	</g>
</g>
<g>
	<g>
		<linearGradient id="SVGID_20_" gradientUnits="userSpaceOnUse" x1="1359.7766" y1="138.2513" x2="1754.3016" y2="138.2513">
			<stop  offset="0" style="stop-color:#FFF41B"/>
			<stop  offset="0.5232" style="stop-color:#F43BE9"/>
			<stop  offset="0.5907" style="stop-color:#EA3BEC"/>
			<stop  offset="0.9988" style="stop-color:#B43EFF"/>
		</linearGradient>
		<path class="st19" d="M1393.4,120.7c6-15.5,12.3-30.9,18.9-46.2c3.2-7.5,6.5-15.1,10-22.5c3.2-6.8,7-12.3,15-13.3
			c4.7-0.6,10.2-0.2,14.2-3.2c4.8-3.6,4.5-10.8,9.8-13.8c3.7-2.1,8.8-1.7,13-2c4.6-0.3,9.2-0.7,13.8-1c7.6-0.6,15.4-1.7,23-1.6
			c2.8,0,6.2,0.4,8.6,2c3.8,2.5,1.7,5.5,2.6,9.1c1.1,4.6,8.2,3.7,11.7,3.8c16.8,0.9,33.5,1.8,50.3,2.7c6.5,0.3,24.4,4.2,26.4-5.9
			c0.3-1.3-0.3-2.7-0.1-4c0.7-3.7,4-4.5,7.2-4.9c4.2-0.5,8.4-1,12.6-1.4c8.4-0.8,16.8-1.2,25.2-1.3c1.8,0,3.5-0.1,5.3,0
			c4.2,0.2,6.1,1.8,7.2,6.2c0.6,2.4,0.3,4.5,1.7,6.8c2.5,4.3,7.1,6.7,11.7,8.1c7.2,2.3,14.3,3.2,19.8,8.8c4.7,4.7,7.6,10.9,9.8,17
			c5.3,14.5,8.9,29.7,13.2,44.5c1.1,3.8,2.2,7.6,3.3,11.4c0.5,1.8,1.4,3.8,1.7,5.7c0.3,2.6-0.7,3.3-2.6,4.9
			c-5,4.5-9.5,9.5-13.7,14.8c-8.3,10.6-15.1,22.2-21.1,34.3c-3.1,6.1-5.9,12.3-8.7,18.6c-1.9,4.3-2.9,7.7-8.2,8.7
			c-3.9,0.8-8.6,0.2-12.6,0.4c-33.5,0.9-66.9,1.8-100.4,2.8c-16.5,0.5-33.1,0.9-49.6,1.4c-8.6,0.2-17.2,0.5-25.8,0.7
			c-7.9,0.2-16,1-23.9,0.6c-8.8-0.5-13.3-11.5-17.8-18c-4.4-6.3-8.9-12.5-13.4-18.7c-9-12.1-18.5-24-28.3-35.5
			c-5-5.8-10.1-11.6-15.2-17.2c-0.6-0.7-1.6-0.3-1.9,0.5c-5.1,14.7-10.2,29.3-15.3,44c-4.5,12.8-9,25.7-10.8,39.2
			c-2.6,19.3,2.6,55.2,30.2,47.3c12.7-3.7,24.8-12.3,35.4-20c11.8-8.5,22-18.4,36.7-21.5c15-3.2,31.1-2.9,46.4-3.5
			c15.9-0.6,31.8-1,47.6-1.1c31.8-0.2,63.6,0.7,95.3,2.7c4,0.3,7.9,0.5,11.9,0.8c4,0.3,8.7,0.1,12.4,1.5c6.5,2.4,11,11,15.2,16.1
			c4.7,5.7,9.6,11.2,14.7,16.6c4.3,4.5,8.7,9.7,14,13.2c9,6,18.9,2.2,25.3-5.6c7.7-9.2,9.9-22.2,10-33.9c0.1-13.9-2.6-27.9-5.7-41.4
			c-3.3-14.2-7.8-28.2-13.4-41.6c-5.3-12.8-12.2-25.4-22.6-34.9c-11.5-10.5-26-16.9-37.1-28c-5.3-5.3-9.1-11.6-13.9-17.1
			c-3.8-4.3-7.8-2.3-12.1,0.1c-15.7,8.8-31.3,17.8-46.9,26.7c-0.5,0.3-0.8,1-0.4,1.5c5.9,8.4,12.3,16.5,19.2,24.2
			c3.6,4,7.3,7.9,11.1,11.7c2.9,2.8,6.3,7.6,10.3,8.8c2.5,0.8,4.6-0.5,6.4-2.1c4.3-3.6,8.4-7.7,12.5-11.6
			c8.7-8.1,17.5-16.1,26.2-24.2c-0.5-0.5-1.1-1.1-1.6-1.6c-7.6,7.8-15.1,15.5-23.5,22.4c-8.7,7.2-18.2,12.6-28.5,17.2
			c-13.5,6-31.5,16.5-27.2,34.5c4,16.2,28.7,15.1,39.3,6.6c11.6-9.3,5.9-27.7-7-32.6c-20.7-7.8-36.9,12.1-41.5,30
			c0.5-0.3,0.9-0.5,1.4-0.8c-34.4-6.1-69.4-6.9-104-2.4c0.4,0.4,0.8,0.8,1.1,1.1c0.6-13.2,1.2-26.3,1.8-39.5c-0.8,0-1.5,0-2.2,0
			c1.2,18.7,2.3,37.4,3.5,56.1c0.7-0.2,1.4-0.4,2.1-0.6c-9-11.8-20-21.6-32.7-29.3c-0.2,0.7-0.4,1.4-0.6,2.1
			c17.6,0.8,35.2,2.6,52.6,5.3c0.1-0.7,0.2-1.5,0.3-2.2c-7.5,0.6-14.9,1.2-22.4,1.8c0.4,0.4,0.8,0.8,1.1,1.1
			c0.5-8.8,1-17.6,1.5-26.3c0.3-5.6,1.4-11.4-4.5-14.3c-6.4-3.1-14.2-3.6-20.9-5.8c-8-2.6-15.8-6.8-20.2-14.3
			c-10-17,9.1-32,23.6-36.5c8.2-2.6,17.5-2.5,24.5,3.1c6.7,5.4,8.4,14.2,3.4,21.4c-12.6,18.1-35.9,7.5-50.6-1.3
			"/>
	</g>
</g>
<g>
	<g>
		<linearGradient id="SVGID_19_" gradientUnits="userSpaceOnUse" x1="1265.7518" y1="1344.3942" x2="1734.8097" y2="1344.3942">
			<stop  offset="2.929688e-02" style="stop-color:#E2436A"/>
			<stop  offset="0.3605" style="stop-color:#E72279"/>
			<stop  offset="0.7561" style="stop-color:#C837E8"/>
			<stop  offset="0.8807" style="stop-color:#8A1DE6"/>
			<stop  offset="0.9988" style="stop-color:#5307E4"/>
		</linearGradient>
		<path class="st18" d="M1392.4,1186.2c-60.5,9.8-109.4,60.2-123,119.1c-15.4,66.5,10.7,136.9,59,183.6
			c23.6,22.8,51.9,40.3,82.3,52.4c34,13.6,72.1,22.1,108.8,16.7c19.6-2.9,38.4-9.5,56.6-17.1c15.3-6.4,30.3-13.4,44.8-21.4
			c28-15.4,54.5-34.5,75.1-59.2c22.2-26.6,34.4-58.3,38.1-92.6c2.1-19.4,2.1-39.1,0.6-58.5c-1.4-18.8-4.7-37.7-11.3-55.4
			c-21.7-58.1-77.6-94-134.7-111.5c-29.3-9-60.7-14.8-91.5-12.7c-28,1.9-57.5,11.2-75.2,34.3c-3.8,5-7.5,11.9-4.3,18.2
			c3.2,6.3,11.8,9.9,18.1,12.3c7.9,3.1,16.4,4.7,24.8,4.7c6.6,0,13.7-0.4,18.8-5c8.5-7.7-1.4-16.7-10.2-12.1
			c-11.6,6-7.4,19.7,2.2,25.2c2.9,1.7,6.2,2.7,9.5,3.2c4.9,0.7,11.3,0.8,11.9,7.3c0.9,11.2-12.6,13.5-20.7,15
			c-15.2,2.8-26.9,11.5-36.5,23.3c-4.8,5.9-8.9,12.3-12.9,18.8c-3.9,6.5-8,13.1-10,20.4c-1.7,6-1.9,12.8,2.1,18
			c4.6,5.9,13.4,7.7,20.4,9c16.4,3.1,33.7,1.4,49.2-4.8c9.1-3.7,29.8-12.9,22.8-26.1c-5.4-10.1-19.5-10.4-25-0.4
			c-6.1,11.2,0.7,23.8,11.9,28c14.4,5.4,28.7-2.1,39.6-11.3c-0.5,0-1.1,0-1.6,0c5,4.2,1.4,10.7-3.1,13.2c-4,2.3-8.8,3.1-13.2,4.3
			c-8.8,2.4-17.7,4.7-26.5,7.1c-9.2,2.4-18.3,4.9-27.5,7.3c-6.5,1.7-13.3,3.4-17.9,8.6c-5.2,5.8-7.9,14.1-11.1,21.1
			c-4,8.7-7.9,17.4-11.9,26.1c-2.5,5.6-5.2,11.2-3.3,17.4c1.7,5.7,6.4,10.3,11.5,13c6.4,3.4,13.8,4.1,20.9,4.7
			c8.6,0.7,17.1,1.6,25.6,3.6c15.8,3.6,30.9,9.9,44.7,18.4c7,4.3,13.6,9.2,19.7,14.6c5.3,4.7,10.1,9.9,16.1,13.7
			c9.3,5.9,20.4,5.9,28.8-1.4c27.6-23.9,2.8-62.6,11.7-91.9c-0.6,0.2-1.3,0.3-1.9,0.5c4.7,4.5,11,10.6,9.7,17.9
			c-0.7,3.7-3.5,7.8-7.6,8c-4.5,0.1-8-4.6-9.9-8.1c-6.1-11.6-1.9-25.6,2.2-37.1c4-11.4,8.4-23,6.1-35.3c-1.2-6.3-4.2-12.7-3.6-19.2
			c0.7-8.2,8.1-12.2,15.6-11.7c13.3,0.9,21,14,28.9,23.1c7.8,8.9,16.9,17.7,27,24.1c8.2,5.2,17.2,4.7,22.5-4
			c6.6-10.8,1.6-23.5,5.2-35c6.1-19.4,33.6-21.8,38.3-42.2c0.3-1.4-1.8-2-2.2-0.6"/>
	</g>
</g>
<g>
	<g>
		<linearGradient id="SVGID_18_" gradientUnits="userSpaceOnUse" x1="1189.4491" y1="1481.741" x2="1216.6732" y2="1481.741">
			<stop  offset="0" style="stop-color:#E77AEB"/>
			<stop  offset="0.3605" style="stop-color:#EACDA6"/>
			<stop  offset="0.7561" style="stop-color:#ECDFF1"/>
			<stop  offset="0.8363" style="stop-color:#F3C2E9"/>
			<stop  offset="0.9988" style="stop-color:#FF8CD9"/>
		</linearGradient>
		<path class="st17" d="M1202.7,1516.1c0.3-13.1-6.2-24.5-9.7-36.8c-3.3-11.5-3.1-29.4,11.1-33.7c17.3-5.1,9.5,25.6,7.9,33.4
			c-2.8,13.7-7.1,27.1-12.7,39.9c-0.6,1.3,1.4,2.5,1.9,1.1"/>
	</g>
</g>
<g>
	<g>
		<linearGradient id="SVGID_17_" gradientUnits="userSpaceOnUse" x1="1206.3414" y1="1538.0792" x2="1299.8969" y2="1538.0792">
			<stop  offset="0" style="stop-color:#E77AEB"/>
			<stop  offset="0.3605" style="stop-color:#EACDA6"/>
			<stop  offset="0.7561" style="stop-color:#ECDFF1"/>
			<stop  offset="0.8363" style="stop-color:#F3C2E9"/>
			<stop  offset="0.9988" style="stop-color:#FF8CD9"/>
		</linearGradient>
		<path class="st16" d="M1207.4,1578.4c23.2-16,30.6-44.8,49.3-64.7c5.5-5.9,12.3-11.6,20.3-13.5c10.6-2.5,19.2,4.9,21.1,15.2
			c3.4,19.2-13.6,33.3-29,40.6c-19.6,9.3-41.2,14.8-62.7,17.6c-1.4,0.2-1.4,2.4,0,2.2"/>
	</g>
</g>
<g>
	<g>
		<linearGradient id="SVGID_16_" gradientUnits="userSpaceOnUse" x1="831.2852" y1="1522.8365" x2="1173.6592" y2="1522.8365">
			<stop  offset="0" style="stop-color:#5900FF"/>
			<stop  offset="0.3605" style="stop-color:#00EDFF"/>
			<stop  offset="0.5751" style="stop-color:#8DEFCF"/>
			<stop  offset="0.7561" style="stop-color:#FFF1A7"/>
			<stop  offset="0.7594" style="stop-color:#FFEEA5"/>
			<stop  offset="0.926" style="stop-color:#EB652F"/>
			<stop  offset="0.9988" style="stop-color:#E32E00"/>
		</linearGradient>
		<path class="st15" d="M969.7,1408.4c17.3-6.5,34.9-12,52.8-16.4c8.8-2.2,17.7-4.1,26.6-5.7c4.3-0.8,8.6-1.5,12.9-2.2
			c2.4-0.4,4.8-0.7,7.3-1c1.9-0.3,6.9-1.8,8.4-0.2c0.8,0.8,0.8,4.3,1,5.4c0.5,2.4,0.9,4.8,1.4,7.2c0.9,4.5,1.9,9,3,13.4
			c2.1,8.6,4.7,17.1,7.9,25.3c5.4,13.8,13,26.5,21.6,38.5c16.4,22.9,36.2,43.8,48.9,69.2c3.1,6.3,5.8,12.8,7.6,19.6
			c0.9,3.1,1.5,6.3,2,9.5c0.3,2,0.6,4,0.7,6c0.3,3.4-0.2,3.6-3.6,4.6c-18.2,5.5-36.4,10.9-54.7,16.3c-74,21.5-148.5,41.4-223.4,59.6
			c-8.7,2.1-17.6,4.8-26.5,6c-4.2,0.6-8.5,0.6-12.4-1.2c-4.7-2.2-7.3-6.7-9.4-11.2c-6.8-14.9-7.2-32.5-1.9-47.9
			c10.3-29.8,40.1-43.1,67.8-52.5c13.5-4.6,27.3-8.5,40.5-14.1c12.7-5.4,25.1-13.1,30.7-26.3c6.3-14.9,6.2-33.5,5.4-49.4
			c-0.4-8.8-1.4-17.6-3-26.3c-1.2-6.4-1.8-14.8-6.1-20c-2.4-2.9-5.8-4.8-9-2c-0.4,0.4-0.4,1.2,0,1.6c9.2,8,18.4,16,27.7,24
			c0.2-0.6,0.3-1.3,0.5-1.9c-9.6,2.5-19.3,4.9-28.9,7.4c-0.9,0.2-1.1,1.6-0.3,2.1c10.7,5.8,21.5,11.5,32.2,17.3
			c0.2-0.7,0.4-1.4,0.6-2.1c-8,0.5-16.1,1-24.1,1.5c-0.8,0-1.5,0.9-1,1.7c6.9,10.8,15.4,20.4,25.2,28.6c0.1-0.6,0.2-1.2,0.2-1.8
			c-7.5,3.5-15.4,5.4-23.7,5.6c-0.8,0-1.5,1-1,1.7c5.2,7.9,10.3,15.7,15.5,23.6c0.2-0.6,0.4-1.1,0.7-1.7
			c-32.5,9.4-65.4,19-95.5,34.8c-25.3,13.3-55.5,33.1-62.5,62.8c-2.5,10.6-1.6,25.9,13,24.4c7.8-0.8,15.6-4.5,23-7
			c9.2-3.1,18.4-6.1,27.7-9.1c36.6-11.8,73.5-22.9,110.6-33.3c36.8-10.3,73.7-19.8,110.9-28.6c11.7-2.8,31-4.4,27.6-21.1
			c-1.4-7-5.7-13-10-18.5c-4.5-6-9.4-11.9-14.9-17c-9.6-9.1-21.7-16.3-35.2-16.7c-11.4-0.3-23.6,3.8-30.7,13.1
			c-7.4,9.7-6.7,22.9-0.6,33.1c7,11.8,19.8,17.9,33.2,18.7c12,0.7,31.4-1.8,37.2-14.2c5.8-12.3-4.2-27.2-11.5-36.5
			c-7.5-9.5-19.1-17.6-31.4-12.2c-10.5,4.5-11.7,16.3-5,24.7c4.2,5.3,10.1,9.1,16,12.3c1.3,0.7,2.4-1.2,1.1-1.9
			"/>
	</g>
</g>
<g>
	<g>
		<linearGradient id="SVGID_15_" gradientUnits="userSpaceOnUse" x1="47.0265" y1="1434.9023" x2="140.7572" y2="1434.9023">
			<stop  offset="0" style="stop-color:#DAECFD"/>
			<stop  offset="0.3605" style="stop-color:#FBFBF9"/>
			<stop  offset="0.7561" style="stop-color:#FEFDC6"/>
			<stop  offset="0.9988" style="stop-color:#FFD3B8"/>
		</linearGradient>
		<path class="st14" d="M46.3,1371.9c8.7,22.1,21.5,42.4,37.9,59.5c17.4,18.1,39,31.6,54.9,51.2c0.4-0.6,0.7-1.3,1.1-1.9
			c-27.6-4.8-54.8-11.6-81.4-20.4c0,0.7,0,1.4,0,2.2c27.6-10.9,53.5-25.7,76.9-44c-0.6-0.3-1.3-0.5-1.9-0.8
			c-0.4,26.9-0.9,53.7-1.3,80.6c0,1.4,2.2,1.4,2.2,0"/>
	</g>
</g>
<g>
	<g>
		<linearGradient id="SVGID_14_" gradientUnits="userSpaceOnUse" x1="978.2043" y1="485.8791" x2="1182.7831" y2="485.8791">
			<stop  offset="0" style="stop-color:#DAECFD"/>
			<stop  offset="0.3605" style="stop-color:#FBFBF9"/>
			<stop  offset="0.7561" style="stop-color:#FEFDC6"/>
			<stop  offset="0.9988" style="stop-color:#FFD3B8"/>
		</linearGradient>
		<path class="st13" d="M979.7,367.5c-3.3,55.6-3,111.4,0.8,166.9c1.9,27.5,4.6,54.8,8.2,82.1c1.2,9.1,2.4,18.5,13.1,20.3
			c13,2.1,26.8,2.1,39.9,3c27.9,2,55.7,4,83.6,6.1c6.6,0.5,13.3,1,19.9,1.4c6,0.4,12.4,1.4,18.4,0.6c8.6-1.2,14.1-7.1,16.5-15.2
			c3.1-10.3,2-21.8,2.1-32.5c0.1-14.3,0.1-28.7,0.2-43c0.1-28,0.3-56,0.4-84c0.1-28,0.3-56,0.4-84c0.1-14.7,0.1-29.3,0.2-44
			c0-9.4,0.5-18.2-10.6-20c-12.2-2-25.4-1.3-37.8-1.6c-13.8-0.3-27.5-0.4-41.3-0.3c-27.9,0.3-55.7,1.4-83.5,3.5
			c-7.9,0.6-17.4,1.8-20.2,10.5c-1.7,5.1-1.1,11.1-1.1,16.3c-0.1,7.2-0.1,14.3-0.1,21.5c0.1,27.4,1.2,54.7,3.1,82
			c1.9,27.3,4.7,54.6,8.4,81.8c1.8,13.6,3.9,27.2,6.2,40.7c1.5,8.8,1.9,19.9,11.6,23.5c4.5,1.7,9.6,1.7,14.3,2
			c7.1,0.5,14.3,0.9,21.4,1.4c12.8,0.8,26.2,2.8,39,2.3c21.3-0.9,16.9-25.6,4.1-35.2c-6.5-4.9-15.6-7-23.1-3
			c-6.2,3.3-10.7,10.3-10.8,17.4c-0.2,7.9,5.4,13.6,12.5,16.2c10.5,3.9,23,3.4,34,4.3c13.5,1.2,27,2.3,40.5,3.5
			c0.6,0.1,1.1-0.6,1.1-1.1c2.5-47.7,5-95.4,7.5-143.2c1.2-23.5,2.5-47.1,3.7-70.6c0.5-9.6,2.5-20.5,0.2-30
			c-1.9-7.9-8-12.1-15.6-13.9c-22.3-5.3-47-2.6-68.4,4.9c-0.6,0.2-0.9,0.7-0.8,1.4c1,7.1,11.4,6.9,14.9,1.8
			c2.3-3.4,1.2-8.1-1.1-11.1c-3.8-5-9.9-6.6-15.9-6.1c-7.7,0.7-15.1,4.2-22.6,6c-9.2,2.2-18.6,3.2-28,3.2c-6.6,0-13.5-1.1-19.6,2
			c-4.2,2.1-7.1,5.7-9,9.9c-5,11.6-3.5,24.9-8.2,36.6"/>
	</g>
</g>
<g>
	<g>
		<linearGradient id="SVGID_13_" gradientUnits="userSpaceOnUse" x1="44.2603" y1="1577.4296" x2="378.8077" y2="1577.4296">
			<stop  offset="0" style="stop-color:#92E1FF"/>
			<stop  offset="0.3605" style="stop-color:#F4B8FF"/>
			<stop  offset="0.7561" style="stop-color:#F1F3FF"/>
			<stop  offset="0.7808" style="stop-color:#ECECFF"/>
			<stop  offset="0.9988" style="stop-color:#C5B6FF"/>
		</linearGradient>
		<path class="st12" d="M56.8,1620.1c-9.9-5.7-14.2-19.4-8.4-29.5c5.8-10.2,20.1-12.9,29.8-7.2c0.8,0.5,2-0.3,1.7-1.3
			c-8.4-26.4,1.2-57.7,25.8-71.8c24.3-13.9,56.7-8.6,72.5,15.3c8.2,12.4,11.1,27.8,7.2,42.2c-0.3,1,0.8,1.7,1.7,1.3
			c18.5-9.4,40.5-20.1,61.3-10.8c8.3,3.7,14.8,10.5,16.5,19.6c1.6,9-1.5,18.7-9.6,23.4c-1.1,0.6-0.4,2.4,0.9,2.1
			c8.5-2.4,17.8-5.2,26.7-3.1c7.6,1.8,14.5,7.5,15.3,15.7c0.1,0.8,0.7,1.2,1.4,1.1c13.8-2.1,27.8-2.9,41.8-2.2
			c6,0.3,39.1,0.4,35.9,12.2c-1.6,5.8-12.8,5.9-17.4,6.6c-7.1,1.1-14.3,2.2-21.4,3.2c-14.2,2-28.4,3.8-42.6,5.4
			c-27.4,3.1-54.8,5.5-82.3,7.1c-25.3,1.5-51.1,3.5-76.5,2.2c-12.4-0.6-24.9-2.3-36.5-6.7c-9.8-3.7-33.9-15.5-26.5-29.4"/>
	</g>
</g>
<g>
	<g>
		<linearGradient id="SVGID_12_" gradientUnits="userSpaceOnUse" x1="324.6261" y1="1522.8728" x2="461.1226" y2="1522.8728">
			<stop  offset="0" style="stop-color:#DAECFD"/>
			<stop  offset="0.3605" style="stop-color:#FBFBF9"/>
			<stop  offset="0.7561" style="stop-color:#FEFDC6"/>
			<stop  offset="0.9988" style="stop-color:#FFD3B8"/>
		</linearGradient>
		<path class="st11" d="M328.1,1567.7c18.5-11.4,29.5-30.6,38.7-49.7c11.2-23.5,20.6-47.8,28.1-72.7c-0.6,0.2-1.3,0.3-1.9,0.5
			c16.8,18.4,30.8,45.6,15.9,69.4c-0.5,0.8,0.2,1.6,1,1.7c9.9,0.7,19.5,3.6,28.1,8.8c8.6,5.2,19,13.7,21.2,24
			c3.2,14.5-12.3,20.3-23.9,20.1c-9.7-0.2-22.4-0.5-29.8-7.7c-0.8-0.8-2.1,0-1.9,1.1c1.9,7.7,8.2,12.7,12.5,19c2.7,4.1,4,8.9,0.6,13
			c-4.5,5.5-12.3,4.8-18.4,3c-12.1-3.6-23.9-8.8-35.7-13.2c-12.5-4.7-25-9.3-37.5-14c-1.4-0.5-1.9,1.7-0.6,2.2
			"/>
	</g>
</g>
<g>
	<g>
		<linearGradient id="SVGID_11_" gradientUnits="userSpaceOnUse" x1="451.9537" y1="663.441" x2="698.5247" y2="663.441">
			<stop  offset="0" style="stop-color:#00FFAD"/>
			<stop  offset="0.2358" style="stop-color:#3FC0A5"/>
			<stop  offset="0.7664" style="stop-color:#C83794"/>
			<stop  offset="0.9988" style="stop-color:#FF008D"/>
		</linearGradient>
		<path class="st10" d="M458.8,595.1c-1.6,26.8-3.1,53.5-4.7,80.3c-0.8,13.5-1.6,27.1-2.4,40.6c-0.5,7.9-2.9,19.5,5.6,24.1
			c4.2,2.3,9.8,2.9,14.4,3.9c6.6,1.5,13.2,3,19.9,4.3c12.7,2.6,25.4,5.1,38.1,7.2c24.9,4.3,50,7.7,75.2,10.3
			c13.2,1.3,26.4,2.4,39.6,3.3c8.5,0.6,18.6,1.5,25.8-4.2c3.3-2.6,5.2-6.3,6.7-10.2c2.4-6.3,4.3-12.9,6.1-19.4
			c3.5-12.2,6.5-24.5,8.8-37c4.5-23.6,7.7-48.2,7.2-72.2c-0.2-8.3-1.4-17.2-6.6-24c-5.6-7.3-14.7-9.7-23.5-10.3
			c-14.3-0.9-41.8,2.5-40.1,22.6c0.7,8.8,8.3,15.7,16.3,18.4c12,4,25.1-1,36.2-5.4c0.7-0.3,1-0.9,0.7-1.7
			c-5.1-10.5-19.2-11.6-28.5-6.3c-6.1,3.5-10.7,9.2-14.5,15c-4,6.1-9.3,13.5-9.8,21.1c-0.8,12.5,12.3,18.4,22.5,20.7
			c9.5,2.1,27.5,4,25.3-11c-2-13.9-17.2-14.8-27.6-10c-12.7,6-24,19-25,33.4c-0.9,11.8,7,22.6,18.5,25.6c8.6,2.2,24.1-3.4,20.3-15
			c-2-6.1-10-6.8-15.3-5.9c-7,1.2-13.3,5.6-17.3,11.4c-9.6,13.9-3.5,32.2,8,42.8c0.3-0.6,0.5-1.3,0.8-1.9c-17-0.5-34-1.2-50.9-2.2
			c-15.9-1-33.2-0.7-48.6-5.2c-27.3-8-35.2-42.2-34.4-67.4c0.4-11.9,3.4-24.9,13-32.9c10.1-8.5,24.7-8,35.2-0.6
			c24.3,17,5.5,57.2-23,50.6c-13.8-3.2-23-14.7-23.9-28.5c-0.7-10,1.2-22.5-6.9-30.1c-4.7-4.4-11.4-5.4-17-8.2
			c-6.3-3.2-11.4-8.5-14.6-14.7c-1.4-2.6-3.6-6.8-3.4-9.9c0.2-3.3,8.1-3.7,10.8-4.2c8.8-1.8,17.8-2.9,26.8-3.6
			c8-0.5,16.2-0.9,24.2-0.3c8.6,0.7,13.9,6.2,11.9,15c-3.9,17-26.8,14.4-39.5,11.6c-14.6-3.1-31.7-8.8-40.4-22
			c-4.5-6.8-4.9-15.5,1.2-21.5c4.4-4.4,10.8-6.2,16.7-7.2c15.7-2.6,32.1-2.4,48-3.3c8.2-0.5,16.5-1.4,24.7-1.4
			c9.7-0.1,8.7,7.8,8.5,14.8c-0.1,3.7,0.1,7.9,3.1,10.5c4.7,4.1,13.7,2.7,19.4,2.9c17,0.4,34.1,0.9,51.1,1.3
			c8.5,0.2,17,0.4,25.6,0.7c1.4,0,1.4-2.2,0-2.2
			"/>
	</g>
</g>
<g>
	<g>
		<linearGradient id="SVGID_10_" gradientUnits="userSpaceOnUse" x1="170.0384" y1="1243.2831" x2="326.4225" y2="1243.2831">
			<stop  offset="0" style="stop-color:#E77AEB"/>
			<stop  offset="0.3605" style="stop-color:#EACDA6"/>
			<stop  offset="0.7561" style="stop-color:#ECDFF1"/>
			<stop  offset="0.8363" style="stop-color:#F3C2E9"/>
			<stop  offset="0.9988" style="stop-color:#FF8CD9"/>
		</linearGradient>
		<path class="st9" d="M180.4,1271.1c20.5-3.5,42.2,2.6,58,16.2c7.2,6.2,18.2,16.9,15.1,27.4c-3.7,12.4-18.6,15.2-29.3,11.2
			c-10.5-3.9-19.2-12.3-26.4-20.5c-6.8-7.8-12.5-16.7-16.9-26.1c-8.9-19.2-12.2-41.3-7-62c9.5-37.9,50.7-67.6,89.7-56.1
			c43.8,12.8,67.3,63.8,59.7,106.7c-1.9,10.7-9,27-22.8,21.5c-15.3-6.1-13.4-25.1-11-38.1c3.9-21.2,9.1-46.1,28.9-58.3
			c1.2-0.8,0.1-2.7-1.1-1.9"/>
	</g>
</g>
<g>
	<g>
		<linearGradient id="SVGID_9_" gradientUnits="userSpaceOnUse" x1="512.3971" y1="1501.5374" x2="822.5183" y2="1501.5374">
			<stop  offset="2.929688e-02" style="stop-color:#E2436A"/>
			<stop  offset="0.3605" style="stop-color:#E72279"/>
			<stop  offset="0.7561" style="stop-color:#C837E8"/>
			<stop  offset="0.8807" style="stop-color:#8A1DE6"/>
			<stop  offset="0.9988" style="stop-color:#5307E4"/>
		</linearGradient>
		<path class="st8" d="M648.9,1450.2c-43.5-19.5-89-34.4-135.7-44.2c-0.9-0.2-1.5,0.5-1.4,1.4c4.7,34.9,9.4,69.7,14.1,104.6
			c2.4,17.4,4.7,34.9,7.1,52.3c1.2,8.9,2.4,17.8,3.6,26.6c0.8,6,0.6,14.2,4.3,19.3c3.4,4.6,9.3,4.1,14.4,4.1c8,0.1,16,0.4,24,1.1
			c16.8,1.4,33.5,4.3,49.9,8.4c15.9,4,30.8,10.1,46.2,15.5c6.6,2.3,12,1.3,18.2-1.7c7.7-3.7,15.2-7.7,22.8-11.6
			c35.4-18.1,70.8-36.1,106.3-54.2c0.3-0.2,0.6-0.6,0.6-1c-7.1-67.3-14.1-134.6-21.2-201.9c-0.1-0.9-0.9-1.3-1.7-1
			c-48,21.5-94.5,46.4-139.1,74.4c0.5,0.6,0.9,1.2,1.4,1.8c35.3-31.8,72.2-61.8,110.5-90c-0.6-0.2-1.1-0.4-1.7-0.7
			c8.9,47.6,15.4,95.5,19.5,143.8c1,12,1.9,24,2.6,36c0.3,5.5,0.6,11,0.9,16.6c0.1,2.9,0.3,5.9,0.4,8.8c0.2,3.8,0.9,6.3-2.3,8.7
			c-8.9,6.4-19.2,11.4-28.4,17.3c-9.6,6.1-19.1,12.4-28.5,18.9c-20.6,14.3-40.7,29.4-60.1,45.3c0.6,0.2,1.3,0.3,1.9,0.5
			c-6.1-45.1-12.7-90.1-20-135c-3.6-22.1-7.3-44.2-11.1-66.3c-1.6-8.9-2.1-19.6-7.8-27.1c-5.1-6.7-13.9-10.5-20.9-14.5
			c-21.2-12-43-22.9-65.3-32.6c-0.8-0.3-1.6,0.1-1.7,1c-2.5,46.9-2.3,93.9,0.7,140.8c0.7,11.9,1.7,23.7,2.8,35.6
			c0.8,8.2,0.7,17.9,4.7,25.4c4,7.3,11.7,9.4,19.2,11.5c10.6,3.1,21.1,6.6,31.5,10.4c23.6,8.7,46.4,19.4,68.3,31.7
			c0.7,0.4,1.7-0.1,1.7-1c-1.3-37.7-2.6-75.3-3.9-113c-0.6-18.5-1.3-37-1.9-55.5c-0.3-9.6-0.7-19.2-1-28.7
			c-0.3-8.7-2.3-19.5,1.3-27.7c2-4.6,5.9-7.9,9.5-11.2c3.8-3.4,7.6-6.9,11.4-10.3c7.9-7.1,15.7-14.2,23.6-21.3
			c-0.6-0.2-1.3-0.3-1.9-0.5c6,42.5,12,85,18.1,127.5c1.5,10.5,3,20.9,4.4,31.4c0.7,4.9,1.4,9.8,2.1,14.7c0.9,6.6,4.1,15.7-2.4,20.4
			c-3.2,2.3-7.1,3.8-10.6,5.7c-3.6,2-7,4.1-10.4,6.4c-6.5,4.5-12.7,9.7-18.3,15.4c-12.5,12.7-22,27.9-28.2,44.6c0.7,0,1.4,0,2.2,0
			c-10.2-28.4-30-52.9-55.7-68.7c-1.5-0.9-3.1-1.8-4.6-2.7c-1.5-0.8-4.3-1.6-5.4-2.8c-1.5-1.7-1-4.5-1.1-6.6c-0.1-3-0.3-5.9-0.4-8.9
			c-0.5-10.2-1-20.5-1.6-30.7c-1.2-20.1-2.7-40.2-4.5-60.3c-2-23-4.5-46-7.2-69c-0.5,0.4-0.9,0.7-1.4,1.1
			c10.2,2.6,20.5,5.3,30.7,7.9c4.9,1.3,10.6,2,14.8,4.9c4.4,3,5.6,8.4,6.5,13.4c3.6,21,6.5,42.1,9.8,63.1c0.2,1.4,2.4,0.8,2.2-0.6
			"/>
	</g>
</g>
<g>
	<g>
		<linearGradient id="SVGID_8_" gradientUnits="userSpaceOnUse" x1="55.64" y1="572.168" x2="223.5303" y2="572.168">
			<stop  offset="0" style="stop-color:#92E1FF"/>
			<stop  offset="0.3605" style="stop-color:#F4B8FF"/>
			<stop  offset="0.7561" style="stop-color:#F1F3FF"/>
			<stop  offset="0.7808" style="stop-color:#ECECFF"/>
			<stop  offset="0.9988" style="stop-color:#C5B6FF"/>
		</linearGradient>
		<path class="st7" d="M167.8,661.5c-8.4-6.7-4.5-20.2-1.9-28.9c2.9-9.8,7.3-19,13-27.5c5.5-8.2,12.3-15.6,20.1-21.8
			c4-3.2,9-7.4,14.4-7.8c9.6-0.7,8.2,9.3,6.2,15.3c-7,21-18.8,40.9-33.1,57.8c-3.3,3.9-6.7,7.6-10.3,11.2c-5.5,5.5-10.3,8.8-18.4,7
			c-11-2.5-22-7.4-32.2-12.3c-5.6-2.7-11.2-5.7-16.5-8.8c-5-3-11.5-6.1-15-10.9c-5.1-7.2,3.7-14.5,8-19.8c4.6-5.7,9.2-11.3,13.7-17
			c0.6-0.8,0.2-1.8-0.8-1.9c-22.1-1.7-42.7-11.6-57.8-27.7c-0.3,0.6-0.5,1.3-0.8,1.9c13.7,0.3,27.3,1.8,40.7,4.6
			c0.9,0.2,1.8-0.8,1.3-1.7C79.6,543.4,60,511.9,58,475.8c-0.6,0.3-1.3,0.5-1.9,0.8c22.5,19.6,45,39.2,67.6,58.8
			c1,0.9,2.3-0.2,1.8-1.4c-8-17-8.8-36.2-2.4-53.9c-0.6,0.2-1.3,0.3-1.9,0.5c21.4,23.5,29.2,57.4,20.2,87.9
			c-0.4,1.4,1.6,1.9,2.2,0.6c4.4-10.4,9.8-20.4,16.3-29.7c2.1-3,7.4-12.8,11-11.7c2.3,0.7,5.1,3.7,6.9,5.2c2.1,1.7,4.2,3.4,6.3,5.2
			c15.9,13.9,28.9,30.8,38.4,49.6c0.7,1.3,2.6,0.2,1.9-1.1"/>
	</g>
</g>
<g>
	<g>
		<linearGradient id="SVGID_7_" gradientUnits="userSpaceOnUse" x1="1225.5115" y1="1017.377" x2="1317.2562" y2="1017.377">
			<stop  offset="0" style="stop-color:#92E1FF"/>
			<stop  offset="0.3605" style="stop-color:#F4B8FF"/>
			<stop  offset="0.7561" style="stop-color:#F1F3FF"/>
			<stop  offset="0.7808" style="stop-color:#ECECFF"/>
			<stop  offset="0.9988" style="stop-color:#C5B6FF"/>
		</linearGradient>
		<path class="st6" d="M1254.8,891.5c-0.1,76.8,3.9,153.7,11.9,230.1c0.7-0.2,1.4-0.4,2.1-0.6c-8.4-16.8-21-37.8-43-34.2
			c-0.7,0.1-1,1.1-0.7,1.7c12.2,19.8,26.2,38.4,41.9,55.6c0.5,0.6,1.4,0.4,1.8-0.2c16.2-25.5,32.3-50.9,48.5-76.4
			c0.5-0.8-0.3-2-1.3-1.7c-28.9,11.6-49.3,39.7-51.2,70.8c-0.1,1.4,2.2,1.4,2.2,0"/>
	</g>
</g>
<g>
	<g>
		<linearGradient id="SVGID_6_" gradientUnits="userSpaceOnUse" x1="1279.558" y1="765.7933" x2="1320.4966" y2="765.7933">
			<stop  offset="0" style="stop-color:#92E1FF"/>
			<stop  offset="0.3605" style="stop-color:#F4B8FF"/>
			<stop  offset="0.7561" style="stop-color:#F1F3FF"/>
			<stop  offset="0.7808" style="stop-color:#ECECFF"/>
			<stop  offset="0.9988" style="stop-color:#C5B6FF"/>
		</linearGradient>
		<path class="st5" d="M1291.8,654.9c-1-5.7,4.2-10.7,9.7-10.7c4.9,0,9.4,3.5,11.9,7.5c4.9,7.6,4.5,17.6,4.9,26.2
			c0.7,18,0.8,35.9,0.3,53.9c-0.9,36.3-3.2,73.3-9.4,109.2c-1.6,9.1-3.7,18.2-6.9,26.8c-1.6,4.4-3.4,8.9-5.9,12.8
			c-2.8,4.5-12.3,11.5-15.5,2.8c-0.5-1.4-2.7-0.8-2.2,0.6c2,5.7,8.9,7,13.8,4"/>
	</g>
</g>
<g>
	<g>
		<linearGradient id="SVGID_5_" gradientUnits="userSpaceOnUse" x1="1327.908" y1="725.2762" x2="1392.3962" y2="725.2762">
			<stop  offset="0" style="stop-color:#92E1FF"/>
			<stop  offset="0.3605" style="stop-color:#F4B8FF"/>
			<stop  offset="0.7561" style="stop-color:#F1F3FF"/>
			<stop  offset="0.7808" style="stop-color:#ECECFF"/>
			<stop  offset="0.9988" style="stop-color:#C5B6FF"/>
		</linearGradient>
		<path class="st4" d="M1329.4,629.6c1-12.3,5.4-24.2,12.8-34.1c3.4-4.6,7.9-9.7,12.9-12.6c8.9-5,13.4,2.9,16.5,10
			c10.6,23.9,14.4,50.2,16.2,76.1c1.9,26.2,2.9,52.5,3,78.8c0.2,27.7-1.4,55.6-7.6,82.6c-3.1,13.5-7.6,28.6-20.6,35.7
			c-6.3,3.4-14.1,4.5-20.5,0.7c-6.2-3.8-9.8-11.1-7.5-18.2c0.5-1.4-1.7-2-2.2-0.6"/>
	</g>
</g>
<g>
	<g>
		<linearGradient id="SVGID_4_" gradientUnits="userSpaceOnUse" x1="1040.8663" y1="837.5958" x2="1116.6414" y2="837.5958">
			<stop  offset="0" style="stop-color:#5900FF"/>
			<stop  offset="0.3605" style="stop-color:#00EDFF"/>
			<stop  offset="0.5751" style="stop-color:#8DEFCF"/>
			<stop  offset="0.7561" style="stop-color:#FFF1A7"/>
			<stop  offset="0.7594" style="stop-color:#FFEEA5"/>
			<stop  offset="0.926" style="stop-color:#EB652F"/>
			<stop  offset="0.9988" style="stop-color:#E32E00"/>
		</linearGradient>
		<path class="st3" d="M1114.7,810.4c2.6,3.1-10.5,4.6-12,4.8c-4,0.6-7.9,1.3-11.9,2.2c-7.4,1.7-14.6,3.9-21.5,7.1
			c-11.5,5.3-26.8,15.7-29,29.4c-2.5,15.7,17.8,14.2,27.2,10.3c15.4-6.5,24-21.5,29-36.7c0.5-1.4-1.7-2-2.2-0.6
			"/>
	</g>
</g>
<g>
	<g>
		<linearGradient id="SVGID_3_" gradientUnits="userSpaceOnUse" x1="1160.6903" y1="819.8148" x2="1217.7222" y2="819.8148">
			<stop  offset="0" style="stop-color:#5900FF"/>
			<stop  offset="0.3605" style="stop-color:#00EDFF"/>
			<stop  offset="0.5751" style="stop-color:#8DEFCF"/>
			<stop  offset="0.7561" style="stop-color:#FFF1A7"/>
			<stop  offset="0.7594" style="stop-color:#FFEEA5"/>
			<stop  offset="0.926" style="stop-color:#EB652F"/>
			<stop  offset="0.9988" style="stop-color:#E32E00"/>
		</linearGradient>
		<path class="st2" d="M1216.3,788.1c-2.7,7.9-14.8,10.1-21.5,13.4c-7.3,3.7-14.3,8.1-20.7,13.1c-9.2,7.2-20.9,22.2-10,33.4
			c9.7,10,26.6,0.8,34.8-6.5c10.5-9.3,16.8-22.6,17.4-36.6c0.1-1.4-2.2-1.4-2.2,0"/>
	</g>
</g>
<g>
	<g>
		<linearGradient id="SVGID_2_" gradientUnits="userSpaceOnUse" x1="951.9318" y1="858.9097" x2="1532.1232" y2="858.9097">
			<stop  offset="0" style="stop-color:#5900FF"/>
			<stop  offset="0.3605" style="stop-color:#DE009F"/>
			<stop  offset="0.5751" style="stop-color:#D48D9A"/>
			<stop  offset="0.7561" style="stop-color:#CBFF96"/>
			<stop  offset="0.7684" style="stop-color:#C0FD9B"/>
			<stop  offset="0.9287" style="stop-color:#37E3DB"/>
			<stop  offset="0.9988" style="stop-color:#00D9F5"/>
		</linearGradient>
		<path class="st1" d="M973.9,1274.1c-18.1-71.6-36.9-153.5,4.8-220.7c40.6-65.4,115.9-94.5,183.7-122.5
			c68.4-28.3,135.7-61.2,193.8-107.7c53.8-43.2,97.5-98.2,127.8-160.1c29.5-60.3,46.6-126.8,48.7-194c0.3-8.5,0.3-17,0.1-25.5
			c0-1.4-2.3-1.5-2.2,0"/>
	</g>
</g>
<g>
	<g>
		<linearGradient id="SVGID_1_" gradientUnits="userSpaceOnUse" x1="743.1907" y1="714.1688" x2="1500.6558" y2="714.1688">
			<stop  offset="0" style="stop-color:#5900FF"/>
			<stop  offset="0.3605" style="stop-color:#DE009F"/>
			<stop  offset="0.5751" style="stop-color:#D48D9A"/>
			<stop  offset="0.7561" style="stop-color:#CBFF96"/>
			<stop  offset="0.7684" style="stop-color:#C0FD9B"/>
			<stop  offset="0.9287" style="stop-color:#37E3DB"/>
			<stop  offset="0.9988" style="stop-color:#00D9F5"/>
		</linearGradient>
		<path class="st0" d="M772.3,1126.4c-45-66.2-31-155.8,13.4-218.3c48.5-68.1,125.8-108,202.6-135.6c43.4-15.6,87.9-28.1,131.8-42.2
			c39.3-12.7,78.2-26.9,115.9-44c73.9-33.6,144.4-79.5,194.6-144.4c46.6-60.3,76.3-136.8,70-213.8c-0.7-9.1-2-18.1-3.7-27
			c-0.3-1.4-2.4-0.8-2.2,0.6"/>
	</g>
</g>
</svg>
