<?xml version="1.0" encoding="utf-8"?>
<!-- Generator: Adobe Illustrator 22.0.1, SVG Export Plug-In . SVG Version: 6.00 Build 0)  -->
<svg version="1.1" id="Layer_1" xmlns="http://www.w3.org/2000/svg" xmlns:xlink="http://www.w3.org/1999/xlink" x="0px" y="0px"
	 viewBox="0 0 936 936" style="enable-background:new 0 0 936 936;" xml:space="preserve">
<style type="text/css">
	.st0{fill:url(#SVGID_1_);}
</style>
<g>
	<g>
		<linearGradient id="SVGID_1_" gradientUnits="userSpaceOnUse" x1="76.3876" y1="467.7723" x2="858.803" y2="467.7723">
			<stop  offset="2.929688e-02" style="stop-color:#E2436A"/>
			<stop  offset="0.3605" style="stop-color:#E72279"/>
			<stop  offset="0.7561" style="stop-color:#C837E8"/>
			<stop  offset="0.8807" style="stop-color:#8A1DE6"/>
			<stop  offset="0.9988" style="stop-color:#5307E4"/>
		</linearGradient>
		<path class="st0" d="M419.9,339.3c-85.5-38.4-174.1-69.8-264.8-93.4c-25.7-6.7-51.7-12.8-77.7-18.2c-1.2-0.3-2,0.7-1.8,1.8
			c11.7,86.4,23.3,172.7,35,259.1c5.8,43.2,11.7,86.4,17.5,129.6c2.9,21.4,5.8,42.9,8.7,64.3c1.5,10.9,2.9,21.8,4.4,32.6
			c1,7.7,2,15.7,5.6,22.7c8.4,16.3,28.2,13.3,43.6,13.5c20.2,0.3,40.3,1.4,60.4,3.3c40.9,3.8,81.6,10.9,121.4,21
			c19.5,5,38.9,10.7,58,17.1c19.3,6.5,38,14.6,57.2,21.6c8.4,3.1,17.2,5,26.2,3.5c9-1.6,17.3-6,25.4-10.1c19.6-10,39.2-20,58.7-29.9
			c77.7-39.6,155.4-79.2,233.2-118.8c9.5-4.8,19-9.7,28.5-14.5c0.4-0.2,0.8-0.8,0.7-1.3c-6.9-66.2-13.9-132.3-20.8-198.5
			c-7-66.5-14-133-20.9-199.4c-3.9-37.4-7.8-74.8-11.8-112.1c-0.1-1.2-1.2-1.8-2.3-1.3c-94.6,42.3-186.9,89.8-276.2,142.3
			c-25.3,14.8-50.3,30.1-75,45.7c0.6,0.8,1.2,1.6,1.8,2.4c69.7-62.7,141.7-122.8,216-180c20.9-16.1,42.1-32,63.3-47.6
			c-0.7-0.3-1.5-0.6-2.2-0.9c22.4,119.7,38.9,240.4,49.3,361.7c2.6,30,4.8,60.1,6.6,90.2c0.9,15.4,1.8,30.7,2.5,46.1
			c0.4,7.5,0.7,15.1,1,22.6c0.1,3.3,0.3,6.5,0.4,9.8c0.1,1.4,0.7,4.6,0.2,5.9c-0.9,2.4-3.5,3.2-5.6,4.4
			c-49.2,28.7-97.3,59.2-144.1,91.5c-52.6,36.2-103.6,74.7-152.9,115.3c0.8,0.2,1.7,0.4,2.5,0.7c-15-111.4-31.4-222.7-49.3-333.7
			c-8.9-55.5-18.2-111-27.8-166.3c-2.4-13.5-4.6-27.1-7.2-40.6c-2.1-11.1-5-22.4-11.1-32.1c-5.8-9.2-14.4-15.9-23.6-21.6
			c-10.9-6.9-22.2-13.2-33.5-19.6c-52.9-30-107.4-57.2-163.3-81.3c-1.1-0.5-2.2,0.1-2.3,1.3c-6.2,116-5.8,232.3,1.2,348.2
			c1.8,29,3.9,57.9,6.5,86.8c1.2,13.9,2.4,27.8,4,41.6c1.2,10.4,3,20.9,7.6,30.4c10.7,22.1,35.3,26.5,56.6,32.9
			c26,7.8,51.8,16.5,77.2,26c57.7,21.7,113.7,47.8,167.3,78.1c1,0.5,2.3-0.1,2.3-1.3c-3.3-95.8-6.6-191.5-9.9-287.3
			c-1.6-47.5-3.3-95.1-4.9-142.6c-0.8-23.6-1.6-47.2-2.4-70.8c-0.4-11.8-0.9-23.5-1.2-35.3c-0.3-11.5,0-23.5,5.2-34.1
			c5-10.2,13.7-18,22-25.6c9.9-8.9,19.7-17.8,29.6-26.7c20.2-18.3,40.5-36.5,60.7-54.8c-0.8-0.2-1.7-0.4-2.5-0.7
			c15.3,108.1,30.6,216.2,45.9,324.3c3.8,27,7.7,54.1,11.5,81.1c1.9,13.5,3.8,27,5.7,40.5c1.7,11.9,6.9,28.4-0.9,39.1
			c-6.2,8.6-17.7,12.3-26.7,17c-9.5,4.9-18.7,10.4-27.7,16.3c-17.1,11.4-33.1,24.4-47.7,38.8c-32.9,32.5-58.5,72.1-74.4,115.5
			c1,0,1.9,0,2.9,0c-26.1-73.5-78.6-136.8-145.9-176.2c-4-2.3-8-4.5-12-6.7c-2-1.1-4.1-2.1-6.1-3.1c-0.9-0.4-2.8-1-3.4-1.7
			c-1.1-1.4-0.8-3.7-0.9-5.3c-0.5-12.5-1-25.1-1.6-37.6c-1.2-25.7-2.6-51.4-4.1-77.1c-3.1-50.7-6.9-101.4-11.4-152.1
			c-5.1-57.2-11.1-114.3-18-171.3c-0.6,0.5-1.3,1-1.9,1.4c21.1,5.4,42.2,10.9,63.3,16.3c10.2,2.6,20.5,5.3,30.7,7.9
			c9.3,2.4,19.2,5,26.1,12.1c12.6,13,12.9,35.4,15.5,52.2c3.4,21.7,6.7,43.4,10.1,65.1c3.8,24.3,7.5,48.7,11.3,73
			c0.3,1.9,3.2,1.1,2.9-0.8c-7-45.4-14-90.7-21-136.1c-2.6-17-3.1-38.1-13.9-52.4c-11-14.5-32.9-16.7-49.2-20.9
			c-24.9-6.4-49.9-12.9-74.8-19.3c-0.8-0.2-2,0.4-1.9,1.4c13.9,115,24.2,230.5,30.8,346.1c1.8,32.6,3.4,65.3,4.7,97.9
			c0,0.5,0.3,1.1,0.7,1.3c60.2,29.1,110.8,76.8,143.8,134.9c9.4,16.5,17.3,33.8,23.6,51.7c0.5,1.4,2.4,1.4,2.9,0
			c14.9-40.5,38.3-77.7,68.3-108.8c14.8-15.3,31.1-29.2,48.7-41.3c8.8-6.1,18-11.6,27.4-16.7c8.8-4.8,18.8-8.4,26.6-14.8
			c7.8-6.4,10.1-15.1,9.4-24.9c-1-13-3.5-26-5.4-38.8c-3.8-27-7.7-54.1-11.5-81.1c-7.8-54.7-15.5-109.4-23.3-164.1
			c-8.7-61.3-17.4-122.6-26.1-183.9c-0.2-1.2-1.8-1.3-2.5-0.7c-18.3,16.5-36.5,33-54.8,49.5c-8.9,8-17.8,16-26.6,24.1
			c-7.8,7-16.1,13.8-22.9,21.8c-6.1,7.1-10.6,15.1-12.5,24.3c-2.2,10.5-1.6,21.3-1.3,32c0.8,24.3,1.7,48.5,2.5,72.8
			c3.3,97.1,6.7,194.2,10,291.2c1.9,54.5,3.7,109.1,5.6,163.6c0.8-0.4,1.5-0.9,2.3-1.3c-46.4-26.1-94.4-49.2-143.9-69
			c-24.6-9.9-49.6-18.9-74.9-27.1c-12.6-4.1-25.3-8-38.1-11.7c-11.8-3.4-24.5-6.7-33.8-15.1c-9-8.1-13-19.9-15.2-31.5
			c-2.3-12.6-3.1-25.5-4.3-38.1c-2.7-28.2-4.9-56.5-6.8-84.8c-3.8-57.3-5.9-114.7-6.5-172.1c-0.6-64,0.8-128,4.2-191.9
			c-0.8,0.4-1.5,0.9-2.3,1.3c48.9,21.1,96.7,44.5,143.4,70.2c11.7,6.4,23.2,13,34.8,19.7c10.8,6.3,22.4,12.2,31.7,20.6
			c19.1,17.2,20.8,45.4,24.9,69.2c19.1,109.4,36.9,219.1,53.3,329c9.2,61.5,17.9,123,26.2,184.7c0.2,1.2,1.8,1.3,2.5,0.7
			c74-60.8,151.8-116.9,232.9-167.9c23.1-14.5,46.4-28.5,69.9-42.2c0.4-0.3,0.8-0.8,0.7-1.3c-2.7-70.7-7.4-141.3-14.1-211.8
			c-6.7-69.9-15.4-139.6-26-209.1c-6.1-39.5-12.8-78.9-20.1-118.2c-0.2-0.9-1.5-1.4-2.2-0.9c-75.5,55.5-148.8,113.9-219.8,175
			c-20.3,17.4-40.3,35.1-60.2,53c-1.3,1.1,0.4,3.3,1.8,2.4c87.7-55.3,178.4-105.7,271.6-150.9c26.4-12.8,52.9-25.1,79.7-37.1
			c-0.8-0.4-1.5-0.9-2.3-1.3c12.4,118.1,24.8,236.2,37.2,354.2c3.1,29.4,6.2,58.9,9.3,88.3c1.5,14.6,3.1,29.1,4.6,43.7
			c0.4,4,0.8,7.9,1.2,11.9c0.3,2.5,1.9,7.7,1,9.9c-1,2.8-5.4,3.9-7.9,5.2c-4.2,2.1-8.3,4.2-12.5,6.4
			c-52.8,26.9-105.6,53.8-158.4,80.7c-26.1,13.3-52.2,26.6-78.3,39.9c-13.3,6.8-26.7,13.6-40,20.4c-13,6.6-26.1,14.9-40.1,19.4
			c-14.5,4.7-27.3,0.1-40.7-5.4c-12.6-5.2-25.4-10.1-38.2-14.6c-26.3-9.3-53.1-17.1-80.3-23.6c-53.2-12.6-107.8-19.7-162.5-21.1
			c-6.8-0.2-13.6-0.2-20.5-0.3c-6.7,0-14,0.2-20-3.3c-10.8-6.2-11.8-20.6-13.3-31.6c-4-29.7-8-59.3-12-89
			C116,507,100.1,389.6,84.3,272.3c-2-14.5-3.9-29-5.9-43.5c-0.6,0.6-1.2,1.2-1.8,1.8c91.3,19.2,180.9,46,267.8,80.1
			c24.9,9.8,49.6,20.2,74,31.2C420.1,342.7,421.7,340.1,419.9,339.3L419.9,339.3z"/>
	</g>
</g>
</svg>
